<svg width="55" height="55" viewBox="0 0 55 55" fill="none" xmlns="http://www.w3.org/2000/svg">
<path d="M52.4219 11.0859C52.4219 10.6563 51.9922 10.3125 51.5625 10.3125C36.0938 10.3125 32.6563 3.17969 32.5703 3.09375C32.4844 2.75 32.1406 2.57812 31.7969 2.57812H23.2031C22.8594 2.57812 22.6016 2.75 22.4297 3.09375C22.3438 3.17969 18.9063 10.3125 3.43751 10.3125C3.00782 10.3125 2.57814 10.6563 2.57814 11.0859C2.57814 11.4297 1.1172 45.375 27.2422 52.3359C27.3281 52.3359 27.4141 52.3359 27.5 52.3359C27.5859 52.3359 27.6719 52.3359 27.7578 52.3359C53.8828 45.4609 52.4219 11.4297 52.4219 11.0859ZM27.5 50.7031C5.15626 44.5156 4.21095 17.1016 4.29689 12.0313C18.0469 11.7734 22.6016 6.10156 23.7188 4.29688H31.2813C32.3984 6.10156 36.9531 11.7734 50.7031 12.0313C50.7891 17.1016 49.8438 44.5156 27.5 50.7031Z" fill="#FF7527"/>
<path d="M28.1875 6.35938C28.0157 6.10156 27.7578 6.01562 27.5 6.01562C27.2422 6.01562 26.9844 6.10156 26.8125 6.35938C26.8125 6.35938 20.625 13.75 7.73441 13.75C7.30472 13.75 6.87503 14.0938 6.87503 14.5234C6.87503 14.7813 5.67191 42.2813 27.2422 48.0391C27.3282 48.0391 27.4141 48.0391 27.5 48.0391C27.586 48.0391 27.6719 48.0391 27.7578 48.0391C49.3282 42.3672 48.125 14.8672 48.125 14.5234C48.125 14.0938 47.6953 13.75 47.2657 13.75C34.461 13.75 28.1875 6.35938 28.1875 6.35938ZM27.5 46.4063C9.45316 41.4219 8.59378 19.9375 8.59378 15.4688C19.4219 15.2109 25.6094 10.0547 27.5 8.16406C29.4766 10.1406 35.5782 15.2109 46.4063 15.4688C46.4063 19.9375 45.5469 41.4219 27.5 46.4063Z" fill="#FF7527"/>
<path d="M27.5 28.3594C25.0938 28.3594 23.2031 30.25 23.2031 32.6562C23.2031 35.0625 25.0938 36.9531 27.5 36.9531C29.9062 36.9531 31.7969 35.0625 31.7969 32.6562C31.7969 30.25 29.9062 28.3594 27.5 28.3594ZM27.5 35.2344C26.0391 35.2344 24.9219 34.1172 24.9219 32.6562C24.9219 31.1953 26.0391 30.0781 27.5 30.0781C28.9609 30.0781 30.0781 31.1953 30.0781 32.6562C30.0781 34.1172 28.9609 35.2344 27.5 35.2344Z" fill="#FF7527"/>
<path d="M27.5 24.9219C25.1797 24.9219 23.0312 26.0391 21.7422 28.0156C21.4844 28.4453 21.5703 28.9609 22 29.2187C22.4297 29.4766 22.9453 29.3906 23.2031 28.9609C24.1484 27.5 25.7813 26.6406 27.5 26.6406C29.2188 26.6406 30.8516 27.5 31.7969 28.9609C31.9688 29.2188 32.2266 29.3047 32.4844 29.3047C32.6563 29.3047 32.8281 29.2188 33 29.1328C33.4297 28.875 33.5156 28.3594 33.2578 27.9297C31.9688 26.0391 29.8203 24.9219 27.5 24.9219Z" fill="#FF7527"/>
<path d="M27.5 21.4844C24.2344 21.4844 21.3125 22.9453 19.336 25.5234C19.0782 25.8672 19.0782 26.4688 19.5079 26.7266C19.8516 26.9844 20.4532 26.9844 20.711 26.5547C22.3438 24.4062 24.836 23.2031 27.5 23.2031C30.1641 23.2031 32.6563 24.4062 34.2891 26.5547C34.461 26.8125 34.7188 26.8984 34.9766 26.8984C35.1485 26.8984 35.3204 26.8125 35.4922 26.7266C35.836 26.4688 35.9219 25.8672 35.6641 25.5234C33.6875 22.9453 30.7657 21.4844 27.5 21.4844Z" fill="#FF7527"/>
<path d="M16.9296 23.0312C16.5859 23.375 16.6718 23.9766 17.0156 24.2344C17.3593 24.5781 17.9609 24.4922 18.2187 24.1484C20.539 21.3984 23.8906 19.7656 27.5 19.7656C31.1093 19.7656 34.4609 21.3984 36.7812 24.1484C36.9531 24.3203 37.2109 24.4922 37.4687 24.4922C37.6406 24.4922 37.8984 24.4062 37.9843 24.3203C38.3281 23.9766 38.414 23.4609 38.0703 23.1172C35.4921 19.8516 31.625 18.0469 27.5 18.0469C23.375 18.0469 19.5078 19.8516 16.9296 23.0312Z" fill="#FF7527"/>
</svg>
