<svg width="55" height="55" viewBox="0 0 55 55" fill="none" xmlns="http://www.w3.org/2000/svg">
<g clip-path="url(#clip0_25_886)">
<path d="M33.4961 21.3348C33.4961 18.0286 30.8063 15.3389 27.5002 15.3389C24.1939 15.3389 21.5042 18.0286 21.5042 21.3348V23.6197H17.4631V30.5285C17.5189 36.0063 22.0215 40.4629 27.5002 40.4629C32.979 40.4629 37.4815 36.0063 37.5371 30.5188V23.6197H33.4961L33.4961 21.3348ZM35.6203 25.5364V30.509C35.5754 34.9407 31.9327 38.5462 27.5002 38.5462C23.0677 38.5462 19.4249 34.9407 19.3798 30.5187V25.5364H35.6203ZM23.4209 23.6197V21.3348C23.4209 19.0855 25.2509 17.2556 27.5002 17.2556C29.7494 17.2556 31.5794 19.0855 31.5794 21.3348V23.6197H23.4209Z" fill="#5C47E0"/>
<path d="M50.9928 23.2005C49.2167 13.4724 41.5276 5.78335 31.7997 4.00734C31.5197 1.88361 29.699 0.23877 27.5 0.23877C25.301 0.23877 23.4802 1.8837 23.2002 4.00743C13.4723 5.78347 5.7832 13.4726 4.00725 23.2005C1.88342 23.4805 0.238525 25.3014 0.238525 27.5003C0.238525 29.6993 1.88342 31.5199 4.00725 31.7999C5.78317 41.5279 13.4722 49.2168 23.2002 50.9929C23.4802 53.1166 25.301 54.7616 27.5 54.7616C29.699 54.7616 31.5197 53.1167 31.7997 50.9929C41.5276 49.2169 49.2169 41.5279 50.9928 31.8C53.1166 31.5201 54.7615 29.6993 54.7615 27.5003C54.7615 25.3014 53.1166 23.4805 50.9928 23.2005ZM27.5 2.15549C28.5358 2.15549 29.4191 2.81036 29.7645 3.72678C29.8644 3.99176 29.9216 4.27754 29.9216 4.57705C29.9216 4.95976 29.8299 5.32062 29.6712 5.6427C29.2761 6.44451 28.4526 6.99882 27.5 6.99882C26.5473 6.99882 25.7238 6.44451 25.3287 5.6427C25.1699 5.32062 25.0783 4.95976 25.0783 4.57705C25.0783 4.27757 25.1355 3.99179 25.2354 3.72678C25.5808 2.81036 26.4641 2.15549 27.5 2.15549ZM3.72663 29.7648C2.81011 29.4194 2.15525 28.5361 2.15525 27.5003C2.15525 26.4644 2.81011 25.5811 3.72663 25.2357C3.9916 25.1358 4.27745 25.0786 4.57696 25.0786C4.9596 25.0786 5.32046 25.1702 5.64255 25.329C6.44421 25.7241 6.99852 26.5476 6.99852 27.5003C6.99852 28.453 6.44421 29.2763 5.64255 29.6715C5.32046 29.8301 4.9596 29.9218 4.57696 29.9218C4.27745 29.9218 3.9916 29.8646 3.72663 29.7648ZM27.5 52.8449C26.4641 52.8449 25.5808 52.19 25.2354 51.2735C25.1355 51.0085 25.0783 50.7227 25.0783 50.4232C25.0783 50.0405 25.1699 49.6796 25.3287 49.3576C25.7238 48.5558 26.5473 48.0016 27.5 48.0016C28.4526 48.0016 29.2761 48.5558 29.6712 49.3576C29.8299 49.6796 29.9216 50.0405 29.9216 50.4232C29.9216 50.7227 29.8644 51.0085 29.7645 51.2735C29.4191 52.19 28.5358 52.8449 27.5 52.8449ZM31.6228 49.0751C31.0543 47.3411 29.4216 46.0849 27.5 46.0849C25.5785 46.0849 23.9456 47.3411 23.3771 49.0751C14.5659 47.3947 7.60538 40.4343 5.92504 31.623C7.659 31.0545 8.91523 29.4218 8.91523 27.5003C8.91523 25.5788 7.659 23.9459 5.92504 23.3774C7.60538 14.5661 14.5659 7.60556 23.3771 5.92522C23.9456 7.65931 25.5785 8.91554 27.5 8.91554C29.4216 8.91554 31.0543 7.65931 31.6228 5.92522C40.4341 7.60556 47.3946 14.5661 49.075 23.3774C47.3409 23.9459 46.0847 25.5788 46.0847 27.5003C46.0847 29.4218 47.3409 31.0545 49.075 31.623C47.3946 40.4343 40.4341 47.3947 31.6228 49.0751ZM51.2734 29.7648C51.0084 29.8646 50.7227 29.9218 50.4232 29.9218C50.0404 29.9218 49.6796 29.8301 49.3575 29.6715C48.5557 29.2763 48.0014 28.453 48.0014 27.5003C48.0014 26.5477 48.5557 25.7242 49.3575 25.329C49.6796 25.1702 50.0404 25.0786 50.4232 25.0786C50.7227 25.0786 51.0084 25.1358 51.2734 25.2357C52.1899 25.5809 52.8448 26.4644 52.8448 27.5003C52.8448 28.5361 52.1899 29.4196 51.2734 29.7648Z" fill="#5C47E0"/>
</g>
<defs>
<clipPath id="clip0_25_886">
<rect width="55" height="55" fill="white"/>
</clipPath>
</defs>
</svg>
