<svg width="55" height="53" viewBox="0 0 55 53" fill="none" xmlns="http://www.w3.org/2000/svg">
<path d="M27.4866 37.0366C25.471 37.0366 23.8218 38.6858 23.8218 40.7015C23.8218 42.4012 24.9944 43.8401 26.5705 44.2496V46.1988C26.5705 46.7486 26.9369 47.115 27.4866 47.115C28.0364 47.115 28.4028 46.7486 28.4028 46.1988V44.2496C29.9789 43.8401 31.1515 42.4012 31.1515 40.7015C31.1515 38.6858 29.5023 37.0366 27.4866 37.0366ZM27.4866 42.534C26.4788 42.534 25.6542 41.7094 25.6542 40.7015C25.6542 39.6936 26.4788 38.869 27.4866 38.869C28.4945 38.869 29.3191 39.6936 29.3191 40.7015C29.3191 41.7094 28.4945 42.534 27.4866 42.534Z" fill="#227AFF"/>
<path d="M46.7275 15.2305C46.1777 6.98451 39.3976 0.387695 31.1516 0.387695C26.2103 0.387695 21.4521 2.85527 18.428 6.7862C18.3036 6.72274 18.1773 6.6623 18.0492 6.60507C17.0351 6.10397 15.8839 5.88504 14.6596 5.88504C13.228 5.88504 11.8859 6.24291 10.717 6.87489C10.4833 7.00126 10.2564 7.13859 10.0373 7.28622C9.7084 7.50773 9.39671 7.75232 9.10445 8.01774C8.90957 8.19468 8.72328 8.38097 8.54634 8.57584C8.28081 8.86821 8.03622 9.17991 7.81482 9.50868C7.66719 9.72793 7.52986 9.95469 7.40349 10.1884C7.21387 10.5391 7.04895 10.9053 6.91098 11.2849C6.81897 11.538 6.73898 11.7969 6.67155 12.0612C6.50308 12.7217 6.41364 13.4152 6.41364 14.131C6.41364 14.2225 6.41364 14.4058 6.41364 14.4974C2.65709 16.6049 0 20.9111 0 25.3089C0 31.7225 5.31407 37.0366 11.7277 37.0366H12.8272V45.2827C12.8272 49.3141 16.1256 52.6125 20.157 52.6125H34.8166C38.848 52.6125 42.1464 49.3141 42.1464 45.2827V37.0366H43.6123C49.2013 37.0366 54.0573 33.0052 54.8819 27.6912C55.7065 22.1022 52.1332 16.6049 46.7275 15.2305ZM40.3139 45.2827C40.3139 48.3062 37.8401 50.78 34.8166 50.78H20.1569C17.1334 50.78 14.6596 48.3062 14.6596 45.2827V37.0366V33.6466C14.6596 33.4634 14.7511 33.3718 14.9344 33.3718H17.4082H21.0731H33.9003H37.5651H40.0389C40.2222 33.3718 40.3138 33.4634 40.3138 33.6466V37.0366V45.2827H40.3139ZM36.6489 31.5393H34.8165V28.7906C34.8165 24.7592 31.5181 21.4608 27.4866 21.4608C23.4552 21.4608 20.1568 24.7592 20.1568 28.7906V31.5393H18.3243V28.7906C18.3243 23.7514 22.4473 19.6284 27.4865 19.6284C32.5257 19.6284 36.6487 23.7514 36.6487 28.7906V31.5393H36.6489ZM21.9894 31.5393V28.7906C21.9894 25.7671 24.4632 23.2933 27.4867 23.2933C30.5103 23.2933 32.9841 25.7671 32.9841 28.7906V31.5393H21.9894ZM53.0494 27.4163C52.3164 31.9058 48.2851 35.2042 43.6123 35.2042H42.1464V33.6465C42.1464 32.4555 41.2302 31.5392 40.0391 31.5392H38.4814V28.7905C38.4814 22.7434 33.5338 17.7958 27.4867 17.7958C21.4397 17.7958 16.492 22.7434 16.492 28.7905V31.5392H14.9344C13.7434 31.5392 12.8271 32.4554 12.8271 33.6465V35.2042H11.7276C6.32184 35.2042 1.83238 30.7147 1.83238 25.3089C1.83238 21.4608 4.30618 17.5211 7.69618 15.9634L8.24591 15.6886V15.1388C8.24591 15.0473 8.24591 14.864 8.24591 14.6807V14.5891V14.4058C8.24591 14.3142 8.24591 14.2225 8.24591 14.131C8.24591 10.5577 11.0862 7.71742 14.6595 7.71742C14.7592 7.71742 14.8582 7.72043 14.9568 7.72483C14.9848 7.72612 15.0127 7.72773 15.0407 7.72934C15.1182 7.73374 15.1954 7.73954 15.2722 7.74662C15.295 7.74877 15.3177 7.75038 15.3404 7.75275C15.4381 7.76284 15.5352 7.77486 15.6314 7.78914C15.6455 7.79129 15.6596 7.79387 15.6739 7.79602C15.7638 7.80997 15.8532 7.82554 15.9418 7.84315C15.9528 7.8453 15.964 7.84745 15.9751 7.8497C18.9054 8.44754 21.0731 11.0095 21.0731 14.1311C21.0731 14.6808 21.4395 15.0473 21.9893 15.0473C22.539 15.0473 22.9055 14.6808 22.9055 14.1311C22.9055 11.6012 21.7865 9.35245 20.0141 7.84433C22.6477 4.39754 26.9454 2.22007 31.2433 2.22007C38.3599 2.22007 44.296 7.86506 44.8525 15.0344C43.9182 14.9634 42.4829 14.918 41.0468 15.1388C40.5887 15.1388 40.2222 15.6886 40.3138 16.1467C40.4054 16.5132 40.772 16.8797 41.23 16.8797H41.3216C43.4287 16.6049 45.6276 16.8797 45.6279 16.8797C50.484 17.7959 53.7824 22.4687 53.0494 27.4163Z" fill="#227AFF"/>
</svg>
