<svg width="219" height="60" viewBox="0 0 219 60" fill="none" xmlns="http://www.w3.org/2000/svg">
<g clip-path="url(#clip0_12_135)">
<mask id="mask0_12_135" style="mask-type:luminance" maskUnits="userSpaceOnUse" x="0" y="0" width="219" height="60">
<path d="M219 0H0V60H219V0Z" fill="white"/>
</mask>
<g mask="url(#mask0_12_135)">
<path d="M22.118 0.13659C21.1467 0.407001 19.7976 1.12089 19.2148 1.69416C18.3406 2.54866 17.9089 3.61949 17.6822 5.49073C17.5311 6.81034 17.1534 7.9677 16.4734 9.14669C15.5884 10.6935 14.8438 11.6021 12.6205 13.8194C10.4188 16.026 9.74964 16.5344 8.11995 17.2158C7.36447 17.5295 5.30308 18.146 5.00088 18.146C4.64473 18.146 3.3712 18.6436 2.82077 19.0005C0.608283 20.4175 -0.654454 23.7057 0.34926 25.4255C0.953647 26.4422 1.97895 26.9073 3.6518 26.9073C5.31387 26.9073 6.20966 26.5179 7.50477 25.2308C8.57324 24.1708 8.82147 23.684 9.32872 21.6614C9.99787 18.9789 10.4943 18.2217 14.0343 14.4251C16.6245 11.6561 17.6283 10.78 19.0421 10.0769C20.3912 9.4171 21.1682 9.23322 22.6037 9.23322C24.0067 9.24404 25.0428 9.53608 26.0681 10.1959C26.7804 10.661 30.4499 14.317 31.4104 15.5284C32.5437 16.9562 33.0509 18.3299 33.3747 20.9366C33.4934 21.8777 33.6013 22.3103 33.8712 22.8512C35.3066 25.7716 39.0948 27.0155 42.0196 25.5336C42.829 25.1226 43.6601 24.2789 44.0486 23.4569C44.3292 22.8728 44.394 22.5807 44.4371 21.7695C44.5235 20.1146 44.0702 18.9789 42.829 17.6593C41.4476 16.2099 40.3791 15.7015 38.3717 15.5392C36.116 15.3662 35.0368 15.0958 33.5582 14.3602C32.5868 13.8627 31.7234 13.1272 30.0829 11.3857C28.6583 9.87139 28.313 9.43874 27.8597 8.6275C27.2337 7.49177 27.1581 7.12402 27.0826 4.76603C27.0178 2.71091 26.9963 2.55948 26.7264 2.00784C26.3703 1.28313 25.658 0.547614 25.032 0.266387C24.3952 -0.0256567 22.949 -0.0905563 22.118 0.13659Z" fill="white"/>
<path d="M34.8745 0.363314C34.1514 0.720255 33.4175 1.55312 33.1261 2.3319C32.9318 2.84027 32.8995 3.1215 32.9318 3.93274C32.9858 5.26316 33.3635 6.05276 34.5615 7.29665C35.7163 8.50809 36.1696 8.74605 38.285 9.26524C40.26 9.74117 41.5336 10.3036 42.7423 11.2013C43.4331 11.7205 47.0162 15.463 48.3221 17.0314C50.308 19.411 51.0527 22.3855 50.2864 24.9058C49.9734 25.9117 49.6388 26.4742 48.7646 27.4476C47.6854 28.6483 44.9764 31.1252 44.3181 31.5146C42.969 32.3042 41.253 32.7801 39.2779 32.9099C38.6519 32.9424 37.9072 33.0506 37.605 33.1479C35.8998 33.6779 34.4104 35.1489 33.7629 36.912C33.4175 37.8531 33.4067 39.5621 33.7521 40.5355C34.0543 41.4225 35.1767 42.8827 35.9106 43.3478C37.9936 44.6674 40.5298 44.2348 42.5804 42.2121C43.2928 41.509 43.541 41.1737 43.9079 40.4166C44.2965 39.6053 44.3828 39.2916 44.5663 37.9612C45.1059 34.0673 45.9262 32.5963 49.2611 29.5785C51.4088 27.6423 52.3046 27.2638 55.1431 27.1015C57.5606 26.9717 58.0031 26.8852 58.7154 26.3876C59.8702 25.5656 60.2372 24.3109 59.7947 22.5694C59.3414 20.7523 58.4888 19.5516 57.1181 18.8269C56.7296 18.6106 55.7798 18.2969 54.7761 18.0373C52.3694 17.4208 51.2577 16.9665 49.9626 16.0904C48.5272 15.1169 45.829 12.3803 44.3396 10.4009C43.5086 9.29769 42.4941 7.23175 42.1272 5.92296C41.9761 5.3605 41.6847 4.54927 41.4796 4.11662C40.0981 1.20699 36.8604 -0.631799 34.8745 0.363314Z" fill="white"/>
<path d="M11.919 5.13228C11.2823 5.46759 10.1598 6.47352 8.13081 8.53946C6.01546 10.6811 5.10887 11.8493 4.99016 12.5632C4.93619 12.8769 4.97936 12.9634 5.23839 13.1256C5.6593 13.4069 6.29606 13.3528 7.23502 12.9634C9.85763 11.8709 12.1996 9.43722 13.0522 6.93863C13.3329 6.13821 13.3329 5.37024 13.0738 5.13228C12.8256 4.90513 12.3399 4.90513 11.919 5.13228Z" fill="white"/>
<path d="M46.9197 5.17603C46.6499 5.32746 46.6607 6.19278 46.9305 6.92829C47.1895 7.63136 47.6212 8.65893 47.6968 8.73464C47.7291 8.76709 47.8479 8.9726 47.9558 9.19975C48.2904 9.85955 50.4381 11.8497 51.3878 12.3906C54.14 13.9481 55.8884 13.5912 54.6364 11.7308C53.6003 10.2056 50.1575 6.74441 48.517 5.58705C47.7615 5.04623 47.319 4.93807 46.9197 5.17603Z" fill="white"/>
<path d="M19.6792 15.8531C17.9848 16.4588 16.6465 17.7027 15.8371 19.4117C15.578 19.9633 15.4917 20.3635 15.3622 21.575C15.2758 22.397 15.1571 23.3272 15.1032 23.6409C14.9521 24.4738 14.3369 25.9124 13.7757 26.7669C13.2576 27.5565 10.2789 30.5526 9.27514 31.3206C8.0232 32.2616 6.76046 32.6402 4.47242 32.7484C2.97225 32.8241 2.79956 32.8457 2.09804 33.1702C0.252503 34.0139 -0.351884 35.3768 0.19854 37.5184C0.533111 38.8272 0.824512 39.4762 1.37494 40.1576C2.28152 41.2933 2.99383 41.6287 4.97967 41.8883C8.28222 42.3101 9.64209 43.0348 12.4698 45.8795C15.7831 49.211 16.7113 50.6496 17.5963 53.7647C17.8445 54.6084 18.1791 55.6035 18.3625 55.9604C18.9345 57.1394 20.4023 58.697 21.6219 59.4109C22.2911 59.8003 23.3487 60.0382 24.1366 59.9734C25.2914 59.8868 26.1116 59.227 26.7052 57.9182C27.4499 56.2958 26.9966 54.1541 25.572 52.6074C24.5359 51.4933 23.3703 50.8875 21.5356 50.5414C19.5929 50.1845 17.9308 49.3408 16.4846 47.9779C15.2758 46.853 11.4013 42.5264 10.8293 41.6611C9.64209 39.8764 9.22118 38.4811 9.30752 36.599C9.37227 35.1388 9.6205 34.36 10.376 33.2243C10.948 32.359 13.7109 29.4385 14.9737 28.3569C16.3875 27.1454 17.9632 26.5289 20.4563 26.2152C22.6472 25.934 23.5646 25.5446 24.7734 24.3981C25.9282 23.3056 26.4354 22.1266 26.4354 20.5366C26.4354 18.8276 25.7987 17.4647 24.5791 16.567C23.6293 15.8747 22.917 15.6259 21.6327 15.5827C20.6614 15.5502 20.4671 15.5718 19.6792 15.8531Z" fill="white"/>
<path d="M54.4739 32.9538C53.0169 33.4297 51.6786 34.6736 51.0311 36.1771C50.9124 36.4583 50.6965 37.2155 50.5562 37.8536C50.1461 39.6816 49.4985 41.1202 48.5704 42.2667C47.3076 43.8351 43.4331 47.9454 42.5373 48.6593C41.5983 49.4164 40.0658 50.1952 39.0081 50.444C38.5764 50.5413 37.8101 50.617 37.2273 50.617C35.9754 50.6062 34.7774 50.2709 33.8168 49.6436C32.8779 49.027 29.1544 45.1223 28.2478 43.8027C27.7514 43.078 26.9959 41.4122 26.8232 40.6443C26.7369 40.2549 26.5858 39.3247 26.4994 38.5783C26.2728 36.7395 25.9922 35.9824 25.1719 34.9981C23.8013 33.3324 21.5132 32.5211 19.5274 32.9754C18.0272 33.3215 16.5055 34.5005 15.8471 35.831C15.3722 36.7936 15.2859 38.1998 15.6205 39.303C16.063 40.7524 17.1422 42.1261 18.5561 43.0672C19.495 43.6837 20.1102 43.8676 21.7615 44.0082C23.7797 44.1704 24.492 44.3543 25.8951 45.0358C27.093 45.6198 27.1794 45.6956 28.5392 47.0692C30.1366 48.7025 31.3345 50.0762 31.8094 50.8658C31.9929 51.1579 32.2735 51.796 32.4354 52.272C32.7052 53.0616 32.7376 53.3211 32.7915 55.3006C32.8563 57.3773 32.8671 57.4855 33.1585 58.0696C33.5362 58.8592 34.1082 59.4324 34.8313 59.7677C35.3386 59.9949 35.5329 60.0273 36.2452 59.9841C37.3029 59.9192 38.9649 59.3675 39.8175 58.7943C40.9292 58.0587 41.2422 57.4422 42.03 54.5326C42.9042 51.3201 43.3899 50.325 45.1167 48.2591C47.1457 45.8254 49.2395 43.9108 50.7181 43.1429C52.1319 42.3965 52.963 42.1478 54.7222 41.899C56.4814 41.6502 56.9778 41.4231 58.0031 40.3847C58.5212 39.8655 59.0068 39.249 59.2119 38.8596C59.6544 38.0159 59.9997 36.7504 59.9997 35.9824C59.9997 34.6628 58.9744 33.4081 57.5067 32.9538C56.654 32.6834 55.3157 32.6834 54.4739 32.9538Z" fill="white"/>
<path d="M52.823 46.8954C50.4702 47.8364 48.4951 49.5887 47.5346 51.6221C46.9086 52.9309 46.7036 53.5907 46.7467 54.2289C46.7791 54.6724 46.8223 54.7805 47.0597 54.8887C47.7504 55.224 48.7757 54.4885 51.6682 51.5789C54.2692 48.9721 55.0355 47.977 55.0355 47.2523C55.0355 46.5492 54.0965 46.3978 52.823 46.8954Z" fill="white"/>
<path d="M5.12975 46.873C4.66567 47.3381 5.2161 48.4306 6.87816 50.3126C8.02218 51.6214 10.4721 53.8929 11.4326 54.5419C12.3284 55.1584 12.7278 55.2449 13.0407 54.9096C13.3861 54.5311 13.3429 53.7631 12.9112 52.6923C11.9183 50.2586 9.72741 48.052 7.27749 47.0569C6.29536 46.6567 5.41036 46.581 5.12975 46.873Z" fill="white"/>
<path d="M83.1201 58.9961V48.9161H84.1491V58.9961H83.1201ZM88.9287 58.9961V49.9031H85.4077V48.9161H93.4787V49.9031H89.9577V58.9961H88.9287ZM99.8011 59.1991C98.9144 59.1991 98.1841 59.0078 97.6101 58.6251C97.0408 58.2424 96.6908 57.7104 96.5601 57.0291L97.6101 56.8541C97.7221 57.2834 97.9764 57.6264 98.3731 57.8831C98.7744 58.1351 99.2691 58.2611 99.8571 58.2611C100.431 58.2611 100.884 58.1421 101.215 57.9041C101.546 57.6614 101.712 57.3324 101.712 56.9171C101.712 56.6838 101.658 56.4948 101.551 56.3501C101.448 56.2008 101.236 56.0631 100.914 55.9371C100.592 55.8111 100.111 55.6618 99.4721 55.4891C98.7861 55.3024 98.2494 55.1158 97.8621 54.9291C97.4748 54.7424 97.1994 54.5278 97.0361 54.2851C96.8728 54.0378 96.7911 53.7368 96.7911 53.3821C96.7911 52.9528 96.9124 52.5771 97.1551 52.2551C97.3978 51.9284 97.7338 51.6764 98.1631 51.4991C98.5924 51.3171 99.0918 51.2261 99.6611 51.2261C100.23 51.2261 100.739 51.3194 101.187 51.5061C101.64 51.6881 102.004 51.9448 102.279 52.2761C102.554 52.6074 102.718 52.9924 102.769 53.4311L101.719 53.6201C101.649 53.1768 101.427 52.8268 101.054 52.5701C100.685 52.3088 100.216 52.1734 99.6471 52.1641C99.1104 52.1501 98.6741 52.2528 98.3381 52.4721C98.0021 52.6868 97.8341 52.9738 97.8341 53.3331C97.8341 53.5338 97.8948 53.7064 98.0161 53.8511C98.1374 53.9911 98.3568 54.1241 98.6741 54.2501C98.9961 54.3761 99.4534 54.5138 100.046 54.6631C100.741 54.8404 101.287 55.0271 101.684 55.2231C102.081 55.4191 102.363 55.6501 102.531 55.9161C102.699 56.1821 102.783 56.5111 102.783 56.9031C102.783 57.6171 102.517 58.1794 101.985 58.5901C101.458 58.9961 100.73 59.1991 99.8011 59.1991ZM107.492 59.2061C106.741 59.2061 106.099 59.0358 105.567 58.6951C105.035 58.3544 104.627 57.8831 104.342 57.2811C104.058 56.6791 103.915 55.9884 103.915 55.2091C103.915 54.4158 104.06 53.7204 104.349 53.1231C104.639 52.5258 105.049 52.0614 105.581 51.7301C106.118 51.3941 106.755 51.2261 107.492 51.2261C108.248 51.2261 108.892 51.3964 109.424 51.7371C109.961 52.0731 110.369 52.5421 110.649 53.1441C110.934 53.7414 111.076 54.4298 111.076 55.2091C111.076 56.0024 110.934 56.7001 110.649 57.3021C110.365 57.8994 109.954 58.3661 109.417 58.7021C108.881 59.0381 108.239 59.2061 107.492 59.2061ZM107.492 58.2191C108.332 58.2191 108.958 57.9414 109.368 57.3861C109.779 56.8261 109.984 56.1004 109.984 55.2091C109.984 54.2944 109.777 53.5664 109.361 53.0251C108.951 52.4838 108.328 52.2131 107.492 52.2131C106.928 52.2131 106.461 52.3414 106.092 52.5981C105.728 52.8501 105.455 53.2024 105.273 53.6551C105.096 54.1031 105.007 54.6211 105.007 55.2091C105.007 56.1191 105.217 56.8494 105.637 57.4001C106.057 57.9461 106.676 58.2191 107.492 58.2191ZM112.761 58.9961V48.7061H113.79V58.9961H112.761ZM118.779 59.1851C118.327 59.1851 117.93 59.1151 117.589 58.9751C117.253 58.8351 116.966 58.6461 116.728 58.4081C116.495 58.1701 116.306 57.8994 116.161 57.5961C116.017 57.2881 115.912 56.9638 115.846 56.6231C115.781 56.2778 115.748 55.9348 115.748 55.5941V51.4361H116.784V55.2931C116.784 55.7084 116.824 56.0934 116.903 56.4481C116.983 56.8028 117.109 57.1131 117.281 57.3791C117.459 57.6404 117.685 57.8434 117.96 57.9881C118.24 58.1328 118.579 58.2051 118.975 58.2051C119.339 58.2051 119.659 58.1421 119.934 58.0161C120.214 57.8901 120.448 57.7104 120.634 57.4771C120.826 57.2391 120.97 56.9521 121.068 56.6161C121.166 56.2754 121.215 55.8928 121.215 55.4681L121.943 55.6291C121.943 56.4038 121.808 57.0548 121.537 57.5821C121.267 58.1094 120.893 58.5084 120.417 58.7791C119.941 59.0498 119.395 59.1851 118.779 59.1851ZM121.32 58.9961V57.1341H121.215V51.4361H122.244V58.9961H121.32ZM128.317 58.9961C127.892 59.0848 127.472 59.1198 127.057 59.1011C126.646 59.0824 126.277 58.9938 125.951 58.8351C125.629 58.6764 125.384 58.4291 125.216 58.0931C125.08 57.8131 125.006 57.5308 124.992 57.2461C124.982 56.9568 124.978 56.6278 124.978 56.2591V49.3361H126V56.2171C126 56.5344 126.002 56.8004 126.007 57.0151C126.016 57.2251 126.065 57.4118 126.154 57.5751C126.322 57.8878 126.588 58.0744 126.952 58.1351C127.32 58.1958 127.775 58.1818 128.317 58.0931V58.9961ZM123.361 52.3181V51.4361H128.317V52.3181H123.361ZM129.946 50.0011V48.8461H130.975V50.0011H129.946ZM129.946 58.9961V51.4361H130.975V58.9961H129.946ZM136.231 59.2061C135.479 59.2061 134.838 59.0358 134.306 58.6951C133.774 58.3544 133.365 57.8831 133.081 57.2811C132.796 56.6791 132.654 55.9884 132.654 55.2091C132.654 54.4158 132.798 53.7204 133.088 53.1231C133.377 52.5258 133.788 52.0614 134.32 51.7301C134.856 51.3941 135.493 51.2261 136.231 51.2261C136.987 51.2261 137.631 51.3964 138.163 51.7371C138.699 52.0731 139.108 52.5421 139.388 53.1441C139.672 53.7414 139.815 54.4298 139.815 55.2091C139.815 56.0024 139.672 56.7001 139.388 57.3021C139.103 57.8994 138.692 58.3661 138.156 58.7021C137.619 59.0381 136.977 59.2061 136.231 59.2061ZM136.231 58.2191C137.071 58.2191 137.696 57.9414 138.107 57.3861C138.517 56.8261 138.723 56.1004 138.723 55.2091C138.723 54.2944 138.515 53.5664 138.1 53.0251C137.689 52.4838 137.066 52.2131 136.231 52.2131C135.666 52.2131 135.199 52.3414 134.831 52.5981C134.467 52.8501 134.194 53.2024 134.012 53.6551C133.834 54.1031 133.746 54.6211 133.746 55.2091C133.746 56.1191 133.956 56.8494 134.376 57.4001C134.796 57.9461 135.414 58.2191 136.231 58.2191ZM146.819 58.9961V55.1391C146.819 54.7191 146.779 54.3341 146.7 53.9841C146.621 53.6294 146.492 53.3214 146.315 53.0601C146.142 52.7941 145.916 52.5888 145.636 52.4441C145.361 52.2994 145.025 52.2271 144.628 52.2271C144.264 52.2271 143.942 52.2901 143.662 52.4161C143.387 52.5421 143.153 52.7241 142.962 52.9621C142.775 53.1954 142.633 53.4801 142.535 53.8161C142.437 54.1521 142.388 54.5348 142.388 54.9641L141.66 54.8031C141.66 54.0284 141.795 53.3774 142.066 52.8501C142.337 52.3228 142.71 51.9238 143.186 51.6531C143.662 51.3824 144.208 51.2471 144.824 51.2471C145.277 51.2471 145.671 51.3171 146.007 51.4571C146.348 51.5971 146.635 51.7861 146.868 52.0241C147.106 52.2621 147.297 52.5351 147.442 52.8431C147.587 53.1464 147.692 53.4708 147.757 53.8161C147.822 54.1568 147.855 54.4974 147.855 54.8381V58.9961H146.819ZM141.352 58.9961V51.4361H142.283V53.2981H142.388V58.9961H141.352ZM155.715 59.2061C155.155 59.2061 154.635 59.1268 154.154 58.9681C153.678 58.8048 153.279 58.5504 152.957 58.2051C152.705 57.9344 152.518 57.6334 152.397 57.3021C152.276 56.9661 152.208 56.6114 152.194 56.2381C152.189 55.8834 152.241 55.5311 152.348 55.1811C152.455 54.8311 152.623 54.5208 152.852 54.2501C152.987 54.0821 153.139 53.9421 153.307 53.8301C153.48 53.7181 153.657 53.6224 153.839 53.5431C153.489 53.1791 153.221 52.8431 153.034 52.5351C152.852 52.2224 152.761 51.8398 152.761 51.3871C152.761 50.8691 152.892 50.3954 153.153 49.9661C153.419 49.5368 153.785 49.2171 154.252 49.0071C154.49 48.8998 154.733 48.8251 154.98 48.7831C155.232 48.7364 155.482 48.7131 155.729 48.7131C156.107 48.7131 156.478 48.7668 156.842 48.8741C157.206 48.9768 157.516 49.1401 157.773 49.3641C157.946 49.4994 158.097 49.6604 158.228 49.8471C158.359 50.0291 158.461 50.2204 158.536 50.4211L157.542 50.7151C157.444 50.4631 157.281 50.2508 157.052 50.0781C156.875 49.9381 156.669 49.8401 156.436 49.7841C156.207 49.7281 155.976 49.7001 155.743 49.7001C155.346 49.7001 154.987 49.7771 154.665 49.9311C154.385 50.0711 154.175 50.2648 154.035 50.5121C153.895 50.7594 153.825 51.0488 153.825 51.3801C153.825 51.6648 153.872 51.9004 153.965 52.0871C154.058 52.2691 154.194 52.4674 154.371 52.6821C154.474 52.7941 154.588 52.9084 154.714 53.0251C154.84 53.1371 154.968 53.2538 155.099 53.3751L158.291 56.3361C158.31 56.2054 158.321 56.0794 158.326 55.9581C158.331 55.8321 158.333 55.7084 158.333 55.5871L158.326 54.1101H159.299V55.6571C159.299 56.0258 159.285 56.3268 159.257 56.5601C159.229 56.7934 159.192 56.9871 159.145 57.1411L160.447 58.3381L159.768 59.0591L158.655 58.0091C158.501 58.2098 158.305 58.3894 158.067 58.5481C157.834 58.7068 157.6 58.8304 157.367 58.9191C157.115 59.0311 156.849 59.1058 156.569 59.1431C156.289 59.1851 156.004 59.2061 155.715 59.2061ZM155.729 58.2121C155.995 58.2121 156.235 58.1958 156.45 58.1631C156.665 58.1304 156.87 58.0628 157.066 57.9601C157.313 57.8294 157.498 57.7081 157.619 57.5961C157.74 57.4794 157.838 57.3768 157.913 57.2881L154.637 54.2921C154.441 54.3528 154.257 54.4368 154.084 54.5441C153.916 54.6468 153.771 54.7704 153.65 54.9151C153.515 55.0831 153.414 55.2768 153.349 55.4961C153.284 55.7154 153.251 55.9464 153.251 56.1891C153.26 56.4458 153.302 56.6838 153.377 56.9031C153.456 57.1178 153.573 57.3091 153.727 57.4771C153.946 57.7338 154.24 57.9204 154.609 58.0371C154.978 58.1538 155.351 58.2121 155.729 58.2121ZM167.896 59.2061C167.191 59.2061 166.557 59.0894 165.992 58.8561C165.432 58.6181 164.968 58.2821 164.599 57.8481C164.235 57.4141 163.997 56.8984 163.885 56.3011L164.935 56.1261C165.103 56.7794 165.458 57.2928 165.999 57.6661C166.54 58.0348 167.187 58.2191 167.938 58.2191C168.433 58.2191 168.876 58.1421 169.268 57.9881C169.66 57.8294 169.968 57.6054 170.192 57.3161C170.416 57.0268 170.528 56.6838 170.528 56.2871C170.528 56.0258 170.481 55.8041 170.388 55.6221C170.295 55.4354 170.171 55.2814 170.017 55.1601C169.863 55.0388 169.695 54.9384 169.513 54.8591C169.331 54.7751 169.154 54.7074 168.981 54.6561L166.426 53.8931C166.118 53.8044 165.833 53.6924 165.572 53.5571C165.311 53.4171 165.082 53.2514 164.886 53.0601C164.695 52.8641 164.545 52.6354 164.438 52.3741C164.331 52.1128 164.277 51.8141 164.277 51.4781C164.277 50.9088 164.426 50.4164 164.725 50.0011C165.024 49.5858 165.432 49.2661 165.95 49.0421C166.468 48.8181 167.058 48.7084 167.721 48.7131C168.393 48.7131 168.993 48.8321 169.52 49.0701C170.052 49.3081 170.491 49.6488 170.836 50.0921C171.181 50.5308 171.41 51.0511 171.522 51.6531L170.444 51.8491C170.374 51.4104 170.213 51.0301 169.961 50.7081C169.709 50.3861 169.387 50.1388 168.995 49.9661C168.608 49.7888 168.181 49.6978 167.714 49.6931C167.261 49.6931 166.858 49.7701 166.503 49.9241C166.153 50.0734 165.875 50.2788 165.67 50.5401C165.465 50.8014 165.362 51.1001 165.362 51.4361C165.362 51.7768 165.455 52.0498 165.642 52.2551C165.833 52.4604 166.067 52.6214 166.342 52.7381C166.622 52.8548 166.893 52.9504 167.154 53.0251L169.128 53.6061C169.333 53.6621 169.574 53.7438 169.849 53.8511C170.129 53.9538 170.4 54.1031 170.661 54.2991C170.927 54.4904 171.146 54.7424 171.319 55.0551C171.492 55.3678 171.578 55.7644 171.578 56.2451C171.578 56.7118 171.485 57.1294 171.298 57.4981C171.116 57.8668 170.857 58.1771 170.521 58.4291C170.19 58.6811 169.8 58.8724 169.352 59.0031C168.909 59.1384 168.423 59.2061 167.896 59.2061ZM176.222 59.2061C175.485 59.2061 174.845 59.0428 174.304 58.7161C173.767 58.3894 173.35 57.9298 173.051 57.3371C172.752 56.7444 172.603 56.0491 172.603 55.2511C172.603 54.4251 172.75 53.7111 173.044 53.1091C173.338 52.5071 173.751 52.0428 174.283 51.7161C174.82 51.3894 175.452 51.2261 176.18 51.2261C176.927 51.2261 177.564 51.3988 178.091 51.7441C178.618 52.0848 179.017 52.5748 179.288 53.2141C179.559 53.8534 179.682 54.6164 179.659 55.5031H178.609V55.1391C178.59 54.1591 178.378 53.4194 177.972 52.9201C177.571 52.4208 176.983 52.1711 176.208 52.1711C175.396 52.1711 174.773 52.4348 174.339 52.9621C173.91 53.4894 173.695 54.2408 173.695 55.2161C173.695 56.1681 173.91 56.9078 174.339 57.4351C174.773 57.9578 175.387 58.2191 176.18 58.2191C176.721 58.2191 177.193 58.0954 177.594 57.8481C178 57.5961 178.32 57.2344 178.553 56.7631L179.512 57.1341C179.213 57.7921 178.772 58.3031 178.189 58.6671C177.61 59.0264 176.955 59.2061 176.222 59.2061ZM173.331 55.5031V54.6421H179.106V55.5031H173.331ZM181.212 58.9961V51.4361H182.136V53.2561L181.954 53.0181C182.038 52.7941 182.148 52.5888 182.283 52.4021C182.419 52.2108 182.566 52.0544 182.724 51.9331C182.92 51.7604 183.149 51.6298 183.41 51.5411C183.672 51.4478 183.935 51.3941 184.201 51.3801C184.467 51.3614 184.71 51.3801 184.929 51.4361V52.4021C184.654 52.3321 184.353 52.3158 184.026 52.3531C183.7 52.3904 183.399 52.5211 183.123 52.7451C182.871 52.9411 182.682 53.1768 182.556 53.4521C182.43 53.7228 182.346 54.0121 182.304 54.3201C182.262 54.6234 182.241 54.9244 182.241 55.2231V58.9961H181.212ZM188.301 58.9961L185.557 51.4361H186.6L188.833 57.6521L191.052 51.4361H192.109L189.365 58.9961H188.301ZM193.507 50.0011V48.8461H194.536V50.0011H193.507ZM193.507 58.9961V51.4361H194.536V58.9961H193.507ZM199.77 59.2061C199.01 59.2061 198.366 59.0358 197.838 58.6951C197.311 58.3544 196.91 57.8854 196.634 57.2881C196.364 56.6861 196.224 55.9954 196.214 55.2161C196.224 54.4228 196.368 53.7274 196.648 53.1301C196.928 52.5281 197.332 52.0614 197.859 51.7301C198.387 51.3941 199.026 51.2261 199.777 51.2261C200.543 51.2261 201.208 51.4128 201.772 51.7861C202.342 52.1594 202.731 52.6704 202.941 53.3191L201.933 53.6411C201.756 53.1884 201.474 52.8384 201.086 52.5911C200.704 52.3391 200.265 52.2131 199.77 52.2131C199.215 52.2131 198.755 52.3414 198.391 52.5981C198.027 52.8501 197.757 53.2024 197.579 53.6551C197.402 54.1078 197.311 54.6281 197.306 55.2161C197.316 56.1214 197.526 56.8494 197.936 57.4001C198.347 57.9461 198.958 58.2191 199.77 58.2191C200.284 58.2191 200.72 58.1024 201.079 57.8691C201.443 57.6311 201.719 57.2858 201.905 56.8331L202.941 57.1411C202.661 57.8131 202.251 58.3264 201.709 58.6811C201.168 59.0311 200.522 59.2061 199.77 59.2061ZM207.38 59.2061C206.643 59.2061 206.004 59.0428 205.462 58.7161C204.926 58.3894 204.508 57.9298 204.209 57.3371C203.911 56.7444 203.761 56.0491 203.761 55.2511C203.761 54.4251 203.908 53.7111 204.202 53.1091C204.496 52.5071 204.909 52.0428 205.441 51.7161C205.978 51.3894 206.61 51.2261 207.338 51.2261C208.085 51.2261 208.722 51.3988 209.249 51.7441C209.777 52.0848 210.176 52.5748 210.446 53.2141C210.717 53.8534 210.841 54.6164 210.817 55.5031H209.767V55.1391C209.749 54.1591 209.536 53.4194 209.13 52.9201C208.729 52.4208 208.141 52.1711 207.366 52.1711C206.554 52.1711 205.931 52.4348 205.497 52.9621C205.068 53.4894 204.853 54.2408 204.853 55.2161C204.853 56.1681 205.068 56.9078 205.497 57.4351C205.931 57.9578 206.545 58.2191 207.338 58.2191C207.88 58.2191 208.351 58.0954 208.752 57.8481C209.158 57.5961 209.478 57.2344 209.711 56.7631L210.67 57.1341C210.372 57.7921 209.931 58.3031 209.347 58.6671C208.769 59.0264 208.113 59.2061 207.38 59.2061ZM204.489 55.5031V54.6421H210.264V55.5031H204.489ZM215.192 59.1991C214.305 59.1991 213.575 59.0078 213.001 58.6251C212.431 58.2424 212.081 57.7104 211.951 57.0291L213.001 56.8541C213.113 57.2834 213.367 57.6264 213.764 57.8831C214.165 58.1351 214.66 58.2611 215.248 58.2611C215.822 58.2611 216.274 58.1421 216.606 57.9041C216.937 57.6614 217.103 57.3324 217.103 56.9171C217.103 56.6838 217.049 56.4948 216.942 56.3501C216.839 56.2008 216.627 56.0631 216.305 55.9371C215.983 55.8111 215.502 55.6618 214.863 55.4891C214.177 55.3024 213.64 55.1158 213.253 54.9291C212.865 54.7424 212.59 54.5278 212.427 54.2851C212.263 54.0378 212.182 53.7368 212.182 53.3821C212.182 52.9528 212.303 52.5771 212.546 52.2551C212.788 51.9284 213.124 51.6764 213.554 51.4991C213.983 51.3171 214.482 51.2261 215.052 51.2261C215.621 51.2261 216.13 51.3194 216.578 51.5061C217.03 51.6881 217.394 51.9448 217.67 52.2761C217.945 52.6074 218.108 52.9924 218.16 53.4311L217.11 53.6201C217.04 53.1768 216.818 52.8268 216.445 52.5701C216.076 52.3088 215.607 52.1734 215.038 52.1641C214.501 52.1501 214.065 52.2528 213.729 52.4721C213.393 52.6868 213.225 52.9738 213.225 53.3331C213.225 53.5338 213.285 53.7064 213.407 53.8511C213.528 53.9911 213.747 54.1241 214.065 54.2501C214.387 54.3761 214.844 54.5138 215.437 54.6631C216.132 54.8404 216.678 55.0271 217.075 55.2231C217.471 55.4191 217.754 55.6501 217.922 55.9161C218.09 56.1821 218.174 56.5111 218.174 56.9031C218.174 57.6171 217.908 58.1794 217.376 58.5901C216.848 58.9961 216.12 59.1991 215.192 59.1991Z" fill="white"/>
</g>
<path d="M191.843 38.5558V2.16211H199.413V15.8453H199.644C199.976 15.1108 200.456 14.3644 201.084 13.6062C201.723 12.8362 202.553 12.1964 203.571 11.687C204.602 11.1658 205.882 10.9051 207.41 10.9051C209.4 10.9051 211.236 11.4264 212.919 12.4689C214.601 13.4996 215.946 15.0575 216.953 17.1425C217.96 19.2157 218.463 21.8161 218.463 24.9437C218.463 27.9884 217.971 30.5592 216.988 32.6561C216.017 34.7411 214.69 36.3227 213.008 37.4008C211.337 38.467 209.465 39.0001 207.392 39.0001C205.923 39.0001 204.673 38.7572 203.643 38.2715C202.624 37.7858 201.789 37.1757 201.137 36.4412C200.485 35.6948 199.988 34.9425 199.644 34.1843H199.307V38.5558H191.843ZM199.253 24.9082C199.253 26.5312 199.478 27.9469 199.929 29.1553C200.379 30.3637 201.03 31.3055 201.883 31.9808C202.736 32.6442 203.773 32.9759 204.993 32.9759C206.225 32.9759 207.268 32.6383 208.121 31.963C208.974 31.2759 209.619 30.3282 210.058 29.1198C210.508 27.8995 210.733 26.4957 210.733 24.9082C210.733 23.3326 210.514 21.9465 210.075 20.7499C209.637 19.5534 208.991 18.6175 208.138 17.9422C207.285 17.2669 206.237 16.9293 204.993 16.9293C203.761 16.9293 202.718 17.2551 201.866 17.9067C201.024 18.5582 200.379 19.4823 199.929 20.6788C199.478 21.8754 199.253 23.2852 199.253 24.9082Z" fill="white"/>
<path d="M178.076 26.9342V11.2607H185.646V38.556H178.378V33.5981H178.093C177.477 35.1974 176.453 36.4828 175.019 37.4543C173.597 38.4257 171.862 38.9114 169.812 38.9114C167.988 38.9114 166.383 38.4968 164.997 37.6675C163.611 36.8382 162.527 35.6595 161.745 34.1312C160.975 32.603 160.584 30.7726 160.572 28.6402V11.2607H168.142V27.2896C168.154 28.9008 168.586 30.1743 169.439 31.1103C170.292 32.0462 171.435 32.5141 172.869 32.5141C173.781 32.5141 174.634 32.3068 175.428 31.8921C176.222 31.4657 176.861 30.8378 177.347 30.0085C177.845 29.1792 178.087 28.1544 178.076 26.9342Z" fill="white"/>
<path d="M136.915 22.7757V38.5558H129.345V2.16211H136.702V16.0763H137.022C137.638 14.4651 138.633 13.2034 140.007 12.2912C141.381 11.3672 143.105 10.9051 145.178 10.9051C147.074 10.9051 148.726 11.3198 150.136 12.1491C151.558 12.9665 152.659 14.1453 153.441 15.6854C154.235 17.2136 154.626 19.044 154.614 21.1764V38.5558H147.044V22.527C147.056 20.8447 146.629 19.5356 145.765 18.5997C144.912 17.6638 143.715 17.1958 142.175 17.1958C141.144 17.1958 140.232 17.415 139.438 17.8534C138.656 18.2917 138.04 18.9314 137.59 19.7726C137.152 20.6018 136.927 21.6029 136.915 22.7757Z" fill="white"/>
<path d="M94.6746 8.50613V2.16211H124.564V8.50613H113.422V38.5558H105.817V8.50613H94.6746Z" fill="white"/>
<path d="M82.2783 39V11.3307H89.687V39H82.2783ZM86 7.76397C84.8986 7.76397 83.9536 7.38568 83.1652 6.6291C82.3884 5.86051 82 4.9418 82 3.87298C82 2.81617 82.3884 1.90947 83.1652 1.15289C83.9536 0.384296 84.8986 0 86 0C87.1014 0 88.0406 0.384296 88.8174 1.15289C89.6058 1.90947 90 2.81617 90 3.87298C90 4.9418 89.6058 5.86051 88.8174 6.6291C88.0406 7.38568 87.1014 7.76397 86 7.76397Z" fill="white"/>
</g>
<defs>
<clipPath id="clip0_12_135">
<rect width="219" height="60" fill="white"/>
</clipPath>
</defs>
</svg>
