<svg width="163" height="51" viewBox="0 0 163 51" fill="none" xmlns="http://www.w3.org/2000/svg">
<g clip-path="url(#clip0_12_186)">
<mask id="mask0_12_186" style="mask-type:luminance" maskUnits="userSpaceOnUse" x="0" y="0" width="163" height="51">
<path d="M163 0H0V51H163V0Z" fill="white"/>
</mask>
<g mask="url(#mask0_12_186)">
<path d="M18.7686 0.11565C17.9443 0.344606 16.7995 0.949051 16.305 1.43444C15.5632 2.15794 15.1968 3.06461 15.0045 4.64899C14.8763 5.7663 14.5558 6.74623 13.9788 7.74448C13.2278 9.05411 12.5959 9.8234 10.7093 11.7009C8.84102 13.5691 8.27321 13.9996 6.89031 14.5766C6.24924 14.8421 4.50001 15.3642 4.24358 15.3642C3.94136 15.3642 2.86068 15.7854 2.39361 16.0877C0.516168 17.2874 -0.555347 20.0715 0.29637 21.5277C0.809232 22.3885 1.67927 22.7823 3.0988 22.7823C4.50917 22.7823 5.2693 22.4527 6.36829 21.3628C7.27496 20.4653 7.4856 20.0532 7.91604 18.3406C8.48385 16.0693 8.90513 15.4283 11.909 12.2137C14.107 9.86919 14.9587 9.12737 16.1585 8.53209C17.3032 7.97343 17.9626 7.81774 19.1807 7.81774C20.3713 7.8269 21.2505 8.07417 22.1205 8.63283C22.7249 9.02663 25.8387 12.1221 26.6538 13.1479C27.6154 14.3568 28.0459 15.5199 28.3206 17.727C28.4214 18.5238 28.513 18.8901 28.7419 19.348C29.96 21.8207 33.1745 22.8739 35.6564 21.6193C36.3433 21.2712 37.0484 20.5569 37.3781 19.8609C37.6163 19.3663 37.6712 19.119 37.7078 18.4322C37.7811 17.031 37.3965 16.0693 36.3433 14.952C35.171 13.7248 34.2643 13.2944 32.5609 13.157C30.6468 13.0105 29.731 12.7815 28.4763 12.1588C27.6521 11.7375 26.9194 11.1147 25.5274 9.64024C24.3185 8.35808 24.0254 7.99175 23.6408 7.30488C23.1096 6.34326 23.0455 6.03188 22.9814 4.03539C22.9264 2.29532 22.9081 2.1671 22.6791 1.70003C22.3769 1.08643 21.7725 0.463663 21.2413 0.22555C20.701 -0.0217232 19.4738 -0.0766739 18.7686 0.11565Z" fill="url(#paint0_linear_12_186)"/>
<path d="M29.5933 0.307867C28.9797 0.610091 28.3569 1.31528 28.1097 1.97468C27.9448 2.40511 27.9173 2.64323 27.9448 3.3301C27.9906 4.45656 28.3111 5.12512 29.3277 6.17831C30.3076 7.20404 30.6923 7.40552 32.4873 7.84512C34.1633 8.24808 35.2439 8.72431 36.2697 9.48444C36.8558 9.92404 39.8963 13.0928 41.0045 14.4207C42.6896 16.4355 43.3215 18.9541 42.6713 21.0879C42.4057 21.9397 42.1218 22.4159 41.38 23.2401C40.4642 24.2567 38.1654 26.3539 37.6068 26.6836C36.462 27.3522 35.0058 27.7551 33.3299 27.865C32.7987 27.8925 32.1668 27.9841 31.9103 28.0665C30.4633 28.5153 29.1995 29.7608 28.65 31.2536C28.3569 32.0504 28.3478 33.4974 28.6408 34.3216C28.8973 35.0726 29.8497 36.309 30.4725 36.7028C32.24 37.8201 34.3922 37.4537 36.1323 35.7411C36.7367 35.1459 36.9474 34.8619 37.2588 34.2209C37.5885 33.534 37.6617 33.2684 37.8174 32.1419C38.2753 28.845 38.9714 27.5995 41.8013 25.0443C43.6237 23.405 44.3839 23.0844 46.7925 22.9471C48.844 22.8372 49.2194 22.7639 49.8239 22.3426C50.8038 21.6466 51.1152 20.5842 50.7397 19.1098C50.3551 17.5712 49.6316 16.5546 48.4685 15.941C48.1388 15.7578 47.3328 15.4922 46.4811 15.2724C44.4388 14.7504 43.4955 14.3658 42.3965 13.624C41.1785 12.7997 38.8889 10.4827 37.6251 8.80673C36.9199 7.87259 36.059 6.12336 35.7476 5.01521C35.6194 4.53899 35.3722 3.85212 35.1982 3.48579C34.0259 1.02222 31.2784 -0.534692 29.5933 0.307867Z" fill="url(#paint1_linear_12_186)"/>
<path d="M10.1137 4.34639C9.57339 4.6303 8.62093 5.48202 6.89918 7.23124C5.10416 9.04458 4.33487 10.0336 4.23413 10.6381C4.18834 10.9036 4.22497 10.9769 4.44477 11.1143C4.80194 11.3524 5.34228 11.3066 6.13905 10.9769C8.3645 10.0519 10.3518 7.99138 11.0753 5.87582C11.3135 5.19811 11.3135 4.54788 11.0937 4.34639C10.883 4.15407 10.4709 4.15407 10.1137 4.34639Z" fill="#C115EC"/>
<path d="M39.8137 4.38332C39.5847 4.51154 39.5939 5.2442 39.8228 5.86696C40.0426 6.46224 40.409 7.33228 40.4731 7.39639C40.5005 7.42386 40.6013 7.59787 40.6929 7.79019C40.9768 8.34884 42.7993 10.0339 43.6052 10.4919C45.9406 11.8106 47.4242 11.5084 46.3618 9.93322C45.4826 8.64191 42.5612 5.71127 41.1691 4.73133C40.528 4.27342 40.1525 4.18184 39.8137 4.38332Z" fill="#15C1EC"/>
<path d="M16.6986 13.4222C15.2607 13.9351 14.1251 14.9883 13.4382 16.4353C13.2185 16.9024 13.1452 17.2412 13.0353 18.267C12.962 18.963 12.8613 19.7506 12.8155 20.0162C12.6873 20.7214 12.1653 21.9394 11.689 22.6629C11.2494 23.3315 8.72175 25.8683 7.87003 26.5185C6.80767 27.3153 5.73616 27.6359 3.79461 27.7274C2.52161 27.7915 2.37508 27.8099 1.77979 28.0846C0.213733 28.799 -0.299129 29.9529 0.167941 31.7662C0.451847 32.8744 0.69912 33.4238 1.16619 34.0007C1.93548 34.9624 2.53993 35.2464 4.22505 35.4662C7.02747 35.8233 8.18141 36.4369 10.5809 38.8456C13.3925 41.6663 14.1801 42.8843 14.931 45.5219C15.1417 46.2363 15.4256 47.0788 15.5813 47.381C16.0667 48.3793 17.3122 49.6981 18.3471 50.3025C18.9149 50.6322 19.8124 50.8337 20.4809 50.7788C21.4609 50.7055 22.1569 50.1468 22.6606 49.0387C23.2925 47.665 22.9079 45.8516 21.699 44.542C20.8198 43.5987 19.8307 43.0857 18.2738 42.7927C16.6253 42.4904 15.215 41.7762 13.9877 40.6223C12.962 39.6698 9.67421 36.0065 9.18882 35.2738C8.18141 33.7627 7.82424 32.5813 7.89751 30.9878C7.95246 29.7514 8.1631 29.092 8.80417 28.1304C9.28956 27.3977 11.6341 24.925 12.7056 24.0092C13.9053 22.9835 15.2424 22.4614 17.358 22.1958C19.2171 21.9577 19.9956 21.628 21.0213 20.6573C22.0012 19.7323 22.4317 18.734 22.4317 17.3878C22.4317 15.9408 21.8913 14.7868 20.8564 14.0267C20.0505 13.4406 19.4461 13.2299 18.3562 13.1933C17.532 13.1658 17.3671 13.1841 16.6986 13.4222Z" fill="url(#paint2_linear_12_186)"/>
<path d="M46.2247 27.9022C44.9883 28.3051 43.8527 29.3583 43.3032 30.6313C43.2025 30.8694 43.0193 31.5105 42.9003 32.0509C42.5522 33.5986 42.0027 34.8167 41.2151 35.7874C40.1436 37.1154 36.8558 40.5955 36.0957 41.2C35.2989 41.841 33.9984 42.5004 33.1009 42.7111C32.7346 42.7935 32.0844 42.8576 31.5898 42.8576C30.5275 42.8484 29.5109 42.5645 28.6958 42.0334C27.899 41.5113 24.7394 38.2052 23.9701 37.0879C23.5489 36.4743 22.9078 35.0639 22.7613 34.4137C22.688 34.084 22.5598 33.2964 22.4865 32.6645C22.2942 31.1076 22.0561 30.4665 21.36 29.6331C20.1969 28.2227 18.2554 27.5358 16.5703 27.9205C15.2973 28.2136 14.006 29.2118 13.4473 30.3383C13.0443 31.1534 12.9711 32.3439 13.255 33.2781C13.6305 34.5053 14.5463 35.6684 15.746 36.4651C16.5428 36.9872 17.0648 37.1429 18.466 37.2619C20.1786 37.3993 20.7831 37.555 21.9736 38.1319C22.9902 38.6265 23.0635 38.6906 24.2174 39.8537C25.5728 41.2366 26.5894 42.3997 26.9924 43.0682C27.1481 43.3155 27.3862 43.8559 27.5235 44.2588C27.7525 44.9274 27.78 45.1472 27.8258 46.8231C27.8807 48.5815 27.8899 48.6731 28.1372 49.1676C28.4577 49.8362 28.9431 50.3216 29.5567 50.6055C29.9871 50.7978 30.152 50.8253 30.7564 50.7886C31.6539 50.7337 33.0643 50.2666 33.7878 49.7812C34.7311 49.1585 34.9967 48.6365 35.6652 46.1729C36.4071 43.4529 36.8192 42.6103 38.2845 40.8611C40.0062 38.8005 41.783 37.1795 43.0376 36.5292C44.2374 35.8973 44.9425 35.6867 46.4353 35.4761C47.9281 35.2654 48.3494 35.0731 49.2195 34.1939C49.659 33.7543 50.0712 33.2323 50.2452 32.9026C50.6207 32.1882 50.9137 31.1167 50.9137 30.4665C50.9137 29.3492 50.0437 28.2868 48.7982 27.9022C48.0747 27.6732 46.939 27.6732 46.2247 27.9022Z" fill="url(#paint3_linear_12_186)"/>
<path d="M44.8239 39.7071C42.8274 40.5038 41.1514 41.9875 40.3363 43.7092C39.8051 44.8174 39.6311 45.376 39.6678 45.9164C39.6952 46.2918 39.7319 46.3834 39.9334 46.475C40.5195 46.7589 41.3895 46.1362 43.8439 43.6726C46.0511 41.4654 46.7013 40.6229 46.7013 40.0093C46.7013 39.414 45.9045 39.2858 44.8239 39.7071Z" fill="#4040EC"/>
<path d="M4.35387 39.6887C3.96006 40.0825 4.42713 41.0075 5.8375 42.601C6.80828 43.7092 8.8872 45.6324 9.70229 46.1819C10.4624 46.7039 10.8013 46.7772 11.0669 46.4933C11.3599 46.1728 11.3233 45.5225 10.957 44.6158C10.1144 42.5552 8.25528 40.687 6.17636 39.8444C5.34296 39.5055 4.59198 39.4414 4.35387 39.6887Z" fill="#2CA9EC"/>
</g>
<path d="M143.465 36.8397V11.5049H148.735V21.0302H148.896C149.127 20.5189 149.461 19.9993 149.898 19.4715C150.343 18.9354 150.92 18.4901 151.63 18.1355C152.347 17.7726 153.238 17.5912 154.302 17.5912C155.687 17.5912 156.965 17.954 158.137 18.6798C159.308 19.3973 160.244 20.4817 160.945 21.9332C161.646 23.3764 161.996 25.1867 161.996 27.3639C161.996 29.4834 161.654 31.273 160.969 32.7327C160.293 34.1841 159.369 35.2851 158.198 36.0356C157.036 36.7778 155.733 37.1489 154.289 37.1489C153.267 37.1489 152.397 36.9799 151.679 36.6418C150.97 36.3036 150.388 35.8789 149.935 35.3676C149.481 34.848 149.135 34.3243 148.896 33.7965H148.661V36.8397H143.465ZM148.624 27.3391C148.624 28.469 148.78 29.4545 149.094 30.2957C149.407 31.1369 149.861 31.7925 150.454 32.2626C151.048 32.7244 151.77 32.9553 152.619 32.9553C153.477 32.9553 154.203 32.7203 154.796 32.2502C155.39 31.7719 155.84 31.1121 156.145 30.2709C156.458 29.4215 156.615 28.4442 156.615 27.3391C156.615 26.2423 156.462 25.2774 156.157 24.4444C155.852 23.6115 155.403 22.96 154.809 22.4899C154.215 22.0198 153.485 21.7848 152.619 21.7848C151.762 21.7848 151.036 22.0116 150.442 22.4652C149.857 22.9187 149.407 23.562 149.094 24.395C148.78 25.2279 148.624 26.2093 148.624 27.3391Z" fill="white"/>
<path d="M133.881 28.7506V17.8398H139.151V36.8409H134.092V33.3896H133.894C133.465 34.5029 132.751 35.3977 131.754 36.074C130.764 36.7502 129.556 37.0884 128.129 37.0884C126.859 37.0884 125.741 36.7997 124.777 36.2224C123.812 35.6451 123.057 34.8246 122.513 33.7607C121.977 32.6968 121.705 31.4227 121.696 29.9382V17.8398H126.966V28.998C126.974 30.1196 127.275 31.0062 127.869 31.6577C128.463 32.3092 129.259 32.635 130.257 32.635C130.892 32.635 131.485 32.4907 132.038 32.202C132.591 31.9051 133.036 31.468 133.374 30.8907C133.72 30.3134 133.889 29.6001 133.881 28.7506Z" fill="white"/>
<path d="M105.228 25.8547V36.8397H99.958V11.5049H105.079V21.191H105.302C105.731 20.0694 106.424 19.1911 107.38 18.5561C108.337 17.9128 109.537 17.5912 110.98 17.5912C112.3 17.5912 113.45 17.8798 114.432 18.4571C115.421 19.0262 116.188 19.8467 116.732 20.9188C117.285 21.9827 117.557 23.2569 117.549 24.7413V36.8397H112.279V25.6815C112.287 24.5104 111.99 23.5991 111.388 22.9476C110.795 22.2961 109.962 21.9703 108.89 21.9703C108.172 21.9703 107.537 22.1229 106.984 22.428C106.44 22.7332 106.011 23.1785 105.698 23.7641C105.393 24.3413 105.236 25.0382 105.228 25.8547Z" fill="white"/>
<path d="M75.8232 15.9212V11.5049H96.6304V15.9212H88.8741V36.8397H83.5796V15.9212H75.8232Z" fill="white"/>
<path d="M67.1937 37.1491V17.8877H72.3511V37.1491H67.1937ZM69.7845 15.4047C69.0178 15.4047 68.36 15.1414 67.8111 14.6147C67.2704 14.0797 67 13.4401 67 12.6961C67 11.9604 67.2704 11.3292 67.8111 10.8026C68.36 10.2675 69.0178 10 69.7845 10C70.5513 10 71.205 10.2675 71.7458 10.8026C72.2946 11.3292 72.569 11.9604 72.569 12.6961C72.569 13.4401 72.2946 14.0797 71.7458 14.6147C71.205 15.1414 70.5513 15.4047 69.7845 15.4047Z" fill="white"/>
</g>
<defs>
<linearGradient id="paint0_linear_12_186" x1="1.26343e-07" y1="11.3912" x2="37.7165" y2="11.3912" gradientUnits="userSpaceOnUse">
<stop stop-color="#15C1EC"/>
<stop offset="1" stop-color="#C115EC"/>
</linearGradient>
<linearGradient id="paint1_linear_12_186" x1="39.4148" y1="37.3414" x2="39.4148" y2="0.0771484" gradientUnits="userSpaceOnUse">
<stop stop-color="#15C1EC"/>
<stop offset="1" stop-color="#C115EC"/>
</linearGradient>
<linearGradient id="paint2_linear_12_186" x1="0.00195308" y1="31.9857" x2="22.9613" y2="31.9857" gradientUnits="userSpaceOnUse">
<stop stop-color="#9615EC"/>
<stop offset="1" stop-color="#15C1EC"/>
</linearGradient>
<linearGradient id="paint3_linear_12_186" x1="13.084" y1="39.2665" x2="50.9137" y2="39.2665" gradientUnits="userSpaceOnUse">
<stop stop-color="#15C1EC"/>
<stop offset="1" stop-color="#C115EC"/>
</linearGradient>
<clipPath id="clip0_12_186">
<rect width="163" height="51" fill="white"/>
</clipPath>
</defs>
</svg>
