<svg width="163" height="51" viewBox="0 0 163 51" fill="none" xmlns="http://www.w3.org/2000/svg">
<g clip-path="url(#clip0_12_222)">
<mask id="mask0_12_222" style="mask-type:luminance" maskUnits="userSpaceOnUse" x="0" y="0" width="163" height="51">
<path d="M163 0H0V51H163V0Z" fill="white"/>
</mask>
<g mask="url(#mask0_12_222)">
<path d="M18.7686 0.313892C17.9443 0.542848 16.7995 1.1473 16.305 1.63269C15.5632 2.35619 15.1968 3.26286 15.0045 4.84723C14.8763 5.96454 14.5558 6.94447 13.9788 7.94272C13.2278 9.25235 12.5959 10.0216 10.7093 11.8991C8.84102 13.7674 8.27321 14.1978 6.89031 14.7748C6.24924 15.0404 4.50001 15.5624 4.24358 15.5624C3.94136 15.5624 2.86068 15.9837 2.39361 16.2859C0.516168 17.4856 -0.555347 20.2697 0.29637 21.7259C0.809232 22.5868 1.67927 22.9806 3.0988 22.9806C4.50917 22.9806 5.2693 22.6509 6.36829 21.561C7.27496 20.6635 7.4856 20.2514 7.91604 18.5388C8.48385 16.2676 8.90513 15.6265 11.909 12.4119C14.107 10.0674 14.9587 9.32562 16.1585 8.73033C17.3032 8.17168 17.9626 8.01599 19.1807 8.01599C20.3713 8.02515 21.2505 8.27242 22.1205 8.83107C22.7249 9.22488 25.8387 12.3204 26.6538 13.3461C27.6154 14.555 28.0459 15.7181 28.3206 17.9252C28.4214 18.722 28.513 19.0883 28.7419 19.5462C29.96 22.0189 33.1745 23.0721 35.6564 21.8175C36.3433 21.4695 37.0484 20.7551 37.3781 20.0591C37.6163 19.5645 37.6712 19.3173 37.7078 18.6304C37.7811 17.2292 37.3965 16.2676 36.3433 15.1503C35.171 13.9231 34.2643 13.4926 32.5609 13.3552C30.6468 13.2087 29.731 12.9798 28.4763 12.357C27.6521 11.9357 26.9194 11.3129 25.5274 9.83848C24.3185 8.55633 24.0254 8.19 23.6408 7.50313C23.1096 6.54151 23.0455 6.23013 22.9814 4.23363C22.9264 2.49356 22.9081 2.36535 22.6791 1.89828C22.3769 1.28467 21.7725 0.661905 21.2413 0.423792C20.701 0.176519 19.4738 0.121568 18.7686 0.313892Z" fill="url(#paint0_linear_12_222)"/>
<path d="M29.5933 0.50611C28.9797 0.808333 28.357 1.51352 28.1097 2.17291C27.9448 2.60335 27.9174 2.84146 27.9448 3.52833C27.9906 4.6548 28.3112 5.32335 29.3277 6.37655C30.3077 7.40227 30.6923 7.60375 32.4873 8.04335C34.1633 8.44631 35.244 8.92253 36.2697 9.68267C36.8558 10.1223 39.8963 13.291 41.0045 14.619C42.6896 16.6338 43.3215 19.1523 42.6713 21.2862C42.4057 22.1379 42.1218 22.6141 41.38 23.4384C40.4642 24.4549 38.1654 26.5522 37.6068 26.8819C36.462 27.5504 35.0058 27.9534 33.3299 28.0633C32.7987 28.0908 32.1668 28.1823 31.9104 28.2648C30.4633 28.7135 29.1995 29.959 28.65 31.4518C28.357 32.2486 28.3478 33.6956 28.6409 34.5199C28.8973 35.2708 29.8497 36.5072 30.4725 36.901C32.24 38.0183 34.3922 37.652 36.1323 35.9394C36.7368 35.3441 36.9474 35.0602 37.2588 34.4191C37.5885 33.7322 37.6617 33.4667 37.8174 32.3402C38.2753 29.0432 38.9714 27.7977 41.8013 25.2425C43.6238 23.6032 44.3839 23.2827 46.7925 23.1453C48.844 23.0354 49.2195 22.9621 49.8239 22.5409C50.8038 21.8448 51.1152 20.7825 50.7397 19.308C50.3551 17.7694 49.6316 16.7528 48.4685 16.1392C48.1388 15.9561 47.3329 15.6905 46.4811 15.4707C44.4388 14.9487 43.4955 14.564 42.3966 13.8222C41.1785 12.998 38.8889 10.6809 37.6251 9.00497C36.9199 8.07083 36.059 6.3216 35.7477 5.21345C35.6194 4.73722 35.3722 4.05035 35.1982 3.68402C34.0259 1.22045 31.2784 -0.33645 29.5933 0.50611Z" fill="url(#paint1_linear_12_222)"/>
<path d="M10.1137 4.54463C9.57339 4.82854 8.62094 5.68025 6.89918 7.42948C5.10417 9.24281 4.33487 10.232 4.23413 10.8364C4.18834 11.102 4.22497 11.1753 4.44477 11.3126C4.80194 11.5507 5.34228 11.505 6.13905 11.1753C8.3645 10.2503 10.3518 8.18961 11.0753 6.07406C11.3135 5.39635 11.3135 4.74611 11.0937 4.54463C10.883 4.35231 10.4709 4.35231 10.1137 4.54463Z" fill="#C115EC"/>
<path d="M39.8147 4.58156C39.5857 4.70977 39.5949 5.44243 39.8238 6.06519C40.0436 6.66048 40.41 7.53051 40.4741 7.59462C40.5015 7.6221 40.6023 7.7961 40.6939 7.98843C40.9778 8.54708 42.8003 10.2322 43.6062 10.6901C45.9415 12.0089 47.4252 11.7067 46.3628 10.1314C45.4836 8.84014 42.5621 5.9095 41.1701 4.92957C40.529 4.47166 40.1535 4.38007 39.8147 4.58156Z" fill="#15C1EC"/>
<path d="M16.6986 13.6204C15.2607 14.1333 14.1251 15.1865 13.4382 16.6335C13.2185 17.1005 13.1452 17.4394 13.0353 18.4651C12.962 19.1611 12.8613 19.9487 12.8155 20.2143C12.6873 20.9195 12.1653 22.1376 11.689 22.8611C11.2494 23.5296 8.72175 26.0665 7.87003 26.7167C6.80767 27.5135 5.73616 27.834 3.79461 27.9256C2.52161 27.9897 2.37508 28.008 1.77979 28.2828C0.213733 28.9971 -0.299129 30.151 0.167941 31.9644C0.451847 33.0725 0.69912 33.622 1.16619 34.199C1.93548 35.1606 2.53993 35.4445 4.22505 35.6643C7.02747 36.0215 8.18141 36.6351 10.5809 39.0437C13.3925 41.8644 14.1801 43.0825 14.931 45.7201C15.1417 46.4344 15.4256 47.277 15.5813 47.5792C16.0667 48.5774 17.3122 49.8962 18.3471 50.5007C18.9149 50.8304 19.8124 51.0319 20.4809 50.9769C21.4609 50.9036 22.1569 50.345 22.6606 49.2368C23.2925 47.8631 22.9079 46.0498 21.699 44.7401C20.8198 43.7968 19.8307 43.284 18.2738 42.9909C16.6253 42.6887 15.215 41.9743 13.9877 40.8204C12.962 39.8679 9.67421 36.2046 9.18882 35.472C8.18141 33.9609 7.82424 32.7795 7.89751 31.1859C7.95246 29.9496 8.1631 29.2902 8.80417 28.3285C9.28956 27.5959 11.6341 25.1232 12.7056 24.2073C13.9053 23.1816 15.2424 22.6596 17.358 22.394C19.2171 22.1559 19.9956 21.8262 21.0213 20.8554C22.0012 19.9304 22.4317 18.9322 22.4317 17.5859C22.4317 16.1389 21.8913 14.985 20.8564 14.2248C20.0505 13.6387 19.4461 13.4281 18.3562 13.3914C17.532 13.364 17.3671 13.3823 16.6986 13.6204Z" fill="url(#paint2_linear_12_222)"/>
<path d="M46.2247 28.1004C44.9883 28.5034 43.8527 29.5566 43.3032 30.8296C43.2025 31.0677 43.0193 31.7088 42.9003 32.2491C42.5523 33.7969 42.0028 35.0149 41.2152 35.9857C40.1436 37.3136 36.8558 40.7938 36.0957 41.3982C35.2989 42.0393 33.9984 42.6987 33.1009 42.9093C32.7346 42.9917 32.0844 43.0558 31.5898 43.0558C30.5275 43.0467 29.5109 42.7628 28.6958 42.2316C27.899 41.7096 24.7395 38.4035 23.9702 37.2861C23.5489 36.6725 22.9078 35.2622 22.7613 34.6119C22.688 34.2822 22.5598 33.4946 22.4865 32.8627C22.2942 31.3058 22.0561 30.6647 21.3601 29.8313C20.197 28.421 18.2554 27.7341 16.5703 28.1187C15.2973 28.4118 14.006 29.4101 13.4473 30.5365C13.0444 31.3516 12.9711 32.5422 13.255 33.4763C13.6305 34.7035 14.5463 35.8666 15.746 36.6634C16.5428 37.1854 17.0648 37.3411 18.466 37.4602C20.1786 37.5975 20.7831 37.7532 21.9737 38.3302C22.9902 38.8247 23.0635 38.8888 24.2174 40.0519C25.5729 41.4348 26.5894 42.5979 26.9924 43.2665C27.1481 43.5138 27.3862 44.0541 27.5236 44.4571C27.7525 45.1256 27.78 45.3454 27.8258 47.0214C27.8807 48.7798 27.8899 48.8713 28.1372 49.3659C28.4577 50.0344 28.9431 50.5198 29.5567 50.8037C29.9871 50.9961 30.152 51.0235 30.7564 50.9869C31.6539 50.9319 33.0643 50.4649 33.7878 49.9795C34.7311 49.3567 34.9967 48.8347 35.6652 46.3711C36.4071 43.6511 36.8192 42.8086 38.2845 41.0593C40.0063 38.9987 41.783 37.3777 43.0376 36.7275C44.2374 36.0956 44.9426 35.8849 46.4354 35.6743C47.9282 35.4637 48.3494 35.2713 49.2195 34.3921C49.6591 33.9525 50.0712 33.4305 50.2452 33.1008C50.6207 32.3865 50.9137 31.315 50.9137 30.6647C50.9137 29.5474 50.0437 28.4851 48.7982 28.1004C48.0747 27.8715 46.9391 27.8715 46.2247 28.1004Z" fill="url(#paint3_linear_12_222)"/>
<path d="M44.8239 39.9053C42.8274 40.7021 41.1514 42.1857 40.3363 43.9075C39.8051 45.0156 39.6311 45.5743 39.6678 46.1146C39.6952 46.4901 39.7319 46.5817 39.9334 46.6733C40.5195 46.9572 41.3895 46.3344 43.8439 43.8708C46.0511 41.6637 46.7013 40.8211 46.7013 40.2075C46.7013 39.6122 45.9045 39.484 44.8239 39.9053Z" fill="#4040EC"/>
<path d="M4.35386 39.887C3.96006 40.2808 4.42713 41.2057 5.8375 42.7993C6.80828 43.9074 8.8872 45.8307 9.70228 46.3802C10.4624 46.9022 10.8013 46.9754 11.0669 46.6915C11.3599 46.371 11.3233 45.7208 10.957 44.8141C10.1144 42.7535 8.25528 40.8852 6.17636 40.0426C5.34296 39.7038 4.59198 39.6397 4.35386 39.887Z" fill="#2CA9EC"/>
</g>
<path d="M143.105 39.0572V12.5166H148.625V22.4953H148.794C149.036 21.9596 149.386 21.4153 149.844 20.8624C150.31 20.3008 150.915 19.8343 151.658 19.4628C152.41 19.0826 153.343 18.8926 154.457 18.8926C155.909 18.8926 157.248 19.2727 158.474 20.033C159.701 20.7846 160.682 21.9207 161.416 23.4413C162.151 24.9532 162.518 26.8496 162.518 29.1304C162.518 31.3508 162.159 33.2256 161.442 34.7548C160.734 36.2753 159.766 37.4287 158.539 38.2149C157.321 38.9924 155.956 39.3812 154.444 39.3812C153.373 39.3812 152.461 39.2041 151.71 38.8499C150.967 38.4957 150.358 38.0507 149.882 37.5151C149.407 36.9708 149.044 36.4222 148.794 35.8693H148.548V39.0572H143.105ZM148.509 29.1045C148.509 30.2881 148.673 31.3205 149.001 32.2018C149.33 33.083 149.805 33.7698 150.427 34.2623C151.049 34.7461 151.805 34.988 152.695 34.988C153.593 34.988 154.353 34.7418 154.975 34.2493C155.597 33.7482 156.068 33.0571 156.388 32.1759C156.716 31.286 156.88 30.2622 156.88 29.1045C156.88 27.9554 156.721 26.9446 156.401 26.072C156.081 25.1994 155.61 24.5169 154.988 24.0245C154.366 23.532 153.602 23.2858 152.695 23.2858C151.796 23.2858 151.036 23.5234 150.414 23.9985C149.8 24.4737 149.33 25.1476 149.001 26.0202C148.673 26.8928 148.509 27.9209 148.509 29.1045Z" fill="black"/>
<path d="M133.064 30.5815V19.1514H138.585V39.0568H133.285V35.4412H133.077C132.628 36.6075 131.881 37.5449 130.835 38.2534C129.799 38.9618 128.533 39.316 127.038 39.316C125.708 39.316 124.537 39.0136 123.526 38.4089C122.516 37.8041 121.725 36.9445 121.155 35.83C120.593 34.7155 120.308 33.3807 120.3 31.8256V19.1514H125.82V30.8407C125.829 32.0156 126.144 32.9444 126.766 33.6269C127.388 34.3094 128.222 34.6507 129.267 34.6507C129.933 34.6507 130.555 34.4995 131.134 34.1971C131.712 33.8861 132.179 33.4282 132.533 32.8234C132.896 32.2187 133.073 31.4713 133.064 30.5815Z" fill="black"/>
<path d="M103.048 27.5494V39.0572H97.5269V12.5166H102.892V22.6637H103.125C103.575 21.4888 104.3 20.5686 105.302 19.9034C106.305 19.2295 107.562 18.8926 109.074 18.8926C110.456 18.8926 111.661 19.195 112.689 19.7997C113.726 20.3959 114.529 21.2555 115.1 22.3786C115.679 23.4931 115.964 24.8279 115.955 26.383V39.0572H110.434V27.368C110.443 26.1411 110.132 25.1865 109.501 24.504C108.879 23.8214 108.007 23.4802 106.883 23.4802C106.132 23.4802 105.467 23.64 104.888 23.9597C104.318 24.2793 103.868 24.7459 103.54 25.3593C103.22 25.964 103.056 26.6941 103.048 27.5494Z" fill="black"/>
<path d="M72.2432 17.1431V12.5166H94.0407V17.1431H85.9152V39.0572H80.3686V17.1431H72.2432Z" fill="black"/>
<path d="M63.2073 39.0569V19.1514H68.728V39.0569H63.2073ZM65.9806 16.5855C65.1599 16.5855 64.4558 16.3133 63.8683 15.769C63.2894 15.2161 63 14.5552 63 13.7862C63 13.026 63.2894 12.3737 63.8683 11.8294C64.4558 11.2765 65.1599 11 65.9806 11C66.8014 11 67.5012 11.2765 68.08 11.8294C68.6675 12.3737 68.9613 13.026 68.9613 13.7862C68.9613 14.5552 68.6675 15.2161 68.08 15.769C67.5012 16.3133 66.8014 16.5855 65.9806 16.5855Z" fill="black"/>
</g>
<defs>
<linearGradient id="paint0_linear_12_222" x1="1.26343e-07" y1="11.5894" x2="37.7165" y2="11.5894" gradientUnits="userSpaceOnUse">
<stop stop-color="#15C1EC"/>
<stop offset="1" stop-color="#C115EC"/>
</linearGradient>
<linearGradient id="paint1_linear_12_222" x1="39.4148" y1="37.5396" x2="39.4148" y2="0.275388" gradientUnits="userSpaceOnUse">
<stop stop-color="#15C1EC"/>
<stop offset="1" stop-color="#C115EC"/>
</linearGradient>
<linearGradient id="paint2_linear_12_222" x1="0.00195308" y1="32.1838" x2="22.9613" y2="32.1838" gradientUnits="userSpaceOnUse">
<stop stop-color="#9615EC"/>
<stop offset="1" stop-color="#15C1EC"/>
</linearGradient>
<linearGradient id="paint3_linear_12_222" x1="13.084" y1="39.4648" x2="50.9137" y2="39.4648" gradientUnits="userSpaceOnUse">
<stop stop-color="#15C1EC"/>
<stop offset="1" stop-color="#C115EC"/>
</linearGradient>
<clipPath id="clip0_12_222">
<rect width="163" height="51" fill="white"/>
</clipPath>
</defs>
</svg>
