<svg width="101" height="25" viewBox="0 0 101 25" fill="none" xmlns="http://www.w3.org/2000/svg">
<path d="M8.76 10.112V15.488C8.76 17.216 9.54933 18.08 11.128 18.08C12.344 18.08 13.144 17.504 13.528 16.352C13.6347 15.9893 13.7627 15.744 13.912 15.616C14.0827 15.488 14.3493 15.424 14.712 15.424H21.24C21.432 15.424 21.592 15.4987 21.72 15.648C21.8693 15.776 21.944 15.936 21.944 16.128C21.944 17.984 21.4107 19.5413 20.344 20.8C18.3813 23.1467 15.32 24.32 11.16 24.32C7.896 24.32 5.29333 23.6053 3.352 22.176C1.41067 20.7253 0.44 18.5067 0.44 15.52V10.08C0.44 7.15733 1.432 4.96 3.416 3.488C5.4 2.016 7.98133 1.28 11.16 1.28C15.32 1.28 18.3813 2.45333 20.344 4.8C21.4107 6.05867 21.944 7.616 21.944 9.472C21.944 9.664 21.8693 9.83467 21.72 9.984C21.592 10.112 21.432 10.176 21.24 10.176H14.712C14.3707 10.176 14.1147 10.112 13.944 9.984C13.7947 9.856 13.656 9.61067 13.528 9.248C13.1227 8.096 12.3227 7.52 11.128 7.52C9.54933 7.52 8.76 8.384 8.76 10.112ZM31.0983 24H25.3703C25.1356 24 24.9329 23.9147 24.7623 23.744C24.5916 23.5733 24.5063 23.3707 24.5063 23.136V8.224C24.5063 7.98933 24.5916 7.78667 24.7623 7.616C24.9329 7.44533 25.1356 7.36 25.3703 7.36H31.0983C31.3329 7.36 31.5356 7.44533 31.7063 7.616C31.8769 7.78667 31.9623 7.98933 31.9623 8.224V23.136C31.9623 23.3707 31.8769 23.5733 31.7063 23.744C31.5356 23.9147 31.3329 24 31.0983 24ZM31.8023 1.184V5.056C31.8023 5.29067 31.7169 5.49333 31.5463 5.664C31.3756 5.83467 31.1729 5.92 30.9383 5.92H25.5303C25.2956 5.92 25.0929 5.83467 24.9223 5.664C24.7516 5.49333 24.6663 5.29067 24.6663 5.056V1.184C24.6663 0.949332 24.7516 0.746665 24.9223 0.575998C25.0929 0.405333 25.2956 0.32 25.5303 0.32H30.9383C31.1729 0.32 31.3756 0.405333 31.5463 0.575998C31.7169 0.746665 31.8023 0.949332 31.8023 1.184ZM42.1705 8.224V9.344C43.6638 8.02133 45.3278 7.36 47.1625 7.36H48.6985C48.9332 7.36 49.1358 7.44533 49.3065 7.616C49.4772 7.78667 49.5625 7.98933 49.5625 8.224V13.216C49.5625 13.4507 49.4772 13.6533 49.3065 13.824C49.1358 13.9947 48.9332 14.08 48.6985 14.08H44.5705C43.9945 14.08 43.5358 14.2187 43.1945 14.496C42.8745 14.752 42.6932 15.104 42.6505 15.552V23.136C42.6505 23.3707 42.5652 23.5733 42.3945 23.744C42.2238 23.9147 42.0212 24 41.7865 24H35.7065C35.4718 24 35.2692 23.9147 35.0985 23.744C34.9278 23.5733 34.8425 23.3707 34.8425 23.136V8.224C34.8425 7.98933 34.9278 7.78667 35.0985 7.616C35.2692 7.44533 35.4718 7.36 35.7065 7.36H41.3065C41.5412 7.36 41.7438 7.44533 41.9145 7.616C42.0852 7.78667 42.1705 7.98933 42.1705 8.224ZM51.6513 19.232C51.6513 16.352 53.9873 14.5067 58.6593 13.696L62.0513 13.152C62.0513 12.512 61.9979 12.0853 61.8913 11.872C61.7846 11.6373 61.5286 11.52 61.1233 11.52C60.7393 11.52 60.3553 11.6907 59.9713 12.032C59.5873 12.3733 59.2246 12.544 58.8833 12.544H53.4433C52.9739 12.544 52.7393 12.32 52.7393 11.872C52.7393 11.4027 52.8993 10.912 53.2193 10.4C53.5606 9.86667 54.0406 9.344 54.6593 8.832C55.2993 8.32 56.1846 7.89333 57.3153 7.552C58.4673 7.21067 59.7473 7.04 61.1553 7.04C64.0139 7.04 66.1579 7.63733 67.5873 8.832C69.0166 10.0267 69.7313 11.7333 69.7313 13.952V23.136C69.7313 23.3707 69.6459 23.5733 69.4753 23.744C69.3046 23.9147 69.1019 24 68.8673 24H63.2673C63.0326 24 62.8299 23.9147 62.6593 23.744C62.4886 23.5733 62.4033 23.3707 62.4033 23.136V22.24C61.4006 23.6267 59.9393 24.32 58.0193 24.32C56.0993 24.32 54.5526 23.84 53.3793 22.88C52.2273 21.8987 51.6513 20.6827 51.6513 19.232ZM60.0673 19.584C61.4539 19.584 62.1473 18.752 62.1473 17.088L60.2593 17.504C59.3206 17.7173 58.8513 18.112 58.8513 18.688C58.8513 18.944 58.9579 19.1573 59.1713 19.328C59.3846 19.4987 59.6833 19.584 60.0673 19.584ZM91.4123 12.768C91.0709 12.768 90.7723 12.896 90.5163 13.152C90.2816 13.408 90.1643 13.792 90.1643 14.304V23.136C90.1643 23.3707 90.0789 23.5733 89.9083 23.744C89.7376 23.9147 89.5349 24 89.3003 24H83.6683C83.4336 24 83.2309 23.9147 83.0603 23.744C82.8896 23.5733 82.8043 23.3707 82.8043 23.136V14.528C82.8043 13.3547 82.3776 12.768 81.5243 12.768C81.1616 12.768 80.8523 12.9067 80.5963 13.184C80.3616 13.44 80.2443 13.8027 80.2443 14.272V23.136C80.2443 23.3707 80.1589 23.5733 79.9883 23.744C79.8176 23.9147 79.6149 24 79.3802 24H73.6203C73.3856 24 73.1829 23.9147 73.0123 23.744C72.8416 23.5733 72.7563 23.3707 72.7563 23.136V8.224C72.7563 7.98933 72.8416 7.78667 73.0123 7.616C73.1829 7.44533 73.3856 7.36 73.6203 7.36H78.9003C79.1349 7.36 79.3376 7.44533 79.5083 7.616C79.6789 7.78667 79.7643 7.98933 79.7643 8.224V9.28C80.1909 8.72533 80.7989 8.224 81.5883 7.776C82.4629 7.28533 83.4443 7.04 84.5323 7.04C86.8789 7.04 88.4576 7.91467 89.2683 9.664C89.7803 8.91733 90.4843 8.29867 91.3803 7.808C92.2763 7.296 93.2043 7.04 94.1643 7.04C95.8923 7.04 97.3003 7.648 98.3883 8.864C99.4976 10.08 100.052 11.8933 100.052 14.304V23.136C100.052 23.3707 99.9669 23.5733 99.7963 23.744C99.6256 23.9147 99.4229 24 99.1883 24H93.5563C93.3216 24 93.1189 23.9147 92.9483 23.744C92.7776 23.5733 92.6923 23.3707 92.6923 23.136V14.528C92.6923 13.3547 92.2656 12.768 91.4123 12.768Z" fill="url(#paint0_linear_15_459)"/>
<defs>
<linearGradient id="paint0_linear_15_459" x1="-1" y1="13.5" x2="103" y2="13.5" gradientUnits="userSpaceOnUse">
<stop stop-color="#3D80E4"/>
<stop offset="1" stop-color="#E43D3D"/>
</linearGradient>
</defs>
</svg>
