<svg width="163" height="51" viewBox="0 0 163 51" fill="none" xmlns="http://www.w3.org/2000/svg">
<g clip-path="url(#clip0_12_240)">
<mask id="mask0_12_240" style="mask-type:luminance" maskUnits="userSpaceOnUse" x="0" y="0" width="163" height="51">
<path d="M163 0H0V51H163V0Z" fill="white"/>
</mask>
<g mask="url(#mask0_12_240)">
<path d="M18.7686 0.313892C17.9443 0.542848 16.7995 1.1473 16.305 1.63269C15.5632 2.35619 15.1968 3.26286 15.0045 4.84723C14.8763 5.96454 14.5558 6.94447 13.9788 7.94272C13.2278 9.25235 12.5959 10.0216 10.7093 11.8991C8.84102 13.7674 8.27321 14.1978 6.89031 14.7748C6.24924 15.0404 4.50001 15.5624 4.24358 15.5624C3.94136 15.5624 2.86068 15.9837 2.39361 16.2859C0.516168 17.4856 -0.555347 20.2697 0.29637 21.7259C0.809232 22.5868 1.67927 22.9806 3.0988 22.9806C4.50917 22.9806 5.2693 22.6509 6.36829 21.561C7.27496 20.6635 7.4856 20.2514 7.91604 18.5388C8.48385 16.2676 8.90513 15.6265 11.909 12.4119C14.107 10.0674 14.9587 9.32562 16.1585 8.73033C17.3032 8.17168 17.9626 8.01599 19.1807 8.01599C20.3713 8.02515 21.2505 8.27242 22.1205 8.83107C22.7249 9.22488 25.8387 12.3204 26.6538 13.3461C27.6154 14.555 28.0459 15.7181 28.3206 17.9252C28.4214 18.722 28.513 19.0883 28.7419 19.5462C29.96 22.0189 33.1745 23.0721 35.6564 21.8175C36.3433 21.4695 37.0484 20.7551 37.3781 20.0591C37.6163 19.5645 37.6712 19.3173 37.7078 18.6304C37.7811 17.2292 37.3965 16.2676 36.3433 15.1503C35.171 13.9231 34.2643 13.4926 32.5609 13.3552C30.6468 13.2087 29.731 12.9798 28.4763 12.357C27.6521 11.9357 26.9194 11.3129 25.5274 9.83848C24.3185 8.55633 24.0254 8.19 23.6408 7.50313C23.1096 6.54151 23.0455 6.23013 22.9814 4.23363C22.9264 2.49356 22.9081 2.36535 22.6791 1.89828C22.3769 1.28467 21.7725 0.661905 21.2413 0.423792C20.701 0.176519 19.4738 0.121568 18.7686 0.313892Z" fill="url(#paint0_linear_12_240)"/>
<path d="M29.5933 0.50611C28.9797 0.808333 28.357 1.51352 28.1097 2.17291C27.9448 2.60335 27.9174 2.84146 27.9448 3.52833C27.9906 4.6548 28.3112 5.32335 29.3277 6.37655C30.3077 7.40227 30.6923 7.60375 32.4873 8.04335C34.1633 8.44631 35.244 8.92253 36.2697 9.68267C36.8558 10.1223 39.8963 13.291 41.0045 14.619C42.6896 16.6338 43.3215 19.1523 42.6713 21.2862C42.4057 22.1379 42.1218 22.6141 41.38 23.4384C40.4642 24.4549 38.1654 26.5522 37.6068 26.8819C36.462 27.5504 35.0058 27.9534 33.3299 28.0633C32.7987 28.0908 32.1668 28.1823 31.9104 28.2648C30.4633 28.7135 29.1995 29.959 28.65 31.4518C28.357 32.2486 28.3478 33.6956 28.6409 34.5199C28.8973 35.2708 29.8497 36.5072 30.4725 36.901C32.24 38.0183 34.3922 37.652 36.1323 35.9394C36.7368 35.3441 36.9474 35.0602 37.2588 34.4191C37.5885 33.7322 37.6617 33.4667 37.8174 32.3402C38.2753 29.0432 38.9714 27.7977 41.8013 25.2425C43.6238 23.6032 44.3839 23.2827 46.7925 23.1453C48.844 23.0354 49.2195 22.9621 49.8239 22.5409C50.8038 21.8448 51.1152 20.7825 50.7397 19.308C50.3551 17.7694 49.6316 16.7528 48.4685 16.1392C48.1388 15.9561 47.3329 15.6905 46.4811 15.4707C44.4388 14.9487 43.4955 14.564 42.3966 13.8222C41.1785 12.998 38.8889 10.6809 37.6251 9.00497C36.9199 8.07083 36.059 6.3216 35.7477 5.21345C35.6194 4.73722 35.3722 4.05035 35.1982 3.68402C34.0259 1.22045 31.2784 -0.33645 29.5933 0.50611Z" fill="url(#paint1_linear_12_240)"/>
<path d="M10.1137 4.54463C9.57339 4.82854 8.62094 5.68025 6.89918 7.42948C5.10417 9.24281 4.33487 10.232 4.23413 10.8364C4.18834 11.102 4.22497 11.1753 4.44477 11.3126C4.80194 11.5507 5.34228 11.505 6.13905 11.1753C8.3645 10.2503 10.3518 8.18961 11.0753 6.07406C11.3135 5.39635 11.3135 4.74611 11.0937 4.54463C10.883 4.35231 10.4709 4.35231 10.1137 4.54463Z" fill="#C115EC"/>
<path d="M39.8147 4.58156C39.5857 4.70977 39.5949 5.44243 39.8238 6.06519C40.0436 6.66048 40.41 7.53051 40.4741 7.59462C40.5015 7.6221 40.6023 7.7961 40.6939 7.98843C40.9778 8.54708 42.8003 10.2322 43.6062 10.6901C45.9415 12.0089 47.4252 11.7067 46.3628 10.1314C45.4836 8.84014 42.5621 5.9095 41.1701 4.92957C40.529 4.47166 40.1535 4.38007 39.8147 4.58156Z" fill="#15C1EC"/>
<path d="M16.6986 13.6204C15.2607 14.1333 14.1251 15.1865 13.4382 16.6335C13.2185 17.1005 13.1452 17.4394 13.0353 18.4651C12.962 19.1611 12.8613 19.9487 12.8155 20.2143C12.6873 20.9195 12.1653 22.1376 11.689 22.8611C11.2494 23.5296 8.72175 26.0665 7.87003 26.7167C6.80767 27.5135 5.73616 27.834 3.79461 27.9256C2.52161 27.9897 2.37508 28.008 1.77979 28.2828C0.213733 28.9971 -0.299129 30.151 0.167941 31.9644C0.451847 33.0725 0.69912 33.622 1.16619 34.199C1.93548 35.1606 2.53993 35.4445 4.22505 35.6643C7.02747 36.0215 8.18141 36.6351 10.5809 39.0437C13.3925 41.8644 14.1801 43.0825 14.931 45.7201C15.1417 46.4344 15.4256 47.277 15.5813 47.5792C16.0667 48.5774 17.3122 49.8962 18.3471 50.5007C18.9149 50.8304 19.8124 51.0319 20.4809 50.9769C21.4609 50.9036 22.1569 50.345 22.6606 49.2368C23.2925 47.8631 22.9079 46.0498 21.699 44.7401C20.8198 43.7968 19.8307 43.284 18.2738 42.9909C16.6253 42.6887 15.215 41.9743 13.9877 40.8204C12.962 39.8679 9.67421 36.2046 9.18882 35.472C8.18141 33.9609 7.82424 32.7795 7.89751 31.1859C7.95246 29.9496 8.1631 29.2902 8.80417 28.3285C9.28956 27.5959 11.6341 25.1232 12.7056 24.2073C13.9053 23.1816 15.2424 22.6596 17.358 22.394C19.2171 22.1559 19.9956 21.8262 21.0213 20.8554C22.0012 19.9304 22.4317 18.9322 22.4317 17.5859C22.4317 16.1389 21.8913 14.985 20.8564 14.2248C20.0505 13.6387 19.4461 13.4281 18.3562 13.3914C17.532 13.364 17.3671 13.3823 16.6986 13.6204Z" fill="url(#paint2_linear_12_240)"/>
<path d="M46.2247 28.1004C44.9883 28.5034 43.8527 29.5566 43.3032 30.8296C43.2025 31.0677 43.0193 31.7088 42.9003 32.2491C42.5523 33.7969 42.0028 35.0149 41.2152 35.9857C40.1436 37.3136 36.8558 40.7938 36.0957 41.3982C35.2989 42.0393 33.9984 42.6987 33.1009 42.9093C32.7346 42.9917 32.0844 43.0558 31.5898 43.0558C30.5275 43.0467 29.5109 42.7628 28.6958 42.2316C27.899 41.7096 24.7395 38.4035 23.9702 37.2861C23.5489 36.6725 22.9078 35.2622 22.7613 34.6119C22.688 34.2822 22.5598 33.4946 22.4865 32.8627C22.2942 31.3058 22.0561 30.6647 21.3601 29.8313C20.197 28.421 18.2554 27.7341 16.5703 28.1187C15.2973 28.4118 14.006 29.4101 13.4473 30.5365C13.0444 31.3516 12.9711 32.5422 13.255 33.4763C13.6305 34.7035 14.5463 35.8666 15.746 36.6634C16.5428 37.1854 17.0648 37.3411 18.466 37.4602C20.1786 37.5975 20.7831 37.7532 21.9737 38.3302C22.9902 38.8247 23.0635 38.8888 24.2174 40.0519C25.5729 41.4348 26.5894 42.5979 26.9924 43.2665C27.1481 43.5138 27.3862 44.0541 27.5236 44.4571C27.7525 45.1256 27.78 45.3454 27.8258 47.0214C27.8807 48.7798 27.8899 48.8713 28.1372 49.3659C28.4577 50.0344 28.9431 50.5198 29.5567 50.8037C29.9871 50.9961 30.152 51.0235 30.7564 50.9869C31.6539 50.9319 33.0643 50.4649 33.7878 49.9795C34.7311 49.3567 34.9967 48.8347 35.6652 46.3711C36.4071 43.6511 36.8192 42.8086 38.2845 41.0593C40.0063 38.9987 41.783 37.3777 43.0376 36.7275C44.2374 36.0956 44.9426 35.8849 46.4354 35.6743C47.9282 35.4637 48.3494 35.2713 49.2195 34.3921C49.6591 33.9525 50.0712 33.4305 50.2452 33.1008C50.6207 32.3865 50.9137 31.315 50.9137 30.6647C50.9137 29.5474 50.0437 28.4851 48.7982 28.1004C48.0747 27.8715 46.9391 27.8715 46.2247 28.1004Z" fill="url(#paint3_linear_12_240)"/>
<path d="M44.8239 39.9053C42.8274 40.7021 41.1514 42.1857 40.3363 43.9075C39.8051 45.0156 39.6311 45.5743 39.6678 46.1146C39.6952 46.4901 39.7319 46.5817 39.9334 46.6733C40.5195 46.9572 41.3895 46.3344 43.8439 43.8708C46.0511 41.6637 46.7013 40.8211 46.7013 40.2075C46.7013 39.6122 45.9045 39.484 44.8239 39.9053Z" fill="#4040EC"/>
<path d="M4.35386 39.887C3.96006 40.2808 4.42713 41.2057 5.8375 42.7993C6.80828 43.9074 8.8872 45.8307 9.70228 46.3802C10.4624 46.9022 10.8013 46.9754 11.0669 46.6915C11.3599 46.371 11.3233 45.7208 10.957 44.8141C10.1144 42.7535 8.25528 40.8852 6.17636 40.0426C5.34296 39.7038 4.59198 39.6397 4.35386 39.887Z" fill="#2CA9EC"/>
</g>
<path d="M144.273 38.0654V12.4629H149.599V22.0888H149.761C149.995 21.5721 150.332 21.0471 150.774 20.5137C151.224 19.972 151.807 19.5219 152.524 19.1635C153.249 18.7968 154.149 18.6135 155.224 18.6135C156.624 18.6135 157.916 18.9802 159.1 19.7136C160.283 20.4387 161.229 21.5346 161.937 23.0014C162.646 24.4599 163 26.2892 163 28.4895C163 30.6313 162.654 32.4398 161.962 33.915C161.279 35.3818 160.346 36.4944 159.162 37.2528C157.987 38.0029 156.67 38.3779 155.212 38.3779C154.178 38.3779 153.299 38.2071 152.574 37.8654C151.857 37.5237 151.27 37.0945 150.811 36.5778C150.353 36.0527 150.003 35.5235 149.761 34.9901H149.524V38.0654H144.273ZM149.486 28.4645C149.486 29.6062 149.645 30.6022 149.961 31.4522C150.278 32.3023 150.736 32.9649 151.336 33.4399C151.936 33.9067 152.666 34.14 153.524 34.14C154.391 34.14 155.124 33.9025 155.724 33.4274C156.324 32.9441 156.779 32.2773 157.087 31.4272C157.404 30.5688 157.562 29.5812 157.562 28.4645C157.562 27.356 157.408 26.3809 157.099 25.5392C156.791 24.6974 156.337 24.039 155.737 23.564C155.137 23.0889 154.399 22.8514 153.524 22.8514C152.657 22.8514 151.924 23.0806 151.324 23.539C150.732 23.9974 150.278 24.6474 149.961 25.4892C149.645 26.3309 149.486 27.3227 149.486 28.4645Z" fill="black"/>
<path d="M134.588 29.8903V18.8643H139.913V38.0661H134.8V34.5783H134.6C134.167 35.7034 133.446 36.6077 132.438 37.2911C131.438 37.9745 130.217 38.3162 128.775 38.3162C127.491 38.3162 126.362 38.0245 125.387 37.4411C124.412 36.8577 123.649 36.0284 123.099 34.9533C122.558 33.8782 122.283 32.5906 122.274 31.0905V18.8643H127.6V30.1404C127.608 31.2738 127.912 32.1697 128.512 32.8281C129.112 33.4865 129.917 33.8157 130.925 33.8157C131.567 33.8157 132.167 33.6699 132.725 33.3782C133.284 33.0781 133.734 32.6364 134.075 32.053C134.425 31.4697 134.596 30.7488 134.588 29.8903Z" fill="black"/>
<path d="M105.632 26.9643V38.0654H100.307V12.4629H105.482V22.2513H105.707C106.141 21.1179 106.841 20.2303 107.807 19.5886C108.774 18.9385 109.987 18.6135 111.445 18.6135C112.779 18.6135 113.941 18.9052 114.933 19.4886C115.933 20.0636 116.708 20.8929 117.258 21.9763C117.817 23.0514 118.092 24.3391 118.083 25.8392V38.0654H112.758V26.7893C112.766 25.6058 112.466 24.6849 111.858 24.0265C111.258 23.3681 110.416 23.0389 109.333 23.0389C108.607 23.0389 107.966 23.1931 107.407 23.5015C106.857 23.8098 106.424 24.2599 106.107 24.8516C105.799 25.435 105.64 26.1392 105.632 26.9643Z" fill="black"/>
<path d="M75.9165 16.9258V12.4629H96.9436V16.9258H89.1053V38.0654H83.7548V16.9258H75.9165Z" fill="black"/>
<path d="M67.2 38.0651V18.8633H72.5255V38.0651H67.2ZM69.8753 16.388C69.0835 16.388 68.4043 16.1255 67.8376 15.6005C67.2792 15.0671 67 14.4295 67 13.6878C67 12.9544 67.2792 12.3251 67.8376 11.8001C68.4043 11.2667 69.0835 11 69.8753 11C70.667 11 71.3421 11.2667 71.9005 11.8001C72.4672 12.3251 72.7506 12.9544 72.7506 13.6878C72.7506 14.4295 72.4672 15.0671 71.9005 15.6005C71.3421 16.1255 70.667 16.388 69.8753 16.388Z" fill="black"/>
</g>
<defs>
<linearGradient id="paint0_linear_12_240" x1="1.26343e-07" y1="11.5894" x2="37.7165" y2="11.5894" gradientUnits="userSpaceOnUse">
<stop stop-color="#15C1EC"/>
<stop offset="1" stop-color="#C115EC"/>
</linearGradient>
<linearGradient id="paint1_linear_12_240" x1="39.4148" y1="37.5396" x2="39.4148" y2="0.275388" gradientUnits="userSpaceOnUse">
<stop stop-color="#15C1EC"/>
<stop offset="1" stop-color="#C115EC"/>
</linearGradient>
<linearGradient id="paint2_linear_12_240" x1="0.00195308" y1="32.1838" x2="22.9613" y2="32.1838" gradientUnits="userSpaceOnUse">
<stop stop-color="#9615EC"/>
<stop offset="1" stop-color="#15C1EC"/>
</linearGradient>
<linearGradient id="paint3_linear_12_240" x1="13.084" y1="39.4648" x2="50.9137" y2="39.4648" gradientUnits="userSpaceOnUse">
<stop stop-color="#15C1EC"/>
<stop offset="1" stop-color="#C115EC"/>
</linearGradient>
<clipPath id="clip0_12_240">
<rect width="163" height="51" fill="white"/>
</clipPath>
</defs>
</svg>
