<svg width="82" height="73" viewBox="0 0 82 73" fill="none" xmlns="http://www.w3.org/2000/svg">
<path d="M33.2432 0H4.43243C1.98839 0 0 1.98472 0 4.42424V68.5758C0 71.0153 1.98839 73 4.43243 73H13.2973C16.441 73 17.6488 70.5273 17.7257 68.756C17.7257 68.756 37.6757 4.53529 37.6757 4.42424C37.6757 1.98472 35.6873 0 33.2432 0ZM15.5634 68.2479C15.5304 68.3541 15.5135 68.4645 15.5135 68.5758C15.5135 68.5813 15.496 69.1792 15.215 69.7402C14.8568 70.455 14.2476 70.7879 13.2973 70.7879H4.43243C3.21041 70.7879 2.21622 69.7955 2.21622 68.5758V4.42424C2.21622 3.20448 3.21041 2.21212 4.43243 2.21212H33.2432C34.4143 2.21212 35.3761 3.12352 35.4544 4.27293L15.5634 68.2479ZM77.5676 0H48.7568C46.3127 0 44.3243 1.98472 44.3243 4.42424V68.5758C44.3243 71.0153 46.3127 73 48.7568 73H57.6216C60.7653 73 61.9732 70.5273 62.0501 68.756C62.0501 68.756 82 4.53529 82 4.42424C82 1.98472 80.0118 0 77.5676 0ZM59.8877 68.2479C59.8549 68.3541 59.8378 68.4645 59.8378 68.5758C59.8378 68.5813 59.8203 69.1792 59.5393 69.7402C59.1812 70.455 58.5719 70.7879 57.6216 70.7879H48.7568C47.5347 70.7879 46.5405 69.7955 46.5405 68.5758V4.42424C46.5405 3.20448 47.5347 2.21212 48.7568 2.21212H77.5676C78.7386 2.21212 79.7004 3.12352 79.7787 4.27293L59.8877 68.2479Z" fill="#FF7527" fill-opacity="0.19"/>
</svg>
