<svg width="52" height="40" viewBox="0 0 52 40" fill="none" xmlns="http://www.w3.org/2000/svg">
<path d="M12.1339 0.763184C5.43248 0.763184 0 6.19719 0 12.9009C0 19.6023 5.43248 25.0363 12.1339 25.0363C12.1339 25.0363 12.0752 29.5449 8.41242 36.0339C8.00556 37.3341 8.73082 38.7187 10.0318 39.1232C10.9549 39.4136 11.9263 39.1314 12.5535 38.4744C20.9756 29.2626 24.2723 18.421 24.2723 12.9009C24.2723 6.19719 18.8399 0.763184 12.1339 0.763184Z" fill="#ACC1E0"/>
<path d="M39.8619 0.763184C33.1605 0.763184 27.728 6.19729 27.728 12.9009C27.728 19.6023 33.1605 25.0363 39.8619 25.0363C39.8619 25.0363 39.8032 29.5449 36.1404 36.0339C35.7336 37.3341 36.4589 38.7187 37.7599 39.1232C38.683 39.4136 39.6543 39.1314 40.2815 38.4744C48.7036 29.2626 52.0005 18.421 52.0005 12.9009C52.0005 6.19719 46.568 0.763184 39.8619 0.763184Z" fill="#ACC1E0"/>
</svg>
