<svg width="368" height="327" viewBox="0 0 368 327" fill="none" xmlns="http://www.w3.org/2000/svg">
<path d="M149.189 0H19.8919C8.9235 0 0 8.89044 0 19.8182V307.182C0 318.11 8.9235 327 19.8919 327H59.6757C73.784 327 79.2045 315.924 79.5497 307.989C79.5497 307.989 169.081 20.3156 169.081 19.8182C169.081 8.89044 160.158 0 149.189 0ZM69.8454 305.713C69.6972 306.189 69.6216 306.683 69.6216 307.182C69.6216 307.207 69.543 309.885 68.2819 312.398C66.6746 315.6 63.9405 317.091 59.6757 317.091H19.8919C14.4077 317.091 9.94595 312.646 9.94595 307.182V19.8182C9.94595 14.3543 14.4077 9.90909 19.8919 9.90909H149.189C154.445 9.90909 158.761 13.9916 159.112 19.1404L69.8454 305.713ZM348.108 0H218.811C207.842 0 198.919 8.89044 198.919 19.8182V307.182C198.919 318.11 207.842 327 218.811 327H258.595C272.703 327 278.123 315.924 278.469 307.989C278.469 307.989 368 20.3156 368 19.8182C368 8.89044 359.077 0 348.108 0ZM268.764 305.713C268.617 306.189 268.541 306.683 268.541 307.182C268.541 307.207 268.462 309.885 267.201 312.398C265.594 315.6 262.859 317.091 258.595 317.091H218.811C213.327 317.091 208.865 312.646 208.865 307.182V19.8182C208.865 14.3543 213.327 9.90909 218.811 9.90909H348.108C353.364 9.90909 357.68 13.9916 358.031 19.1404L268.764 305.713Z" fill="#3D80E4" fill-opacity="0.1"/>
</svg>
