<svg width="80" height="80" viewBox="0 0 80 80" fill="none" xmlns="http://www.w3.org/2000/svg">
<path d="M48.7214 31.0323C48.7214 26.2234 44.8091 22.311 40.0001 22.311C35.191 22.311 31.2786 26.2234 31.2786 31.0323V34.3558H25.4008V44.405C25.4819 52.3727 32.0311 58.8551 40.0002 58.8551C47.9692 58.8551 54.5183 52.3727 54.5992 44.3909V34.3558H48.7215L48.7214 31.0323ZM51.8112 37.1437V44.3766C51.7459 50.8228 46.4475 56.0672 40.0001 56.0672C33.5528 56.0672 28.2542 50.8228 28.1887 44.3909V37.1437H51.8112ZM34.0666 34.3558V31.0323C34.0666 27.7607 36.7284 25.099 40.0001 25.099C43.2717 25.099 45.9335 27.7607 45.9335 31.0323V34.3558H34.0666Z" fill="#555555"/>
<path d="M74.1713 33.7459C71.5879 19.5959 60.4038 8.41177 46.254 5.82848C45.8468 2.73941 43.1985 0.346924 40 0.346924C36.8015 0.346924 34.153 2.73955 33.7458 5.82861C19.596 8.41195 8.4119 19.5961 5.8287 33.7459C2.7395 34.1531 0.346924 36.8016 0.346924 40.0001C0.346924 43.1987 2.7395 45.8468 5.8287 46.254C8.41186 60.4038 19.5959 71.5877 33.7458 74.1711C34.153 77.2601 36.8015 79.6529 40 79.6529C43.1985 79.6529 45.8468 77.2603 46.254 74.1711C60.4038 71.5879 71.5881 60.4038 74.1713 46.2542C77.2605 45.847 79.6531 43.1987 79.6531 40.0001C79.653 36.8016 77.2604 34.1531 74.1713 33.7459ZM40 3.13488C41.5066 3.13488 42.7915 4.08741 43.2937 5.42039C43.4391 5.80581 43.5223 6.2215 43.5223 6.65715C43.5223 7.21381 43.3889 7.7387 43.158 8.20719C42.5834 9.37346 41.3856 10.1797 40 10.1797C38.6142 10.1797 37.4164 9.37346 36.8418 8.20719C36.6107 7.7387 36.4775 7.21381 36.4775 6.65715C36.4775 6.22155 36.5607 5.80586 36.706 5.42039C37.2083 4.08741 38.4932 3.13488 40 3.13488ZM5.42052 43.2939C4.08741 42.7914 3.13488 41.5067 3.13488 40.0001C3.13488 38.4933 4.08741 37.2084 5.42052 36.7061C5.80595 36.5608 6.22172 36.4776 6.65737 36.4776C7.21395 36.4776 7.73884 36.6108 8.20732 36.8419C9.37337 37.4165 10.1796 38.6143 10.1796 40.0001C10.1796 41.3858 9.37337 42.5833 8.20732 43.1582C7.73884 43.3889 7.21395 43.5223 6.65737 43.5223C6.22172 43.5223 5.80595 43.4391 5.42052 43.2939ZM40 76.8649C38.4932 76.8649 37.2083 75.9124 36.706 74.5792C36.5607 74.1938 36.4775 73.778 36.4775 73.3424C36.4775 72.7859 36.6107 72.2609 36.8418 71.7924C37.4164 70.6262 38.6142 69.8201 40 69.8201C41.3856 69.8201 42.5834 70.6262 43.158 71.7924C43.3889 72.2609 43.5223 72.7859 43.5223 73.3424C43.5223 73.778 43.4391 74.1938 43.2937 74.5792C42.7915 75.9124 41.5066 76.8649 40 76.8649ZM45.9967 71.3816C45.1699 68.8595 42.795 67.0322 40 67.0322C37.205 67.0322 34.8299 68.8595 34.0031 71.3816C21.1867 68.9374 11.0623 58.8132 8.61821 45.9967C11.1403 45.1699 12.9676 42.795 12.9676 40.0001C12.9676 37.2051 11.1403 34.83 8.61821 34.0031C11.0623 21.1867 21.1867 11.0623 34.0031 8.61812C34.8299 11.1404 37.205 12.9677 40 12.9677C42.795 12.9677 45.1698 11.1404 45.9967 8.61812C58.8132 11.0623 68.9376 21.1867 71.3818 34.0031C68.8595 34.83 67.0322 37.2051 67.0322 40.0001C67.0322 42.795 68.8595 45.1698 71.3818 45.9967C68.9376 58.8132 58.8132 68.9374 45.9967 71.3816ZM74.5795 43.2939C74.194 43.4391 73.7784 43.5223 73.3428 43.5223C72.786 43.5223 72.2612 43.3889 71.7927 43.1582C70.6264 42.5833 69.8201 41.3858 69.8201 40.0001C69.8201 38.6145 70.6264 37.4167 71.7927 36.8419C72.2612 36.6108 72.786 36.4776 73.3428 36.4776C73.7784 36.4776 74.194 36.5608 74.5795 36.7061C75.9126 37.2083 76.8651 38.4933 76.8651 40.0001C76.8651 41.5067 75.9126 42.7918 74.5795 43.2939Z" fill="#555555"/>
</svg>
