<svg width="186" height="185" viewBox="0 0 186 185" fill="none" xmlns="http://www.w3.org/2000/svg">
<path d="M99.8735 182.98H96.0935L92.5335 173.68L88.9735 182.98H85.2135L90.7935 169H94.2735L99.8735 182.98Z" fill="white"/>
<path d="M78.4501 178.804C78.9768 178.888 79.3909 179.129 79.6922 179.528C79.9936 179.926 80.1025 180.389 80.0191 180.916C79.9377 181.429 79.6922 181.829 79.2824 182.115C78.8705 182.415 78.4012 182.522 77.8744 182.439C77.3608 182.358 76.9544 182.111 76.6551 181.699C76.3406 181.298 76.224 180.841 76.3054 180.328C76.3867 179.814 76.6399 179.409 77.065 179.111C77.4748 178.825 77.9365 178.723 78.4501 178.804ZM80.3886 177.815L76.912 177.265L78.4137 167.783L81.8904 168.334L80.3886 177.815Z" fill="white"/>
<path d="M68.0518 164.802C69.8397 165.383 71.1113 166.259 71.8665 167.43C72.6091 168.596 72.7311 169.947 72.2325 171.481C71.7422 172.99 70.9047 174.036 69.7201 174.618C68.5228 175.197 67.0682 175.208 65.3563 174.651C64.2657 174.297 63.4017 173.785 62.7641 173.115C62.1098 172.454 61.7035 171.698 61.5452 170.847C61.3702 170.006 61.4289 169.134 61.7214 168.234L62.1232 166.998L69.4083 169.365C69.4463 168.816 69.2487 168.346 68.8157 167.952C68.3826 167.559 67.7286 167.221 66.8536 166.936C66.2576 166.743 65.6325 166.596 64.9781 166.495C64.3111 166.391 63.7205 166.353 63.2064 166.382L63.9233 164.176C64.4543 164.138 65.0934 164.177 65.8406 164.294C66.5792 164.394 67.3163 164.563 68.0518 164.802ZM64.6008 170.116C64.4909 170.627 64.5681 171.08 64.8325 171.474C65.0969 171.868 65.5398 172.166 66.1612 172.368C66.7699 172.566 67.2991 172.577 67.7489 172.401C68.1946 172.237 68.5211 171.922 68.7284 171.457L64.6008 170.116Z" fill="white"/>
<path d="M60.1695 172.855L57.0332 171.257L58.158 165.657L54.2889 169.858L51.7584 168.569L52.8832 162.969L49.0141 167.171L45.8778 165.573L53.1051 158.481L55.9207 159.915L54.9304 165.471L58.8432 161.405L61.6588 162.839L60.1695 172.855Z" fill="white"/>
<path d="M29.3618 157.704L26.9011 155.243L32.8408 141.412L35.4005 143.972L34.156 146.8L37.8047 150.449L40.6331 149.204L43.2069 151.778L29.3618 157.704ZM32.8549 149.346L30.7336 153.871L35.2732 151.764L32.8549 149.346Z" fill="white"/>
<path d="M19.3014 147.574L17.2324 144.726L29.1897 136.039L31.2587 138.886L19.3014 147.574Z" fill="white"/>
<path d="M11.5823 135.505L9.98426 132.369L23.1533 125.659L24.7514 128.795L11.5823 135.505Z" fill="white"/>
<path d="M16.922 104.848C17.0597 105.717 17.1107 106.594 17.0751 107.477C17.0526 108.358 16.9404 109.098 16.7382 109.697L13.5974 110.194C13.8535 109.425 14.0132 108.643 14.0766 107.85C14.1379 107.044 14.1133 106.292 14.0028 105.594C13.9006 104.949 13.7246 104.477 13.4749 104.179C13.2253 103.881 12.916 103.762 12.5473 103.82C12.2708 103.864 12.0483 103.994 11.88 104.209C11.6964 104.414 11.5461 104.701 11.4291 105.07C11.3122 105.44 11.1596 106.011 10.9714 106.783C10.6338 108.146 10.1817 109.169 9.61498 109.853C9.04829 110.537 8.28428 110.955 7.32293 111.107C6.53278 111.232 5.79381 111.126 5.10603 110.79C4.41616 110.44 3.83745 109.897 3.3699 109.161C2.90236 108.425 2.58724 107.544 2.42455 106.517C2.29106 105.674 2.23801 104.913 2.26541 104.234C2.29282 103.554 2.40341 102.889 2.59718 102.237L5.65902 101.752C5.23678 103.007 5.11848 104.22 5.30412 105.392C5.40424 106.025 5.58989 106.515 5.86109 106.863C6.11703 107.201 6.43595 107.339 6.81786 107.279C7.19976 107.218 7.479 106.978 7.65555 106.559C7.83211 106.139 8.04317 105.384 8.28872 104.292C8.52253 103.296 8.78314 102.513 9.07053 101.941C9.35583 101.356 9.72334 100.906 10.1731 100.592C10.6228 100.277 11.223 100.061 11.9736 99.942C13.251 99.7397 14.3259 100.049 15.1983 100.869C16.0554 101.678 16.63 103.005 16.922 104.848Z" fill="white"/>
<path d="M16.3415 91.9561C16.3415 93.8361 15.9015 95.3161 15.0215 96.3961C14.1415 97.4628 12.8948 97.9961 11.2815 97.9961C9.69484 97.9961 8.4415 97.5228 7.5215 96.5761C6.6015 95.6161 6.1415 94.2361 6.1415 92.4361C6.1415 91.2894 6.3615 90.3094 6.8015 89.4961C7.22817 88.6694 7.8215 88.0494 8.5815 87.6361C9.32817 87.2094 10.1748 86.9961 11.1215 86.9961H12.4215L12.4215 94.6561C12.9548 94.5228 13.3415 94.1894 13.5815 93.6561C13.8215 93.1228 13.9415 92.3961 13.9415 91.4761C13.9415 90.8494 13.8882 90.2094 13.7815 89.5561C13.6748 88.8894 13.5282 88.3161 13.3415 87.8361H15.6615C15.8615 88.3294 16.0215 88.9494 16.1415 89.6961C16.2748 90.4294 16.3415 91.1828 16.3415 91.9561ZM10.2215 90.3161C9.7015 90.3694 9.29484 90.5828 9.0015 90.9561C8.70817 91.3294 8.5615 91.8428 8.5615 92.4961C8.5615 93.1361 8.71484 93.6428 9.0215 94.0161C9.31484 94.3894 9.71484 94.6028 10.2215 94.6561L10.2215 90.3161Z" fill="white"/>
<path d="M6.63513 81.8151L7.167 78.457L8.35223 78.6447C7.98922 78.2092 7.74896 77.6379 7.63146 76.9309C7.50079 76.2217 7.50012 75.4589 7.62944 74.6424L10.2962 75.0647C10.1585 75.9339 10.1616 76.7241 10.3055 77.4354C10.4514 78.1335 10.7547 78.6472 11.2155 78.9767L16.6676 79.8402L16.1169 83.3169L6.63513 81.8151Z" fill="white"/>
<path d="M8.59574 70.924L9.68348 67.5763L15.664 67.2273L11.0246 63.4487L12.1124 60.101L20.0002 66.8908L18.9681 70.0674L8.59574 70.924Z" fill="white"/>
<path d="M14.2585 52.8335C14.0164 53.3087 13.6592 53.628 13.1869 53.7914C12.7145 53.9548 12.2408 53.9154 11.7656 53.6732C11.3023 53.4372 10.9979 53.0801 10.8524 52.6019C10.6951 52.1177 10.7375 51.638 10.9796 51.1628C11.2157 50.6995 11.5758 50.3892 12.06 50.2318C12.5384 50.0566 13.0093 50.087 13.4726 50.3231C13.9359 50.5591 14.2432 50.9252 14.3945 51.4213C14.5399 51.8994 14.4946 52.3702 14.2585 52.8335ZM14.6 54.9828L16.198 51.8464L24.7517 56.2047L23.1537 59.3411L14.6 54.9828Z" fill="white"/>
<path d="M31.1929 46.7142C30.1584 48.1381 28.9834 49.0067 27.668 49.32C26.3526 49.6334 25.0369 49.312 23.7209 48.3558C22.4049 47.3997 21.6873 46.2438 21.568 44.8881C21.4566 43.5216 21.9182 42.1265 22.9527 40.7026C23.415 40.0662 23.9108 39.5199 24.4399 39.0638C24.9661 38.5891 25.4757 38.2507 25.9687 38.0485L28.1854 39.659C27.2327 39.9722 26.3645 40.6681 25.5808 41.7468C25.0792 42.4372 24.8374 43.1103 24.8554 43.7661C24.8704 44.4033 25.2015 44.957 25.8487 45.4272C26.5067 45.9053 27.141 46.053 27.7517 45.8703C28.3515 45.6799 28.9022 45.2395 29.4038 44.5491C30.164 43.5028 30.5742 42.4164 30.6345 41.2901L32.835 42.8888C32.7356 44.0691 32.1882 45.3443 31.1929 46.7142Z" fill="white"/>
<path d="M38.6191 38.2336C37.2898 39.5629 35.9321 40.2983 34.5462 40.4397C33.1697 40.5717 31.9111 40.0673 30.7703 38.9265C29.6483 37.8046 29.0968 36.5836 29.1156 35.2637C29.1439 33.9344 29.7944 32.6333 31.0672 31.3605C31.8781 30.5497 32.7266 30.0123 33.6128 29.7483C34.4991 29.4654 35.357 29.4466 36.1867 29.6917C37.0164 29.918 37.7659 30.3658 38.4353 31.0352L39.3545 31.9545L33.9381 37.3709C34.4095 37.6537 34.9186 37.6914 35.4654 37.484C36.0123 37.2766 36.611 36.8476 37.2615 36.1971C37.7046 35.754 38.1195 35.2637 38.506 34.7263C38.902 34.1795 39.2037 33.6704 39.4111 33.199L41.0516 34.8395C40.8442 35.3297 40.5189 35.8813 40.0758 36.4941C39.6515 37.1069 39.166 37.6867 38.6191 38.2336ZM35.4513 32.7464C35.0459 32.4164 34.6075 32.2797 34.1361 32.3363C33.6647 32.3929 33.198 32.6521 32.736 33.1141C32.2835 33.5667 32.0336 34.0334 31.9865 34.5142C31.9299 34.9856 32.0619 35.4193 32.3825 35.8153L35.4513 32.7464Z" fill="white"/>
<path d="M47.6135 30.6446C46.9878 31.0992 46.2882 31.5086 45.5146 31.8729C44.7488 32.248 44.0841 32.4672 43.5204 32.5307L42.0039 30.4434C42.6342 30.381 43.3195 30.2127 44.0598 29.9386C44.803 29.6458 45.4335 29.3114 45.9512 28.9352C46.3288 28.6609 46.5843 28.4341 46.7177 28.2547C46.8511 28.0754 46.859 27.9048 46.7414 27.743C46.6474 27.6136 46.5136 27.5542 46.3401 27.5649C46.1695 27.557 45.9019 27.6196 45.5372 27.7527C45.1754 27.8673 44.7611 28.0117 44.2944 28.1859C43.4954 28.4698 42.8326 28.6465 42.3062 28.7158C41.7797 28.7852 41.3112 28.73 40.9005 28.5504C40.4899 28.3709 40.1121 28.0437 39.7673 27.5691C39.156 26.7277 39.0304 25.8631 39.3906 24.9751C39.7538 24.0685 40.5124 23.1959 41.6666 22.3574C42.2275 21.9498 42.8585 21.582 43.5596 21.254C44.2714 20.9181 44.8543 20.7336 45.3082 20.7005L46.8012 22.7554C46.3208 22.7747 45.76 22.9102 45.1188 23.1619C44.4884 23.4057 43.9412 23.696 43.4774 24.033C43.1106 24.2995 42.8522 24.5449 42.7021 24.7694C42.5442 24.983 42.5279 25.1761 42.6533 25.3487C42.7709 25.5105 42.9635 25.5601 43.2311 25.4975C43.4988 25.4349 43.9439 25.2763 44.5665 25.0217C44.9744 24.8572 45.1474 24.7892 45.0857 24.8176C45.9093 24.4994 46.5921 24.3164 47.1342 24.2686C47.6764 24.2208 48.1366 24.2985 48.5149 24.5016C48.8961 24.6861 49.2591 25.0156 49.604 25.4902C50.1447 26.2345 50.2522 27.0629 49.9263 27.9754C49.6033 28.8693 48.8324 29.759 47.6135 30.6446Z" fill="white"/>
<path d="M63.1654 13.6259L69.937 11.4257L70.8022 14.0886L64.0307 16.2888L63.1654 13.6259Z" fill="white"/>
<path d="M85.2095 2.02L88.9895 2.02L92.5495 11.32L96.1095 2.02L99.8695 2.02L94.2895 16L90.8095 16L85.2095 2.02Z" fill="white"/>
<path d="M105.782 6.19518C105.255 6.11174 104.841 5.87067 104.54 5.47196C104.239 5.07324 104.13 4.6105 104.213 4.08373C104.295 3.57014 104.54 3.1703 104.95 2.88421C105.362 2.58496 105.831 2.47705 106.358 2.56048C106.872 2.64183 107.278 2.88844 107.577 3.30033C107.892 3.70113 108.008 4.15833 107.927 4.67193C107.846 5.18552 107.592 5.59091 107.167 5.88807C106.758 6.17415 106.296 6.27652 105.782 6.19518ZM103.844 7.18409L107.32 7.73474L105.819 17.2166L102.342 16.6659L103.844 7.18409Z" fill="white"/>
<path d="M116.181 20.1978C114.393 19.6168 113.121 18.741 112.366 17.5703C111.623 16.4038 111.501 15.0533 112 13.519C112.49 12.01 113.328 10.9642 114.512 10.3818C115.71 9.80348 117.164 9.79244 118.876 10.3487C119.967 10.703 120.831 11.2151 121.468 11.8849C122.123 12.5461 122.529 13.302 122.687 14.1525C122.862 14.9945 122.803 15.8656 122.511 16.766L122.109 18.0024L114.824 15.6353C114.786 16.1837 114.984 16.6545 115.417 17.0475C115.85 17.4406 116.504 17.7793 117.379 18.0636C117.975 18.2572 118.6 18.4043 119.254 18.5047C119.921 18.6093 120.512 18.647 121.026 18.6178L120.309 20.8242C119.778 20.862 119.139 20.8225 118.392 20.7059C117.653 20.6061 116.916 20.4367 116.181 20.1978ZM119.631 14.8841C119.741 14.3731 119.664 13.9204 119.4 13.526C119.135 13.1317 118.692 12.8336 118.071 12.6317C117.462 12.4339 116.933 12.4232 116.483 12.5995C116.038 12.7631 115.711 13.0776 115.504 13.543L119.631 14.8841Z" fill="white"/>
<path d="M124.063 12.1453L127.199 13.7434L126.074 19.3431L129.943 15.1417L132.474 16.431L131.349 22.0307L135.218 17.8293L138.355 19.4273L131.127 26.5192L128.312 25.0845L129.302 19.5286L125.389 23.5955L122.573 22.1608L124.063 12.1453Z" fill="white"/>
<path d="M154.87 27.2962L157.331 29.7569L151.391 43.5879L148.832 41.0282L150.076 38.1998L146.428 34.5511L143.599 35.7956L141.025 33.2217L154.87 27.2962ZM151.377 35.6542L153.499 31.1287L148.959 33.2359L151.377 35.6542Z" fill="white"/>
<path d="M164.931 37.4262L167 40.2739L155.043 48.9614L152.974 46.1137L164.931 37.4262Z" fill="white"/>
<path d="M172.65 49.495L174.248 52.6314L161.079 59.3414L159.481 56.205L172.65 49.495Z" fill="white"/>
<path d="M167.31 80.1517C167.172 79.2825 167.121 78.4064 167.157 77.5233C167.18 76.6423 167.292 75.9023 167.494 75.3033L170.635 74.8058C170.379 75.5753 170.219 76.3566 170.156 77.1496C170.094 77.9558 170.119 78.7079 170.229 79.4059C170.332 80.0511 170.508 80.5228 170.757 80.8207C171.007 81.1186 171.316 81.2384 171.685 81.18C171.961 81.1362 172.184 81.0065 172.352 80.7908C172.536 80.5863 172.686 80.2992 172.803 79.9297C172.92 79.5602 173.073 78.9893 173.261 78.217C173.598 76.8541 174.051 75.8308 174.617 75.147C175.184 74.4633 175.948 74.0453 176.909 73.893C177.699 73.7679 178.438 73.8736 179.126 74.2101C179.816 74.5598 180.395 75.1027 180.862 75.8386C181.33 76.5745 181.645 77.4561 181.808 78.4833C181.941 79.3261 181.994 80.0872 181.967 80.7665C181.939 81.4458 181.829 82.1113 181.635 82.763L178.573 83.2479C178.995 81.9931 179.114 80.7796 178.928 79.6076C178.828 78.9754 178.642 78.4851 178.371 78.1366C178.115 77.7991 177.796 77.6607 177.414 77.7211C177.032 77.7816 176.753 78.0216 176.577 78.4411C176.4 78.8605 176.189 79.6162 175.943 80.708C175.71 81.7035 175.449 82.4873 175.162 83.0593C174.876 83.6444 174.509 84.0941 174.059 84.4083C173.609 84.7226 173.009 84.9391 172.259 85.058C170.981 85.2603 169.906 84.9513 169.034 84.1311C168.177 83.3218 167.602 81.9954 167.31 80.1517Z" fill="white"/>
<path d="M167.742 93.0439C167.742 91.1639 168.182 89.6839 169.062 88.6039C169.942 87.5372 171.188 87.0039 172.802 87.0039C174.388 87.0039 175.642 87.4772 176.562 88.4239C177.482 89.3839 177.942 90.7639 177.942 92.5639C177.942 93.7106 177.722 94.6906 177.282 95.5039C176.855 96.3306 176.262 96.9506 175.502 97.3639C174.755 97.7906 173.908 98.0039 172.962 98.0039H171.662V90.3439C171.128 90.4772 170.742 90.8106 170.502 91.3439C170.262 91.8772 170.142 92.6039 170.142 93.5239C170.142 94.1506 170.195 94.7906 170.302 95.4439C170.408 96.1106 170.555 96.6839 170.742 97.1639H168.422C168.222 96.6706 168.062 96.0506 167.942 95.3039C167.808 94.5706 167.742 93.8172 167.742 93.0439ZM173.862 94.6839C174.382 94.6306 174.788 94.4172 175.082 94.0439C175.375 93.6706 175.522 93.1572 175.522 92.5039C175.522 91.8639 175.368 91.3572 175.062 90.9839C174.768 90.6106 174.368 90.3972 173.862 90.3439V94.6839Z" fill="white"/>
<path d="M177.597 103.185L177.065 106.543L175.88 106.355C176.243 106.791 176.483 107.362 176.601 108.069C176.732 108.778 176.732 109.541 176.603 110.358L173.936 109.935C174.074 109.066 174.071 108.276 173.927 107.565C173.781 106.867 173.478 106.353 173.017 106.023L167.565 105.16L168.115 101.683L177.597 103.185Z" fill="white"/>
<path d="M175.637 114.076L174.549 117.424L168.568 117.773L173.208 121.551L172.12 124.899L164.232 118.109L165.264 114.933L175.637 114.076Z" fill="white"/>
<path d="M169.974 132.167C170.216 131.692 170.573 131.372 171.045 131.209C171.518 131.046 171.992 131.085 172.467 131.327C172.93 131.563 173.234 131.92 173.38 132.399C173.537 132.883 173.495 133.362 173.253 133.838C173.017 134.301 172.656 134.611 172.172 134.769C171.694 134.944 171.223 134.914 170.76 134.677C170.296 134.441 169.989 134.075 169.838 133.579C169.692 133.101 169.738 132.63 169.974 132.167ZM169.632 130.018L168.034 133.154L159.481 128.796L161.079 125.659L169.632 130.018Z" fill="white"/>
<path d="M153.039 138.286C154.074 136.862 155.249 135.993 156.564 135.68C157.88 135.367 159.195 135.688 160.511 136.644C161.827 137.6 162.545 138.756 162.664 140.112C162.776 141.478 162.314 142.874 161.28 144.297C160.817 144.934 160.321 145.48 159.792 145.936C159.266 146.411 158.756 146.749 158.263 146.951L156.047 145.341C156.999 145.028 157.868 144.332 158.651 143.253C159.153 142.563 159.395 141.89 159.377 141.234C159.362 140.597 159.031 140.043 158.383 139.573C157.725 139.095 157.091 138.947 156.481 139.13C155.881 139.32 155.33 139.761 154.828 140.451C154.068 141.497 153.658 142.584 153.598 143.71L151.397 142.111C151.497 140.931 152.044 139.656 153.039 138.286Z" fill="white"/>
<path d="M145.613 146.766C146.942 145.437 148.3 144.702 149.686 144.56C151.062 144.428 152.321 144.933 153.462 146.073C154.584 147.195 155.135 148.416 155.117 149.736C155.088 151.066 154.438 152.367 153.165 153.64C152.354 154.45 151.506 154.988 150.619 155.252C149.733 155.535 148.875 155.553 148.045 155.308C147.216 155.082 146.466 154.634 145.797 153.965L144.878 153.046L150.294 147.629C149.823 147.346 149.314 147.309 148.767 147.516C148.22 147.723 147.621 148.152 146.971 148.803C146.528 149.246 146.113 149.736 145.726 150.274C145.33 150.821 145.028 151.33 144.821 151.801L143.181 150.161C143.388 149.67 143.713 149.119 144.156 148.506C144.581 147.893 145.066 147.313 145.613 146.766ZM148.781 152.254C149.186 152.584 149.625 152.72 150.096 152.664C150.567 152.607 151.034 152.348 151.496 151.886C151.949 151.433 152.199 150.967 152.246 150.486C152.302 150.014 152.17 149.581 151.85 149.185L148.781 152.254Z" fill="white"/>
<path d="M136.619 154.355C137.244 153.901 137.944 153.491 138.718 153.127C139.483 152.752 140.148 152.533 140.712 152.469L142.228 154.557C141.598 154.619 140.913 154.787 140.172 155.061C139.429 155.354 138.799 155.689 138.281 156.065C137.903 156.339 137.648 156.566 137.515 156.745C137.381 156.925 137.373 157.095 137.491 157.257C137.585 157.386 137.719 157.446 137.892 157.435C138.063 157.443 138.33 157.38 138.695 157.247C139.057 157.133 139.471 156.988 139.938 156.814C140.737 156.53 141.4 156.354 141.926 156.284C142.452 156.215 142.921 156.27 143.332 156.45C143.742 156.629 144.12 156.956 144.465 157.431C145.076 158.272 145.202 159.137 144.842 160.025C144.478 160.931 143.72 161.804 142.566 162.643C142.005 163.05 141.374 163.418 140.673 163.746C139.961 164.082 139.378 164.266 138.924 164.3L137.431 162.245C137.911 162.225 138.472 162.09 139.113 161.838C139.744 161.594 140.291 161.304 140.755 160.967C141.122 160.7 141.38 160.455 141.53 160.231C141.688 160.017 141.704 159.824 141.579 159.651C141.461 159.49 141.269 159.44 141.001 159.503C140.733 159.565 140.288 159.724 139.666 159.978C139.258 160.143 139.085 160.211 139.147 160.182C138.323 160.501 137.64 160.684 137.098 160.731C136.556 160.779 136.096 160.702 135.717 160.498C135.336 160.314 134.973 159.984 134.628 159.51C134.087 158.765 133.98 157.937 134.306 157.025C134.629 156.131 135.4 155.241 136.619 154.355Z" fill="white"/>
<path d="M121.067 171.374L114.295 173.574L113.43 170.911L120.202 168.711L121.067 171.374Z" fill="white"/>
</svg>
