<svg width="214" height="213" viewBox="0 0 214 213" fill="none" xmlns="http://www.w3.org/2000/svg">
<path d="M102.78 197.813L93.3581 196.965L93.5463 194.873L100.438 195.493L100.783 191.669L95.6634 191.208L95.8516 189.117L100.971 189.577L101.315 185.753L94.423 185.133L94.6112 183.041L104.033 183.889L102.78 197.813Z" fill="#555555"/>
<path d="M85.9482 186.104L88.4015 191.574L85.7024 190.829L84.1518 187.351L81.0368 189.542L78.3377 188.797L83.2491 185.36L80.6218 179.468L83.3016 180.208L85.051 184.093L88.5455 181.655L91.2254 182.395L85.9482 186.104Z" fill="#555555"/>
<path d="M74.0255 187.161L71.8271 186.102L72.3304 185.057C71.6479 185.276 70.9782 185.361 70.3215 185.311C69.6648 185.261 68.982 185.065 68.2733 184.724C67.3963 184.302 66.708 183.733 66.2084 183.019C65.691 182.311 65.4079 181.516 65.359 180.634C65.2923 179.759 65.4788 178.865 65.9185 177.952C66.3524 177.051 66.9353 176.347 67.6673 175.841C68.3872 175.33 69.191 175.043 70.0787 174.983C70.9485 174.928 71.8219 175.112 72.6989 175.534C73.3596 175.852 73.9409 176.243 74.4427 176.707C74.9268 177.177 75.2834 177.696 75.5125 178.265L77.8207 173.472L80.0912 174.566L74.0255 187.161ZM72.3984 177.587C71.5815 177.194 70.7815 177.134 69.9984 177.408C69.2153 177.682 68.6241 178.233 68.225 179.062C67.8258 179.891 67.7661 180.691 68.0459 181.462C68.3257 182.233 68.8741 182.816 69.691 183.209C70.3397 183.521 71.0002 183.625 71.6725 183.52C72.3448 183.414 72.9248 183.116 73.4125 182.626L74.2542 180.878C74.3455 180.197 74.2256 179.555 73.8946 178.951C73.5458 178.354 73.0471 177.899 72.3984 177.587Z" fill="#555555"/>
<path d="M53.6559 181.702L51.6172 180.221L60.3047 168.263L62.3434 169.745L53.6559 181.702Z" fill="#555555"/>
<path d="M51.0482 159.629C51.8222 160.439 52.3595 161.29 52.6601 162.183C52.9418 163.076 52.9693 163.954 52.7425 164.816C52.506 165.688 52.0071 166.488 51.2457 167.216C50.5037 167.925 49.7013 168.379 48.8387 168.576C47.9573 168.773 47.0723 168.706 46.1839 168.375C45.2858 168.053 44.4497 167.487 43.6757 166.678C42.9017 165.868 42.3787 165.013 42.1066 164.111C41.8156 163.208 41.7884 162.321 42.0249 161.449C42.2517 160.587 42.7361 159.801 43.4782 159.091C44.2395 158.363 45.0609 157.901 45.9424 157.704C46.8142 157.516 47.6944 157.587 48.5828 157.919C49.4524 158.249 50.2742 158.819 51.0482 159.629ZM49.6171 160.997C48.9813 160.332 48.2673 160 47.4752 160.001C46.6733 160.012 45.9399 160.335 45.275 160.971C44.5714 161.643 44.211 162.366 44.1937 163.139C44.1575 163.911 44.4619 164.635 45.1069 165.31C45.7518 165.984 46.4656 166.325 47.2482 166.334C48.0119 166.341 48.7455 166.009 49.449 165.336C50.114 164.7 50.4696 163.982 50.5158 163.182C50.5525 162.39 50.2529 161.662 49.6171 160.997Z" fill="#555555"/>
<path d="M35.4942 156.293L34.15 154.256L35.4352 153.408C34.7882 153.372 34.1644 153.129 33.5636 152.678C32.9556 152.217 32.3981 151.602 31.8913 150.835L33.4937 149.777C34.0299 150.589 34.6243 151.211 35.2768 151.643C35.911 152.072 36.5722 152.226 37.2606 152.107L42.1178 148.901L43.5061 151.004L35.4942 156.293Z" fill="#555555"/>
<path d="M35.4653 135.723C36.1675 137.366 36.3122 138.841 35.8995 140.149C35.4868 141.456 34.5449 142.424 33.0736 143.053C31.6269 143.671 30.2998 143.738 29.0922 143.254C27.8847 142.77 26.9455 141.743 26.2747 140.173C25.8346 139.143 25.656 138.183 25.7392 137.292C25.8171 136.389 26.1207 135.606 26.6501 134.945C27.1672 134.289 27.861 133.775 28.7315 133.403L29.7982 132.947L33.0131 140.469C34.2568 139.749 34.4254 138.328 33.5188 136.207C33.2778 135.643 32.9824 135.088 32.6328 134.541C32.2832 133.995 31.9283 133.537 31.568 133.169L33.3518 132.407C33.7017 132.75 34.0732 133.23 34.4665 133.844C34.8546 134.447 35.1875 135.073 35.4653 135.723ZM29.152 135.812C28.4636 136.135 28.0316 136.617 27.8559 137.257C27.6749 137.886 27.76 138.61 28.1111 139.432C28.457 140.241 28.9257 140.795 29.5171 141.093C30.1086 141.391 30.7467 141.408 31.4315 141.145L29.152 135.812Z" fill="#555555"/>
<path d="M29.6751 109.612C29.7636 111.583 29.3178 113.098 28.3376 114.156C27.3436 115.202 25.9674 115.764 24.2092 115.843L15.6778 116.226L15.5638 113.689L24.1352 113.304C25.2407 113.254 26.0728 112.91 26.6313 112.271C27.176 111.619 27.4247 110.767 27.3774 109.715C27.3307 108.676 27.0073 107.863 26.407 107.276C25.7928 106.676 24.9329 106.401 23.8274 106.451L15.256 106.836L15.1421 104.298L23.6735 103.915C25.4317 103.836 26.8527 104.273 27.9365 105.225C29.007 106.178 29.5866 107.64 29.6751 109.612Z" fill="#555555"/>
<path d="M30.3463 95.4037C30.2532 96.0908 30.0746 96.8134 29.8104 97.5714C29.5463 98.3295 29.246 98.9078 28.9094 99.3062L26.7888 99.0189C27.1757 98.5466 27.5166 97.9671 27.8114 97.2805C28.093 96.592 28.2768 95.9307 28.3627 95.2965C28.4486 94.6623 28.4584 94.1927 28.3921 93.8877C28.3126 93.5809 28.1208 93.4069 27.8169 93.3658C27.5791 93.3336 27.3768 93.3869 27.21 93.5258C27.0317 93.6496 26.8599 93.8753 26.6944 94.2027C26.5176 94.5151 26.2892 95.0089 26.0094 95.6841C25.6774 96.4465 25.3611 97.0427 25.0607 97.473C24.762 97.89 24.4182 98.1932 24.0292 98.3827C23.6288 98.5572 23.138 98.6051 22.5566 98.5264C21.6053 98.3975 20.9428 97.9243 20.5692 97.1067C20.1823 96.2874 20.0757 95.2369 20.2493 93.9553C20.3388 93.2947 20.4935 92.6496 20.7133 92.0201C20.9217 91.3755 21.1633 90.8835 21.438 90.544L23.4794 90.8205C23.1878 91.1847 22.9309 91.641 22.7086 92.1894C22.4863 92.7379 22.3349 93.3094 22.2544 93.904C22.1667 94.5514 22.1665 95.0492 22.2539 95.3974C22.3281 95.7438 22.5435 95.9412 22.9003 95.9895C23.1381 96.0218 23.3413 95.9618 23.5099 95.8098C23.6671 95.6427 23.8182 95.421 23.9633 95.1446C24.0952 94.8664 24.3121 94.3576 24.6141 93.6181C24.9497 92.8294 25.2809 92.2217 25.6078 91.795C25.9347 91.3684 26.2965 91.081 26.6933 90.9329C27.0901 90.7849 27.566 90.7484 28.1209 90.8236C28.9666 90.9381 29.5978 91.3936 30.0146 92.1901C30.4201 92.9716 30.5306 94.0428 30.3463 95.4037Z" fill="#555555"/>
<path d="M22.8709 69.0136L24.0461 66.8297L35.2811 67.561L28.4815 58.5874L29.6567 56.4035L41.9674 63.0282L40.8302 65.1416L32.8344 60.8389L38.8589 68.8049L38.2902 69.8616L28.3231 69.2222L36.3189 73.5249L35.1816 75.6383L22.8709 69.0136Z" fill="#555555"/>
<path d="M46.4844 57.893C45.7861 58.7687 45.0146 59.4154 44.1698 59.8332C43.3229 60.2322 42.4569 60.3772 41.5717 60.2682C40.6762 60.1509 39.8166 59.7639 38.9931 59.1071C38.1904 58.467 37.6333 57.7328 37.3217 56.9045C37.0081 56.0575 36.9557 55.1716 37.1646 54.2467C37.3631 53.3135 37.8114 52.4091 38.5098 51.5334C39.2081 50.6578 39.9859 50.0246 40.8432 49.6339C41.6984 49.2244 42.5738 49.0784 43.4694 49.1957C44.3545 49.3047 45.1984 49.6792 46.0011 50.3194C46.8246 50.9761 47.3932 51.728 47.7069 52.575C48.0101 53.4137 48.0573 54.2955 47.8484 55.2204C47.6374 56.1265 47.1827 57.0174 46.4844 57.893ZM44.9364 56.6585C45.51 55.9392 45.7431 55.1872 45.6357 54.4023C45.5179 53.6091 45.0993 52.9257 44.38 52.3521C43.619 51.7452 42.8544 51.4851 42.0862 51.5717C41.3158 51.6395 40.6397 52.0382 40.0578 52.768C39.4759 53.4977 39.2334 54.2508 39.3304 55.0274C39.4252 55.7852 39.8532 56.4675 40.6142 57.0744C41.3334 57.648 42.0928 57.904 42.8924 57.8424C43.6814 57.7724 44.3628 57.3778 44.9364 56.6585Z" fill="#555555"/>
<path d="M47.7025 42.032L49.54 40.4266L50.5533 41.5864C50.5023 40.9404 50.6596 40.2895 51.0251 39.6338C51.4006 38.9693 51.9348 38.3344 52.6276 37.7291L53.8909 39.175C53.1579 39.8154 52.6212 40.4879 52.2807 41.1926C51.9415 41.8784 51.8771 42.5544 52.0873 43.2206L55.9165 47.6035L54.0188 49.2615L47.7025 42.032Z" fill="#555555"/>
<path d="M68.0819 39.2426C66.5481 40.159 65.1057 40.5004 63.7548 40.267C62.4038 40.0335 61.318 39.23 60.4973 37.8565C59.6904 36.5059 59.4459 35.1997 59.7638 33.9381C60.0817 32.6765 60.9732 31.608 62.4382 30.7326C63.3997 30.1582 64.3275 29.8523 65.2217 29.8151C66.1273 29.7711 66.9432 29.967 67.6696 30.4028C68.3891 30.8272 68.9916 31.4457 69.4771 32.2583L70.0721 33.2541L63.05 37.4497C63.9305 38.5855 65.3609 38.5618 67.341 37.3788C67.8675 37.0642 68.3782 36.697 68.8729 36.2771C69.3676 35.8573 69.7731 35.4442 70.0894 35.0378L71.0844 36.7032C70.791 37.0959 70.366 37.5284 69.8095 38.0007C69.2644 38.4662 68.6885 38.8802 68.0819 39.2426ZM67.1468 32.9983C66.7341 32.3596 66.1986 31.9961 65.5402 31.908C64.8932 31.8131 64.1863 31.9947 63.4194 32.4529C62.664 32.9042 62.1782 33.443 61.9621 34.0691C61.746 34.6952 61.8146 35.3299 62.1678 35.9731L67.1468 32.9983Z" fill="#555555"/>
<path d="M89.0029 23.3387L95.5362 22.1531L95.8969 24.1406L89.3636 25.3262L89.0029 23.3387Z" fill="#555555"/>
<path d="M119.398 15.2324L128.706 16.9215L128.331 18.9878L121.522 17.7522L120.837 21.5305L125.894 22.4482L125.519 24.5145L120.462 23.5967L119.776 27.375L126.585 28.6106L126.21 30.6769L116.902 28.9877L119.398 15.2324Z" fill="#555555"/>
<path d="M135.112 28.4024L133.159 22.7348L135.781 23.7186L137.013 27.3215L140.312 25.4193L142.934 26.4031L137.734 29.3863L139.823 35.4894L137.22 34.5125L135.826 30.486L132.127 32.6011L129.524 31.6242L135.112 28.4024Z" fill="#555555"/>
<path d="M147.082 28.4184L149.177 29.6699L148.582 30.6657C149.281 30.5089 149.956 30.4847 150.605 30.5933C151.255 30.7018 151.917 30.9579 152.593 31.3613C153.428 31.8606 154.063 32.4882 154.497 33.2443C154.948 33.9957 155.159 34.8128 155.129 35.6955C155.117 36.5736 154.851 37.4476 154.331 38.3175C153.818 39.176 153.175 39.8243 152.4 40.2625C151.637 40.7075 150.811 40.9206 149.921 40.9016C149.05 40.8781 148.197 40.6167 147.361 40.1175C146.732 39.7414 146.188 39.2999 145.73 38.7931C145.29 38.2818 144.981 37.7324 144.804 37.1451L142.075 41.712L139.912 40.4195L147.082 28.4184ZM147.845 38.0998C148.623 38.5648 149.414 38.696 150.219 38.4932C151.023 38.2905 151.662 37.7943 152.133 37.0045C152.605 36.2147 152.736 35.4233 152.527 34.6302C152.317 33.8371 151.823 33.2081 151.045 32.7431C150.427 32.3738 149.778 32.2115 149.099 32.2562C148.42 32.3009 147.816 32.5456 147.286 32.9902L146.291 34.6556C146.139 35.3258 146.201 35.9763 146.477 36.6069C146.77 37.2329 147.226 37.7305 147.845 38.0998Z" fill="#555555"/>
<path d="M166.88 35.6815L168.778 37.3395L159.054 48.4699L157.156 46.8119L166.88 35.6815Z" fill="#555555"/>
<path d="M167.499 57.8993C166.801 57.0237 166.342 56.1276 166.123 55.211C165.922 54.2966 165.973 53.42 166.276 52.5813C166.59 51.7343 167.159 50.9824 167.982 50.3256C168.785 49.6855 169.625 49.3057 170.502 49.1863C171.397 49.069 172.273 49.2151 173.128 49.6245C173.993 50.0257 174.775 50.6641 175.474 51.5397C176.172 52.4154 176.616 53.3146 176.806 54.2373C177.015 55.1622 176.963 56.0482 176.649 56.8952C176.346 57.7339 175.793 58.4733 174.99 59.1134C174.167 59.7702 173.307 60.1572 172.412 60.2745C171.526 60.3835 170.656 60.2333 169.801 59.8238C168.965 59.4165 168.197 58.775 167.499 57.8993ZM169.047 56.6648C169.621 57.3841 170.302 57.7787 171.091 57.8486C171.891 57.9103 172.65 57.6543 173.369 57.0807C174.13 56.4738 174.554 55.7862 174.641 55.018C174.746 54.2519 174.508 53.5039 173.926 52.7742C173.344 52.0445 172.663 51.6405 171.885 51.5623C171.125 51.4862 170.364 51.7515 169.603 52.3584C168.884 52.932 168.465 53.6154 168.348 54.4086C168.24 55.1934 168.473 55.9455 169.047 56.6648Z" fill="#555555"/>
<path d="M182.691 62.6162L183.847 64.7649L182.491 65.4946C183.132 65.5887 183.732 65.8869 184.29 66.3891C184.854 66.9031 185.354 67.5652 185.79 68.3753L184.1 69.2852C183.638 68.428 183.102 67.7551 182.491 67.2664C181.898 66.7831 181.253 66.5699 180.557 66.6266L175.432 69.3845L174.237 67.1654L182.691 62.6162Z" fill="#555555"/>
<path d="M180.876 83.1056C180.324 81.4063 180.312 79.9241 180.84 78.659C181.369 77.3938 182.394 76.514 183.915 76.0196C185.412 75.5334 186.74 75.5857 187.899 76.1764C189.058 76.767 189.901 77.8739 190.429 79.4971C190.775 80.5623 190.867 81.5349 190.704 82.4149C190.545 83.3076 190.173 84.0595 189.586 84.6706C189.012 85.2777 188.275 85.7275 187.375 86.02L186.272 86.3785L183.744 78.5988C182.441 79.2045 182.145 80.6043 182.858 82.798C183.048 83.3814 183.292 83.9609 183.591 84.5366C183.891 85.1123 184.203 85.5996 184.529 85.9984L182.684 86.5979C182.366 86.2244 182.039 85.7138 181.703 85.0662C181.37 84.4312 181.095 83.7776 180.876 83.1056ZM187.172 83.5834C187.887 83.3232 188.36 82.882 188.593 82.2597C188.829 81.6501 188.809 80.9205 188.533 80.0709C188.261 79.234 187.844 78.6405 187.282 78.2905C186.72 77.9404 186.086 77.8661 185.38 78.0673L187.172 83.5834Z" fill="#555555"/>
<path d="M184.302 109.631C184.391 107.66 184.971 106.191 186.042 105.225C187.126 104.273 188.547 103.836 190.305 103.915L198.836 104.298L198.722 106.835L190.151 106.45C189.045 106.401 188.186 106.669 187.572 107.256C186.971 107.856 186.647 108.682 186.6 109.734C186.553 110.773 186.803 111.612 187.348 112.251C187.906 112.903 188.738 113.254 189.843 113.304L198.414 113.689L198.301 116.226L189.769 115.843C188.011 115.764 186.635 115.202 185.641 114.156C184.66 113.111 184.214 111.603 184.302 109.631Z" fill="#555555"/>
<path d="M182.36 123.721C182.515 123.045 182.757 122.342 183.088 121.61C183.419 120.879 183.77 120.33 184.141 119.963L186.228 120.439C185.8 120.875 185.408 121.422 185.053 122.079C184.711 122.74 184.469 123.382 184.326 124.006C184.184 124.63 184.132 125.097 184.171 125.406C184.222 125.719 184.398 125.909 184.697 125.978C184.931 126.031 185.137 125.996 185.316 125.873C185.504 125.765 185.696 125.556 185.89 125.245C186.094 124.949 186.366 124.478 186.705 123.831C187.104 123.101 187.472 122.536 187.81 122.134C188.145 121.746 188.515 121.474 188.919 121.32C189.333 121.183 189.827 121.179 190.399 121.309C191.334 121.523 191.952 122.054 192.251 122.901C192.563 123.752 192.575 124.808 192.287 126.069C192.138 126.719 191.927 127.347 191.651 127.955C191.386 128.578 191.101 129.046 190.797 129.36L188.789 128.902C189.112 128.565 189.408 128.134 189.679 127.607C189.95 127.081 190.152 126.525 190.285 125.94C190.431 125.303 190.475 124.808 190.42 124.453C190.377 124.101 190.18 123.885 189.829 123.805C189.595 123.752 189.387 123.793 189.206 123.93C189.034 124.082 188.864 124.289 188.694 124.551C188.538 124.817 188.276 125.304 187.909 126.013C187.504 126.769 187.12 127.345 186.756 127.74C186.392 128.136 186.006 128.39 185.598 128.501C185.189 128.613 184.712 128.607 184.166 128.482C183.334 128.293 182.746 127.782 182.403 126.952C182.069 126.137 182.055 125.06 182.36 123.721Z" fill="#555555"/>
<path d="M187.44 150.676L186.074 152.745L174.949 151.01L180.917 160.557L179.551 162.627L167.884 154.925L169.206 152.922L176.784 157.924L171.498 149.45L172.159 148.449L182.028 149.979L174.45 144.977L175.773 142.974L187.44 150.676Z" fill="#555555"/>
<path d="M162.925 159.635C163.699 158.825 164.525 158.251 165.404 157.91C166.283 157.589 167.159 157.522 168.03 157.71C168.912 157.907 169.733 158.369 170.495 159.097C171.237 159.807 171.726 160.588 171.962 161.441C172.198 162.313 172.171 163.2 171.88 164.102C171.599 165.014 171.071 165.874 170.297 166.684C169.523 167.493 168.692 168.054 167.803 168.367C166.914 168.698 166.029 168.765 165.148 168.568C164.276 168.38 163.469 167.931 162.727 167.222C161.966 166.494 161.467 165.694 161.23 164.822C161.004 163.96 161.036 163.077 161.327 162.175C161.618 161.291 162.151 160.445 162.925 159.635ZM164.356 161.003C163.72 161.668 163.42 162.396 163.457 163.188C163.503 163.988 163.859 164.706 164.524 165.342C165.227 166.015 165.966 166.343 166.739 166.325C167.512 166.327 168.221 165.99 168.866 165.316C169.511 164.641 169.82 163.913 169.793 163.13C169.766 162.367 169.401 161.649 168.698 160.977C168.033 160.341 167.3 160.018 166.498 160.007C165.706 160.006 164.992 160.338 164.356 161.003Z" fill="#555555"/>
<path d="M160.29 175.323L158.316 176.757L157.411 175.511C157.403 176.159 157.188 176.793 156.766 177.413C156.332 178.042 155.743 178.626 154.999 179.167L153.87 177.613C154.658 177.041 155.252 176.42 155.655 175.748C156.054 175.096 156.179 174.428 156.029 173.746L152.608 169.037L154.647 167.556L160.29 175.323Z" fill="#555555"/>
<path d="M139.742 176.274C141.352 175.499 142.819 175.288 144.144 175.642C145.468 175.996 146.478 176.893 147.172 178.335C147.855 179.752 147.981 181.075 147.551 182.303C147.122 183.531 146.138 184.516 144.6 185.256C143.591 185.742 142.64 185.963 141.746 185.92C140.84 185.883 140.045 185.615 139.361 185.116C138.682 184.628 138.137 183.958 137.727 183.106L137.223 182.06L144.593 178.511C143.818 177.301 142.391 177.196 140.313 178.197C139.76 178.463 139.219 178.783 138.689 179.157C138.158 179.531 137.717 179.906 137.366 180.282L136.524 178.535C136.852 178.17 137.314 177.777 137.91 177.356C138.495 176.942 139.106 176.581 139.742 176.274ZM140.114 182.577C140.468 183.251 140.968 183.661 141.616 183.807C142.252 183.96 142.972 183.842 143.777 183.455C144.57 183.073 145.102 182.58 145.374 181.976C145.645 181.371 145.634 180.733 145.339 180.061L140.114 182.577Z" fill="#555555"/>
<path d="M117.48 190.239L110.867 190.834L110.685 188.822L117.299 188.227L117.48 190.239Z" fill="#555555"/>
</svg>
