<svg width="82" height="80" viewBox="0 0 82 80" fill="none" xmlns="http://www.w3.org/2000/svg">
<path d="M72.4555 51.0442V28.6848C75.1061 28.0556 77.0799 25.7214 77.0799 22.9446C77.0799 19.6864 74.3634 17.0357 71.0237 17.0357C69.2899 17.0357 67.7252 17.7514 66.6198 18.8948L46.6697 7.65771C46.8283 7.1306 46.9146 6.5738 46.9146 5.9974C46.9146 2.73953 44.1981 0.0888672 40.8585 0.0888672C37.5192 0.0888672 34.8023 2.73953 34.8023 5.9974C34.8023 6.5738 34.889 7.1306 35.0476 7.65771L15.0978 18.8946C13.9928 17.7513 12.4278 17.0357 10.6941 17.0357C7.35434 17.0357 4.63745 19.6864 4.63745 22.9446C4.63745 25.7212 6.61151 28.0554 9.26189 28.6848V51.0445C6.61151 51.6739 4.63745 54.0081 4.63745 56.7848C4.63745 60.0426 7.35434 62.6933 10.6941 62.6933C12.3526 62.6933 13.857 62.0391 14.952 60.9818L35.0476 72.3009C34.889 72.828 34.8023 73.3848 34.8023 73.9612C34.8023 77.2191 37.5192 79.8697 40.8585 79.8697C44.1981 79.8697 46.9146 77.2191 46.9146 73.9612C46.9146 73.3848 46.8283 72.828 46.6697 72.3009L66.7656 60.9814C67.8606 62.039 69.3651 62.6934 71.0237 62.6934C74.3635 62.6934 77.0799 60.0426 77.0799 56.7848C77.0799 54.0079 75.1061 51.6734 72.4555 51.0442ZM67.8539 57.1426C67.8402 57.025 67.8311 56.906 67.8311 56.7848C67.8311 55.57 68.5493 54.5178 69.5916 54.0046C70.0231 53.7921 70.5084 53.6698 71.0237 53.6698C71.5387 53.6698 72.0241 53.7921 72.4551 54.0044C73.4981 54.5175 74.2165 55.5695 74.2165 56.7848C74.2165 58.5024 72.7843 59.8996 71.0237 59.8996C70.4433 59.8996 69.9004 59.7453 69.431 59.4801C68.5769 58.9978 67.9716 58.1424 67.8539 57.1426ZM69.2336 20.3669C69.7446 20.028 70.3606 19.8294 71.0237 19.8294C72.7843 19.8294 74.2165 21.2268 74.2165 22.9446C74.2165 24.1597 73.4981 25.2116 72.4555 25.7249C72.0245 25.9371 71.5391 26.0594 71.0237 26.0594C70.5088 26.0594 70.0234 25.9371 69.5919 25.7246C68.5493 25.2115 67.8311 24.1596 67.8311 22.9446C67.8311 22.898 67.8362 22.8528 67.8382 22.8068C67.8841 21.7934 68.4247 20.9036 69.2336 20.3669ZM37.6658 5.9974C37.6658 4.2798 39.0979 2.88256 40.8584 2.88256C42.6189 2.88256 44.0511 4.2798 44.0511 5.9974C44.0511 6.0582 44.0455 6.11744 44.0419 6.17744C43.9823 7.18842 43.4295 8.0714 42.6117 8.59776C42.1079 8.92202 41.5059 9.11224 40.8584 9.11224C40.2113 9.11224 39.6093 8.92202 39.1055 8.59776C38.2878 8.0714 37.7349 7.18842 37.6753 6.17744C37.6717 6.11744 37.6658 6.0582 37.6658 5.9974ZM7.50094 22.9446C7.50094 21.2268 8.93329 19.8294 10.694 19.8294C11.357 19.8294 11.9732 20.0278 12.4841 20.3666C13.2931 20.9031 13.8338 21.7931 13.8795 22.8066C13.8817 22.8526 13.8867 22.898 13.8867 22.9446C13.8867 24.1598 13.1682 25.2117 12.1254 25.725C11.6941 25.937 11.209 26.0594 10.694 26.0594C10.1787 26.0594 9.69312 25.937 9.26184 25.7246C8.21917 25.2114 7.50094 24.1595 7.50094 22.9446ZM12.2866 59.4805C11.8172 59.7456 11.2743 59.8997 10.6941 59.8997C8.93334 59.8997 7.50098 58.5024 7.50098 56.7848C7.50098 55.5698 8.21926 54.5179 9.26189 54.0046C9.69316 53.7922 10.1787 53.6698 10.6941 53.6698C11.209 53.6698 11.6942 53.7922 12.1254 54.0042C13.1683 54.5175 13.8868 55.5696 13.8868 56.7848C13.8868 56.9062 13.8778 57.0252 13.864 57.143C13.7459 58.1429 13.1409 58.9982 12.2866 59.4805ZM44.0511 73.9612C44.0511 75.6788 42.6189 77.0761 40.8585 77.0761C39.098 77.0761 37.6658 75.6788 37.6658 73.9612C37.6658 73.9004 37.6718 73.841 37.6754 73.7812C37.7349 72.7704 38.2878 71.8872 39.1056 71.3606C39.6093 71.0364 40.2113 70.8462 40.8585 70.8462C41.506 70.8462 42.108 71.0364 42.6117 71.3606C43.4295 71.8872 43.9824 72.7704 44.042 73.7812C44.0455 73.841 44.0511 73.9004 44.0511 73.9612ZM45.2347 69.8832C44.1314 68.7565 42.5782 68.0525 40.8585 68.0525C39.1391 68.0525 37.5859 68.7566 36.4825 69.8832L16.4556 58.6028C16.6462 58.0298 16.7502 57.4191 16.7502 56.7848C16.7502 54.0079 14.776 51.6734 12.1254 51.0442V28.685C14.776 28.0558 16.7502 25.7214 16.7502 22.9446C16.7502 22.3818 16.6674 21.8378 16.5159 21.3215L36.4824 10.0752C37.5858 11.202 39.139 11.9058 40.8584 11.9058C42.5782 11.9058 44.1314 11.202 45.2347 10.0752L65.2016 21.3217C65.0506 21.8377 64.9675 22.3818 64.9675 22.9446C64.9675 25.7211 66.9417 28.0553 69.5919 28.6848L69.5915 51.0445C66.9413 51.6738 64.9675 54.008 64.9675 56.7847C64.9675 57.4189 65.0717 58.0294 65.2622 58.6024L45.2347 69.8832Z" fill="#5F5F5F"/>
<path d="M57.6094 33.2441L41.7405 21.1479C41.2228 20.7531 40.4954 20.7531 39.9777 21.1479L24.1088 33.2441C23.7613 33.5087 23.5583 33.9148 23.5583 34.3447C23.5583 44.7252 28.1333 50.8878 31.9711 54.2298C36.1402 57.8602 40.3033 59.0094 40.4783 59.0567C40.6029 59.0902 40.7311 59.107 40.859 59.107C40.9872 59.107 41.1154 59.0902 41.2396 59.0567C41.4149 59.0094 45.5776 57.8602 49.7466 54.2298C53.5846 50.8878 58.1595 44.7252 58.1595 34.3447C58.1595 33.9148 57.9565 33.5087 57.6094 33.2441ZM47.9346 52.0625C44.9433 54.6982 41.9039 55.8866 40.8566 56.243C39.8235 55.8946 36.8589 54.7412 33.8779 52.1455C29.08 47.9676 26.5757 42.2087 26.4286 35.0207L40.8589 24.0211L55.2892 35.0207C55.1434 42.1591 52.6709 47.8897 47.9346 52.0625Z" fill="#5F5F5F"/>
</svg>
