<svg width="80" height="80" viewBox="0 0 80 80" fill="none" xmlns="http://www.w3.org/2000/svg">
<path d="M60.5463 36.761C59.8651 36.6445 59.217 37.1023 59.0999 37.784L57.1531 49.1411C57.0363 49.8229 57.4943 50.4705 58.176 50.5875C58.2477 50.5997 58.3188 50.6054 58.3892 50.6054C58.9881 50.6054 59.5177 50.1745 59.6224 49.5645L61.5693 38.2075C61.6862 37.5257 61.2281 36.8782 60.5463 36.761Z" fill="#555555"/>
<path d="M63.8351 18.7825L55.7754 15.9925C55.1216 15.7664 54.4082 16.113 54.1821 16.7664C53.9557 17.42 54.3024 18.1333 54.956 18.3595L62.011 20.802L60.9321 27.0955C60.8154 27.7774 61.2733 28.4249 61.9551 28.5419C62.0268 28.5541 62.0979 28.5599 62.1682 28.5599C62.7671 28.5599 63.2968 28.1289 63.4015 27.5189L64.6599 20.1778C64.7635 19.5734 64.4144 18.983 63.8351 18.7825Z" fill="#555555"/>
<path d="M52.4342 14.8356L47.0891 12.9855C46.4351 12.7592 45.722 13.1058 45.4959 13.7594C45.2696 14.4131 45.6162 15.1264 46.2698 15.3527L51.6148 17.2028C51.7506 17.2497 51.8887 17.2722 52.0245 17.2722C52.5435 17.2722 53.0288 16.9472 53.2081 16.4289C53.4345 15.7753 53.0879 15.0617 52.4342 14.8356Z" fill="#555555"/>
<path d="M42.2628 34.9361C45.911 33.9398 48.6014 30.5987 48.6014 26.6389C48.6014 21.896 44.7428 18.0376 40.0001 18.0376C35.2574 18.0376 31.3988 21.896 31.3988 26.6389C31.3988 30.5986 34.0891 33.9398 37.7374 34.9361C31.4907 36.0136 26.7224 41.467 26.7224 48.0169V54.6975C26.7224 55.3894 27.2832 55.9502 27.9751 55.9502H52.0251C52.717 55.9502 53.2778 55.3895 53.2778 54.6975V48.0169C53.2776 41.467 48.5095 36.0137 42.2628 34.9361ZM33.904 26.639C33.904 23.2776 36.6387 20.5429 40.0001 20.5429C43.3615 20.5429 46.0962 23.2776 46.0962 26.639C46.0962 30.0004 43.3615 32.7351 40.0001 32.7351C36.6387 32.7351 33.904 30.0003 33.904 26.639ZM50.7725 53.4449H29.2276V48.0169C29.2276 42.077 34.0601 37.2444 40.0001 37.2444C45.9401 37.2444 50.7726 42.0769 50.7726 48.0169V53.4449H50.7725Z" fill="#555555"/>
<path d="M69.4918 15.4383L40.4094 5.37127C40.1442 5.27924 39.8553 5.27924 39.59 5.37127L10.5078 15.4383C9.92841 15.6388 9.57935 16.2293 9.6831 16.8336L16.6283 57.3475C16.6847 57.677 16.8706 57.9701 17.1445 58.162L39.2814 73.6578C39.4971 73.8086 39.7485 73.8841 39.9997 73.8841C40.2511 73.8841 40.5024 73.8086 40.718 73.6578L62.8552 58.162C63.1293 57.9703 63.3151 57.677 63.3716 57.3475L70.3168 16.8336C70.4204 16.2293 70.0713 15.6386 69.4918 15.4383ZM60.9909 56.409L39.9999 71.1025L19.0091 56.409L12.3317 17.4579L39.9999 7.88034L67.6679 17.4579L60.9909 56.409Z" fill="#555555"/>
<path d="M75.1487 12.094L40.4096 0.0690236C40.144 -0.0230079 39.8555 -0.0230079 39.5902 0.0690236L4.85107 12.094C4.2717 12.2945 3.92248 12.8848 4.02623 13.4894L12.043 60.2535C12.0994 60.5831 12.2853 60.8762 12.5592 61.0681L39.2816 79.7737C39.4972 79.9245 39.7486 80 39.9999 80C40.2513 80 40.5025 79.9245 40.7182 79.7737L67.4407 61.0681C67.7148 60.8763 67.9006 60.5831 67.9571 60.2535L75.9739 13.4894C76.0773 12.8848 75.7282 12.2945 75.1487 12.094ZM65.576 59.3152L39.9999 77.2186L14.4239 59.3152L6.67498 14.1137L39.9999 2.57809L73.3246 14.1136L65.576 59.3152Z" fill="#555555"/>
</svg>
