<svg width="67" height="81" viewBox="0 0 67 81" fill="none" xmlns="http://www.w3.org/2000/svg">
<path d="M65.255 10.9708L62.1013 10.8186C50.1025 10.2168 41.5475 7.43284 35.965 2.29984L33.5 0.0378418L31.035 2.29984C25.4525 7.43284 16.8975 10.2168 4.90241 10.8186L1.74866 10.9708L1.45866 14.1246C-0.622092 37.0056 1.35353 62.6343 31.7564 79.2187L33.5 80.1685L35.24 79.2187C65.6465 62.6343 67.6222 37.0056 65.545 14.121L65.255 10.9708ZM33.4928 76.0396C4.93141 60.4521 3.11166 36.1465 5.08366 14.44C17.9597 13.7947 27.2759 10.6953 33.5109 4.96784C39.7459 10.6953 49.0513 13.8056 61.9309 14.4472C63.9029 36.161 62.0542 60.4557 33.4928 76.036V76.0396ZM53.5173 25.4853L55.8264 27.7908L28.0625 55.0001L15.375 42.9977L17.6842 40.6922L28.0625 50.3855L53.5173 25.4853Z" fill="#555555"/>
</svg>
