<svg width="17" height="18" viewBox="0 0 17 18" fill="none" xmlns="http://www.w3.org/2000/svg">
<path d="M0.90081 14.9793C0.337106 15.5864 0.372257 16.5355 0.979323 17.0992C1.58639 17.6629 2.53549 17.6277 3.09919 17.0207L0.90081 14.9793ZM16.499 1.94448C16.4683 1.11662 15.7723 0.470366 14.9445 0.501028L1.45373 1.00069C0.625872 1.03135 -0.0203843 1.72732 0.0102772 2.55518C0.0409386 3.38303 0.736907 4.02929 1.56477 3.99863L13.5565 3.55449L14.0007 15.5463C14.0313 16.3741 14.7273 17.0204 15.5552 16.9897C16.383 16.9591 17.0293 16.2631 16.9986 15.4352L16.499 1.94448ZM3.09919 17.0207L16.0992 3.02068L13.9008 0.979323L0.90081 14.9793L3.09919 17.0207Z" fill="white"/>
</svg>
