<svg width="12" height="12" viewBox="0 0 12 12" fill="none" xmlns="http://www.w3.org/2000/svg">
<path d="M1.70711 0.292893C1.31658 -0.0976311 0.683417 -0.0976311 0.292893 0.292893C-0.0976311 0.683417 -0.0976311 1.31658 0.292893 1.70711L1.70711 0.292893ZM11 12C11.5523 12 12 11.5523 12 11V2C12 1.44771 11.5523 1 11 1C10.4477 1 10 1.44771 10 2V10H2C1.44771 10 1 10.4477 1 11C1 11.5523 1.44771 12 2 12H11ZM0.292893 1.70711L10.2929 11.7071L11.7071 10.2929L1.70711 0.292893L0.292893 1.70711Z" fill="white"/>
</svg>
