<svg width="20" height="24" viewBox="0 0 20 24" fill="none" xmlns="http://www.w3.org/2000/svg">
<path d="M19 10.0005C19 17.0005 10 23.0005 10 23.0005C10 23.0005 1 17.0005 1 10.0005C1 7.61354 1.94821 5.32435 3.63604 3.63653C5.32387 1.9487 7.61305 1.00049 10 1.00049C12.3869 1.00049 14.6761 1.9487 16.364 3.63653C18.0518 5.32435 19 7.61354 19 10.0005Z" stroke="white" stroke-width="2" stroke-linecap="round" stroke-linejoin="round"/>
<path d="M10 13.0005C11.6569 13.0005 13 11.6573 13 10.0005C13 8.34363 11.6569 7.00049 10 7.00049C8.34315 7.00049 7 8.34363 7 10.0005C7 11.6573 8.34315 13.0005 10 13.0005Z" stroke="white" stroke-width="2" stroke-linecap="round" stroke-linejoin="round"/>
</svg>
