<svg width="60" height="60" viewBox="0 0 60 60" fill="none" xmlns="http://www.w3.org/2000/svg">
<path d="M40.7056 18.3871C38.9516 7.58468 34.8145 0 30 0C25.1855 0 21.0484 7.58468 19.2944 18.3871H40.7056ZM18.3871 30C18.3871 32.6855 18.5323 35.2621 18.7863 37.7419H41.2016C41.4556 35.2621 41.6008 32.6855 41.6008 30C41.6008 27.3145 41.4556 24.7379 41.2016 22.2581H18.7863C18.5323 24.7379 18.3871 27.3145 18.3871 30ZM57.6653 18.3871C54.2056 10.1734 47.2016 3.82258 38.5524 1.25806C41.504 5.34677 43.5363 11.504 44.6008 18.3871H57.6653ZM21.4355 1.25806C12.7984 3.82258 5.78226 10.1734 2.33468 18.3871H15.3992C16.4516 11.504 18.4839 5.34677 21.4355 1.25806ZM58.9597 22.2581H45.0847C45.3387 24.7984 45.4839 27.3992 45.4839 30C45.4839 32.6008 45.3387 35.2016 45.0847 37.7419H58.9476C59.6129 35.2621 59.9879 32.6855 59.9879 30C59.9879 27.3145 59.6129 24.7379 58.9597 22.2581ZM14.5161 30C14.5161 27.3992 14.6613 24.7984 14.9153 22.2581H1.04032C0.387097 24.7379 0 27.3145 0 30C0 32.6855 0.387097 35.2621 1.04032 37.7419H14.9032C14.6613 35.2016 14.5161 32.6008 14.5161 30ZM19.2944 41.6129C21.0484 52.4153 25.1855 60 30 60C34.8145 60 38.9516 52.4153 40.7056 41.6129H19.2944ZM38.5645 58.7419C47.2016 56.1774 54.2177 49.8266 57.6774 41.6129H44.6129C43.5484 48.496 41.5161 54.6532 38.5645 58.7419ZM2.33468 41.6129C5.79435 49.8266 12.7984 56.1774 21.4476 58.7419C18.496 54.6532 16.4637 48.496 15.3992 41.6129H2.33468Z" fill="#C115EC"/>
</svg>
