<svg width="60" height="56" viewBox="0 0 60 56" fill="none" xmlns="http://www.w3.org/2000/svg">
<path fill-rule="evenodd" clip-rule="evenodd" d="M7.5 0H52.5C56.6421 0 60 3.35787 60 7.5V37.5C60 41.6421 56.6421 45 52.5 45H37.5V49.5H43.5C45.1569 49.5 46.5 50.8431 46.5 52.5C46.5 54.1569 45.1569 55.5 43.5 55.5H16.5C14.8432 55.5 13.5 54.1569 13.5 52.5C13.5 50.8431 14.8432 49.5 16.5 49.5H22.5V45H7.5C3.35787 45 0 41.6421 0 37.5V7.5C0 3.35787 3.35787 0 7.5 0ZM33 45V49.5H27V45H33ZM7.5 6C6.67158 6 6 6.67158 6 7.5V37.5C6 38.3283 6.67158 39 7.5 39H52.5C53.3283 39 54 38.3283 54 37.5V7.5C54 6.67158 53.3283 6 52.5 6H7.5ZM49.5 9H10.5C9.67158 9 9 9.67158 9 10.5V34.5C9 35.3283 9.67158 36 10.5 36H49.5C50.3283 36 51 35.3283 51 34.5V10.5C51 9.67158 50.3283 9 49.5 9Z" fill="#C115EC"/>
</svg>
