<svg width="47" height="55" viewBox="0 0 47 55" fill="none" xmlns="http://www.w3.org/2000/svg">
<path d="M3.375 17.75C2.4799 17.75 1.62145 18.1056 0.988515 18.7385C0.35558 19.3714 1.05553e-06 20.2299 1.05553e-06 21.125V35.375C-0.000437444 35.9397 0.135755 36.4961 0.396953 36.9967C0.658152 37.4973 1.0366 37.9273 1.5 38.25C2.0595 38.6037 2.71367 38.7782 3.375 38.75C3.90952 38.755 4.43757 38.6329 4.91567 38.3938C5.39378 38.1548 5.80826 37.8056 6.125 37.375L6.375 37L6.75 36.125V21.125C6.75 20.2299 6.39442 19.3714 5.76149 18.7385C5.12855 18.1056 4.27011 17.75 3.375 17.75Z" fill="#C115EC"/>
<path d="M30.75 5L33.125 0.75C33.125 0.625 33.25 0.625 33.25 0.5C33.2159 0.312956 33.1292 0.139512 33 0H32.375L29.875 4.375C29.2192 3.99573 28.4986 3.74142 27.75 3.625C26.2847 3.21627 24.7712 3.00606 23.25 3H21C19.4899 3.20779 18.0169 3.62864 16.625 4.25L14.25 0.25C14.1918 0.172378 14.1163 0.109375 14.0295 0.0659829C13.9427 0.0225906 13.847 0 13.75 0H13.5C13.4548 0.0507295 13.4204 0.110147 13.3989 0.174623C13.3774 0.239099 13.3693 0.30728 13.375 0.375V0.625L15.75 5C13.5347 6.1349 11.6426 7.81196 10.25 9.875L9.625 10.875L8.875 12.625C8.27409 14.048 7.9761 15.5805 8 17.125H38.5C38.4402 14.5885 37.6862 12.117 36.3197 9.97926C34.9533 7.84149 33.0269 6.1193 30.75 5ZM16.375 11.75C16.1944 11.75 16.0156 11.7144 15.8488 11.6453C15.682 11.5762 15.5304 11.475 15.4027 11.3473C15.275 11.2196 15.1738 11.068 15.1047 10.9012C15.0356 10.7344 15 10.5556 15 10.375C15.0313 10.0324 15.1898 9.71398 15.4444 9.48257C15.6989 9.25116 16.031 9.12358 16.375 9.125C16.6971 9.15316 16.9989 9.2939 17.2275 9.5225C17.4561 9.7511 17.5968 10.0529 17.625 10.375C17.6264 10.719 17.4988 11.0511 17.2674 11.3056C17.036 11.5602 16.7176 11.7187 16.375 11.75ZM30.25 11.75C30.0748 11.7509 29.9013 11.7149 29.7409 11.6444C29.5805 11.5739 29.4367 11.4705 29.3188 11.3409C29.2009 11.2112 29.1116 11.0582 29.0567 10.8918C29.0018 10.7254 28.9825 10.5493 29 10.375C29 10.0435 29.1317 9.72554 29.3661 9.49112C29.6005 9.2567 29.9185 9.125 30.25 9.125C30.5815 9.125 30.8995 9.2567 31.1339 9.49112C31.3683 9.72554 31.5 10.0435 31.5 10.375C31.5175 10.5493 31.4982 10.7254 31.4433 10.8918C31.3884 11.0582 31.2991 11.2112 31.1812 11.3409C31.0633 11.4705 30.9195 11.5739 30.7591 11.6444C30.5987 11.7149 30.4252 11.7509 30.25 11.75Z" fill="#C115EC"/>
<path d="M8.125 18.5V40.5C8.125 41.4614 8.50692 42.3834 9.18674 43.0633C9.86656 43.7431 10.7886 44.125 11.75 44.125H14.25V51.625C14.2247 52.2877 14.4027 52.9423 14.7603 53.5009C15.1178 54.0595 15.6376 54.4954 16.25 54.75H17.625L18.875 54.5C19.5006 54.2506 20.0372 53.8197 20.4159 53.2628C20.7946 52.7059 20.998 52.0485 21 51.375V43.875H25.625V51.375C25.625 51.8182 25.7123 52.2571 25.8819 52.6666C26.0515 53.076 26.3001 53.4481 26.6135 53.7615C26.9269 54.0749 27.299 54.3235 27.7084 54.4931C28.1179 54.6627 28.5568 54.75 29 54.75C29.4432 54.75 29.8821 54.6627 30.2916 54.4931C30.701 54.3235 31.0731 54.0749 31.3865 53.7615C31.6999 53.4481 31.9485 53.076 32.1181 52.6666C32.2877 52.2571 32.375 51.8182 32.375 51.375V43.875H34.875C35.6367 43.8148 36.3693 43.5563 37 43.125C37.4561 42.7951 37.829 42.3636 38.0894 41.8646C38.3498 41.3656 38.4903 40.8128 38.5 40.25V18.5H8.125Z" fill="#C115EC"/>
<path d="M46.5 21.125C46.5142 20.3611 46.2589 19.6167 45.7789 19.0224C45.2988 18.428 44.6248 18.0218 43.875 17.875H43.125C42.2299 17.875 41.3715 18.2306 40.7385 18.8635C40.1056 19.4964 39.75 20.3549 39.75 21.25V35.375C39.75 36.2701 40.1056 37.1285 40.7385 37.7615C41.3715 38.3944 42.2299 38.75 43.125 38.75C44.0201 38.75 44.8786 38.3944 45.5115 37.7615C46.1444 37.1285 46.5 36.2701 46.5 35.375V21.125Z" fill="#C115EC"/>
</svg>
