<svg width="56" height="56" viewBox="0 0 56 56" fill="none" xmlns="http://www.w3.org/2000/svg">
<path d="M53.25 34.625H45.75V27.125H42V44H12V14L28.875 13.9983V10.25H21.375V2.75H17.625V10.25H12C11.0057 10.251 10.0525 10.6464 9.34945 11.3494C8.6464 12.0525 8.25099 13.0057 8.25 14V19.625H0.75V23.375H8.25V34.625H0.75V38.375H8.25V44C8.25114 44.9942 8.6466 45.9474 9.34961 46.6504C10.0526 47.3534 11.0058 47.7489 12 47.75H17.625V55.25H21.375V47.75H32.625V55.25H36.375V47.75H42C42.9942 47.7487 43.9472 47.3531 44.6502 46.6502C45.3531 45.9472 45.7487 44.9942 45.75 44V38.375H53.25V34.625Z" fill="#C115EC"/>
<path d="M36.375 38.375H17.625V19.625H36.375V38.375ZM21.375 34.625H32.625V23.375H21.375V34.625Z" fill="#C115EC"/>
<path d="M55.125 23.375H51.375C51.3692 18.404 49.3919 13.6382 45.8768 10.1232C42.3618 6.60811 37.596 4.63081 32.625 4.625V0.875C38.5904 0.881502 44.3096 3.25412 48.5277 7.47228C52.7459 11.6904 55.1185 17.4096 55.125 23.375Z" fill="#C115EC"/>
<path d="M45.75 23.375H42C41.9971 20.8895 41.0084 18.5066 39.2509 16.7491C37.4934 14.9916 35.1105 14.0029 32.625 14V10.25C36.1047 10.2542 39.4406 11.6384 41.9011 14.0989C44.3616 16.5594 45.7458 19.8953 45.75 23.375Z" fill="#C115EC"/>
</svg>
