<svg width="51" height="60" viewBox="0 0 51 60" fill="none" xmlns="http://www.w3.org/2000/svg">
<path fill-rule="evenodd" clip-rule="evenodd" d="M34.7127 9.57861C36.8999 7.04364 38.3742 3.51294 37.9707 0C34.8188 0.12 31.0056 2.01344 28.7456 4.54541C26.7161 6.79238 24.9445 10.3827 25.4208 13.8267C28.9367 14.0876 32.5254 12.1166 34.7127 9.57861ZM42.597 31.875C42.6849 40.9559 50.909 43.9766 51 44.0156C50.9333 44.2286 49.6865 48.3199 46.668 52.5498C44.0561 56.2038 41.3471 59.8429 37.0789 59.9209C32.8864 59.9959 31.5365 57.5391 26.7404 57.5391C21.9473 57.5391 20.4487 59.8426 16.4808 59.9956C12.3612 60.1426 9.22141 56.0423 6.59129 52.4004C1.2097 44.9515 -2.9008 31.3503 2.62033 22.1704C5.36269 17.6135 10.2619 14.7234 15.5828 14.6514C19.6266 14.5764 23.4459 17.2588 25.9183 17.2588C28.3907 17.2588 33.0321 14.0338 37.9101 14.5078C39.9517 14.5888 45.6851 15.2966 49.3649 20.4595C49.0676 20.6365 42.5242 24.2851 42.597 31.875Z" fill="#C115EC"/>
</svg>
