<svg width="23" height="23" viewBox="0 0 23 23" fill="none" xmlns="http://www.w3.org/2000/svg">
<path d="M13.9381 5.00049C14.9149 5.19105 15.8125 5.66875 16.5162 6.37242C17.2199 7.0761 17.6976 7.97375 17.8881 8.95049M13.9381 1.00049C15.9674 1.22592 17.8597 2.13466 19.3044 3.5775C20.749 5.02033 21.6601 6.9115 21.8881 8.94049M20.8881 16.9205V19.9205C20.8892 20.199 20.8322 20.4747 20.7206 20.7298C20.6091 20.985 20.4454 21.2141 20.2402 21.4024C20.035 21.5906 19.7927 21.734 19.5289 21.8232C19.265 21.9124 18.9855 21.9456 18.7081 21.9205C15.631 21.5861 12.6751 20.5346 10.0781 18.8505C7.66194 17.3152 5.61345 15.2667 4.07812 12.8505C2.38809 10.2417 1.33636 7.27148 1.00812 4.18049C0.983127 3.90396 1.01599 3.62525 1.10462 3.36211C1.19324 3.09898 1.33569 2.85718 1.52288 2.65211C1.71008 2.44704 1.93792 2.2832 2.19191 2.17101C2.44589 2.05882 2.72046 2.00075 2.99812 2.00049H5.99812C6.48342 1.99571 6.95391 2.16757 7.32188 2.48402C7.68985 2.80048 7.93019 3.23993 7.99812 3.72049C8.12474 4.68055 8.35957 5.62322 8.69812 6.53049C8.83266 6.88841 8.86178 7.2774 8.78202 7.65137C8.70227 8.02533 8.51698 8.3686 8.24812 8.64049L6.97812 9.91049C8.40167 12.414 10.4746 14.4869 12.9781 15.9105L14.2481 14.6405C14.52 14.3716 14.8633 14.1863 15.2372 14.1066C15.6112 14.0268 16.0002 14.0559 16.3581 14.1905C17.2654 14.529 18.2081 14.7639 19.1681 14.8905C19.6539 14.959 20.0975 15.2037 20.4146 15.578C20.7318 15.9523 20.9003 16.4301 20.8881 16.9205Z" stroke="white" stroke-width="2" stroke-linecap="round" stroke-linejoin="round"/>
</svg>
