<svg width="33" height="33" viewBox="0 0 33 33" fill="none" xmlns="http://www.w3.org/2000/svg">
<g clip-path="url(#clip0_241_37)">
<path d="M20.12 6.95848C21.4259 7.21327 22.6261 7.85196 23.5669 8.7928C24.5077 9.73364 25.1464 10.9338 25.4012 12.2397M20.12 1.61035C22.8332 1.91177 25.3632 3.12678 27.2948 5.05589C29.2263 6.985 30.4445 9.51356 30.7494 12.2264M29.4123 22.8959V26.907C29.4138 27.2793 29.3376 27.6479 29.1884 27.9891C29.0392 28.3303 28.8204 28.6366 28.546 28.8883C28.2716 29.14 27.9477 29.3317 27.595 29.451C27.2422 29.5703 26.8685 29.6146 26.4976 29.581C22.3833 29.134 18.4313 27.7281 14.959 25.4764C11.7285 23.4236 8.98962 20.6847 6.93683 17.4542C4.67722 13.9661 3.27101 9.99487 2.83214 5.86211C2.79873 5.49238 2.84267 5.11974 2.96117 4.76792C3.07966 4.4161 3.27011 4.0928 3.5204 3.81862C3.77069 3.54444 4.07532 3.32537 4.41491 3.17538C4.75449 3.02538 5.12159 2.94773 5.49283 2.94738H9.50393C10.1528 2.941 10.7819 3.17077 11.2738 3.59388C11.7658 4.01699 12.0872 4.60456 12.178 5.24708C12.3473 6.53072 12.6613 7.79108 13.1139 9.00413C13.2938 9.48269 13.3327 10.0028 13.2261 10.5028C13.1195 11.0028 12.8717 11.4617 12.5122 11.8253L10.8142 13.5233C12.7176 16.8706 15.4891 19.6421 18.8364 21.5455L20.5344 19.8475C20.898 19.488 21.3569 19.2402 21.8569 19.1336C22.3569 19.027 22.877 19.0659 23.3556 19.2458C24.5686 19.6984 25.829 20.0124 27.1126 20.1817C27.7621 20.2733 28.3553 20.6005 28.7793 21.1009C29.2033 21.6014 29.4286 22.2402 29.4123 22.8959Z" stroke="black" stroke-width="2" stroke-linecap="round" stroke-linejoin="round"/>
</g>
<defs>
<clipPath id="clip0_241_37">
<rect width="32.0887" height="32.0887" fill="white" transform="translate(-0.00244141 0.273438)"/>
</clipPath>
</defs>
</svg>
