<svg width="88" height="80" viewBox="0 0 88 80" fill="none" xmlns="http://www.w3.org/2000/svg">
<path d="M34.0893 0C33.7573 4.50242e-05 33.4311 0.0878921 33.1434 0.254733C32.8558 0.421575 32.6168 0.661546 32.4505 0.950585C32.2841 1.23962 32.1962 1.56757 32.1957 1.90155C32.1951 2.23552 32.2818 2.56378 32.4471 2.85342L76.0029 79.0438C76.1734 79.3425 76.4213 79.5891 76.7201 79.7573C77.0189 79.9255 77.3575 80.0091 77.6997 79.9992C78.042 79.9893 78.3752 79.8862 78.6639 79.7009C78.9526 79.5157 79.1859 79.2551 79.3391 78.9471L87.0028 63.5304C88.4097 60.6955 88.3242 57.334 86.7698 54.5758L58.7448 4.82886C57.0656 1.84829 53.9157 0 50.5078 0H34.0893ZM37.3627 3.80952H50.5078C52.5577 3.80952 54.4393 4.91483 55.4492 6.70758L83.4742 56.4546C84.4081 58.1116 84.4614 60.1243 83.6148 61.8303L77.5267 74.0699L37.3627 3.80952ZM26.507 13.3333C26.1788 13.3347 25.8566 13.4218 25.5719 13.5862C25.2873 13.7505 25.05 13.9864 24.8833 14.2708L5.94598 46.6517C5.77651 46.941 5.68607 47.2702 5.68382 47.606C5.68158 47.9417 5.7676 48.2721 5.93319 48.5637C6.09877 48.8553 6.33803 49.0976 6.62672 49.2662C6.91541 49.4348 7.24328 49.5237 7.5771 49.5238H47.3454C47.6859 49.5237 48.0201 49.4314 48.3128 49.2564C48.6055 49.0814 48.8459 48.8303 49.0087 48.5295C49.1715 48.2287 49.2506 47.8893 49.2378 47.5471C49.225 47.2048 49.1207 46.8724 48.9359 46.5848L28.1048 14.2039C27.9324 13.9357 27.6957 13.7154 27.4165 13.5632C27.1373 13.4111 26.8245 13.3321 26.507 13.3333ZM26.5921 18.8653L43.865 45.7142H10.8874L26.5921 18.8653ZM1.89591 59.0476C1.56584 59.0472 1.24141 59.1336 0.95478 59.2983C0.668148 59.4629 0.429267 59.7 0.261816 59.9861C0.0943656 60.2722 0.00415992 60.5973 0.000140467 60.9293C-0.00387898 61.2613 0.0784274 61.5885 0.238901 61.8787L9.70755 79.0215C9.87187 79.3184 10.1122 79.5657 10.4035 79.7378C10.6949 79.9098 11.0267 80.0003 11.3646 79.9999H64.389C64.719 80.0003 65.0435 79.9138 65.3301 79.7492C65.6167 79.5846 65.8556 79.3475 66.0231 79.0614C66.1905 78.7753 66.2807 78.4501 66.2848 78.1182C66.2888 77.7862 66.2065 77.4589 66.046 77.1688L56.5774 60.026C56.413 59.7291 56.1727 59.4818 55.8814 59.3097C55.59 59.1377 55.2582 59.0472 54.9203 59.0476H1.89591ZM5.11747 62.8571H53.807L61.1674 76.1904H12.4779L5.11747 62.8571Z" fill="url(#paint0_linear_184_86)"/>
<defs>
<linearGradient id="paint0_linear_184_86" x1="44" y1="0" x2="44" y2="80" gradientUnits="userSpaceOnUse">
<stop stop-color="#C115EC"/>
<stop offset="1" stop-color="#000DFF"/>
</linearGradient>
</defs>
</svg>
