<svg width="77" height="80" viewBox="0 0 77 80" fill="none" xmlns="http://www.w3.org/2000/svg">
<path d="M38.4729 0.000203965C38.0216 0.00740772 37.5909 0.190139 37.2719 0.509716L37.238 0.543683L1.51531 36.3114C-0.505103 38.3344 -0.505103 41.6662 1.51531 43.6891L37.2719 79.4908C37.5977 79.8169 38.0394 80 38.5 80C38.9606 80 39.4023 79.8169 39.7281 79.4908L39.762 79.4569L75.4847 43.6891C77.5051 41.6662 77.5051 38.3344 75.4847 36.3114L39.7281 0.509716C39.5636 0.34495 39.3677 0.214947 39.1521 0.127423C38.9365 0.0398987 38.7055 -0.00336347 38.4729 0.000203965ZM38.6086 4.30728L73.0285 38.7706C73.7214 39.4644 73.7214 40.5362 73.0285 41.2299L45.0339 69.2598C45.2403 68.2478 45.3893 67.2212 45.4444 66.179C45.4476 66.1179 45.4476 66.0567 45.4444 65.9956C45.2124 61.6034 43.6015 57.4115 40.8713 54.0017L53.6236 41.2299C53.9492 40.9037 54.1322 40.4614 54.1322 40.0003C54.1322 39.5391 53.9492 39.0968 53.6236 38.7706L39.762 24.8916C36.9427 21.9033 35.2822 18.015 35.0431 13.9133C35.2472 10.4117 36.4961 7.07059 38.6086 4.30728ZM31.9661 10.7407C31.7597 11.7528 31.6107 12.7794 31.5556 13.8216C31.5524 13.8827 31.5524 13.9439 31.5556 14.005C31.7877 18.3979 33.4011 22.5887 36.1321 25.9989L23.3764 38.7706C23.0508 39.0968 22.8678 39.5391 22.8678 40.0003C22.8678 40.4614 23.0508 40.9037 23.3764 41.2299L37.2719 55.1464C40.0701 58.1297 41.7188 62.0024 41.9569 66.0873C41.7528 69.5888 40.5039 72.93 38.3914 75.6933L3.97146 41.2299C3.27859 40.5362 3.27859 39.4644 3.97146 38.7706L31.9661 10.7407ZM38.5 28.5464L49.9394 40.0003L38.5 51.4541L27.0606 40.0003L38.5 28.5464Z" fill="url(#paint0_linear_376_2)"/>
<defs>
<linearGradient id="paint0_linear_376_2" x1="38.5" y1="0" x2="38.5" y2="80" gradientUnits="userSpaceOnUse">
<stop stop-color="#000DFF"/>
<stop offset="1" stop-color="#C115EC"/>
</linearGradient>
</defs>
</svg>
