<svg width="73" height="80" viewBox="0 0 73 80" fill="none" xmlns="http://www.w3.org/2000/svg">
<path d="M36.4898 0C36.4524 0.00105655 36.4151 0.00332055 36.3778 0.00678829C36.354 0.00856138 36.3302 0.0108246 36.3065 0.0135766C36.261 0.0185741 36.2157 0.0253678 36.1707 0.0339415C36.1135 0.0446674 36.0568 0.058261 36.001 0.0746712C35.9481 0.0902866 35.896 0.108409 35.8448 0.128978C35.8403 0.13122 35.8358 0.133483 35.8312 0.135766C35.8142 0.142286 35.7972 0.149075 35.7803 0.156131C35.7621 0.164865 35.7439 0.173917 35.726 0.183284C35.4116 0.337964 35.1512 0.584051 34.9792 0.889266L35.1625 0.522698L0.828311 21.5596C0.575332 21.715 0.366382 21.9326 0.221382 22.1917C0.0763819 22.4507 0.000165689 22.7426 0 23.0395V56.9436C0.000165392 57.2404 0.0763811 57.5323 0.221381 57.7914C0.366381 58.0504 0.575331 58.268 0.828311 58.4234L11.2569 64.8146C11.5205 64.9764 11.8225 65.065 12.1317 65.0712C12.441 65.0774 12.7463 65.001 13.0161 64.8498C13.286 64.6986 13.5106 64.4782 13.6668 64.2113C13.823 63.9444 13.9052 63.6406 13.9048 63.3314V29.8515L36.5 16.0068L59.0952 29.8515V63.3314C59.0948 63.6406 59.177 63.9444 59.3332 64.2113C59.4894 64.4782 59.714 64.6986 59.9839 64.8498C60.2537 65.001 60.559 65.0774 60.8683 65.0712C61.1775 65.065 61.4795 64.9764 61.7431 64.8146L72.1717 58.4234C72.4247 58.268 72.6336 58.0504 72.7786 57.7914C72.9236 57.5323 72.9998 57.2404 73 56.9436V23.0395C72.9998 22.7426 72.9236 22.4507 72.7786 22.1917C72.6336 21.9326 72.4247 21.715 72.1717 21.5596L37.498 0.312261H37.4947C37.4244 0.263913 37.3506 0.220804 37.274 0.183284C37.2275 0.159658 37.1799 0.13814 37.1314 0.118795C37.1258 0.116503 37.1201 0.11424 37.1144 0.112007C37.1088 0.109714 37.1031 0.107451 37.0975 0.105218C37.0484 0.0882865 36.9985 0.0735639 36.9481 0.0610946C36.8955 0.0472907 36.8422 0.0359644 36.7886 0.0271532C36.7852 0.0260113 36.7818 0.0248799 36.7784 0.023759C36.7738 0.0237413 36.7693 0.0237413 36.7648 0.023759C36.7243 0.0166579 36.6835 0.0109975 36.6426 0.00678829C36.6143 0.00496597 36.586 0.00383422 36.5577 0.00339415C36.5351 0.0018204 36.5125 0.000688774 36.4898 0ZM34.952 2.52185C35.0977 2.81329 35.3224 3.05792 35.6004 3.22783L36.4117 3.72677L35.726 4.06958L34.952 2.52185ZM38.048 2.52185L37.274 4.06958L36.5883 3.72677L37.3996 3.22783C37.6776 3.05792 37.9023 2.81329 38.048 2.52185ZM35.7226 3.29232C35.9537 3.40811 36.2076 3.47094 36.466 3.47622C36.7244 3.4815 36.9807 3.42912 37.2163 3.32287L36.5 3.68265L35.7226 3.29232ZM36.5 3.77768L69.5238 24.0136V55.9695L62.5714 60.2291V28.8774C62.5713 28.5805 62.4951 28.2887 62.3501 28.0296C62.2051 27.7705 61.9961 27.5529 61.7431 27.3975L37.4098 12.4871C37.1361 12.319 36.8212 12.23 36.5 12.23C36.1788 12.23 35.8639 12.319 35.5902 12.4871L11.2569 27.3975C11.0039 27.5529 10.795 27.7705 10.65 28.0296C10.505 28.2887 10.4287 28.5805 10.4286 28.8774V60.2291L3.47619 55.9695V24.0136L36.5 3.77768ZM31.2348 25.9958C30.9312 26.0041 30.6351 26.0919 30.3759 26.2503L19.9474 32.6415C19.6944 32.7969 19.4854 33.0145 19.3404 33.2736C19.1954 33.5326 19.1192 33.8245 19.119 34.1213V68.6568C19.119 68.9545 19.1954 69.2473 19.3411 69.507C19.4867 69.7668 19.6967 69.9847 19.9508 70.14L35.339 79.5622L35.1455 79.3042C35.3096 79.5213 35.5224 79.6969 35.7667 79.8167C35.8699 79.868 35.978 79.909 36.0892 79.9389C36.1452 79.9542 36.2018 79.9666 36.259 79.9762C36.3074 79.984 36.3561 79.9896 36.4049 79.9932C36.414 79.9944 36.423 79.9955 36.4321 79.9966C36.4389 79.9966 36.4457 79.9966 36.4525 79.9966C36.4841 79.9986 36.5158 79.9997 36.5475 80C36.577 79.9996 36.6064 79.9985 36.6358 79.9966C36.6641 79.995 36.6924 79.9928 36.7207 79.9898C36.7593 79.9855 36.7978 79.9798 36.8361 79.9728C36.8932 79.9632 36.9499 79.9508 37.0058 79.9355C37.0598 79.92 37.1131 79.9019 37.1654 79.8812C37.1665 79.8812 37.1676 79.8812 37.1688 79.8812C37.171 79.8801 37.1733 79.8789 37.1755 79.8778C37.2228 79.8595 37.2693 79.8391 37.3147 79.8167C37.6292 79.662 37.8895 79.4159 38.0616 79.1107L37.8783 79.4739L53.0526 70.1366C53.3056 69.9812 53.5146 69.7636 53.6596 69.5046C53.8046 69.2455 53.8808 68.9536 53.881 68.6568V34.1213C53.8808 33.8245 53.8046 33.5326 53.6596 33.2736C53.5146 33.0145 53.3056 32.7969 53.0526 32.6415L42.6241 26.2503C42.3607 26.0886 42.059 26.0001 41.7501 25.9937C41.4411 25.9874 41.1361 26.0635 40.8663 26.2143C40.5966 26.365 40.3719 26.585 40.2154 26.8514C40.059 27.1179 39.9764 27.4212 39.9762 27.7302V61.8888L36.5407 63.9932L33.0238 61.8379V27.7302C33.0234 27.4979 32.9765 27.2681 32.8858 27.0542C32.795 26.8404 32.6624 26.6469 32.4956 26.4853C32.3288 26.3236 32.1313 26.197 31.9148 26.1129C31.6982 26.0288 31.467 25.989 31.2348 25.9958ZM29.5476 30.8358V62.812C29.5476 63.1098 29.624 63.4026 29.7697 63.6623C29.9153 63.922 30.1252 64.14 30.3793 64.2953L35.631 67.5129C35.9043 67.6804 36.2185 67.769 36.539 67.769C36.8596 67.769 37.1738 67.6804 37.4471 67.5129L42.6241 64.3428C42.8775 64.1871 43.0868 63.969 43.2318 63.7093C43.3769 63.4496 43.4528 63.157 43.4524 62.8596V30.8358L50.4048 35.0955V67.686L36.5373 76.2189L22.5952 67.6826V35.0955L29.5476 30.8358ZM35.7667 75.9304L36.4525 76.2732L35.6343 76.7756C35.3866 76.9282 35.1812 77.1406 35.0369 77.3933L35.7667 75.9304ZM37.0567 76.0594L37.9224 77.2134C37.7911 77.0372 37.6275 76.8875 37.4403 76.7722L36.6256 76.2732L37.0567 76.0594ZM36.5407 76.3174L37.3181 76.7043C37.0841 76.5875 36.8267 76.525 36.5651 76.5214C36.3036 76.5179 36.0446 76.5734 35.8075 76.6839L36.5407 76.3174Z" fill="url(#paint0_linear_184_88)"/>
<defs>
<linearGradient id="paint0_linear_184_88" x1="36.5" y1="0" x2="36.5" y2="80" gradientUnits="userSpaceOnUse">
<stop stop-color="#000DFF"/>
<stop offset="1" stop-color="#C115EC"/>
</linearGradient>
</defs>
</svg>
